Mandali.ufo
<glyph name="exclam" format="1">
  <advance width="361"/>
  <unicode hex="0021"/>
  <outline>
	<contour>
	  <point x="195" y="82"/>
	  <point x="207" y="77"/>
	  <point x="215" y="70" type="curve" smooth="yes"/>
	  <point x="223" y="62"/>
	  <point x="228" y="51"/>
	  <point x="228" y="42" type="curve" smooth="yes"/>
	  <point x="228" y="31"/>
	  <point x="223" y="20"/>
	  <point x="215" y="13" type="curve" smooth="yes"/>
	  <point x="207" y="5"/>
	  <point x="195" y="0"/>
	  <point x="178" y="0" type="curve" smooth="yes"/>
	  <point x="162" y="0"/>
	  <point x="150" y="5"/>
	  <point x="142" y="13" type="curve" smooth="yes"/>
	  <point x="133" y="20"/>
	  <point x="129" y="31"/>
	  <point x="129" y="42" type="curve" smooth="yes"/>
	  <point x="129" y="51"/>
	  <point x="133" y="62"/>
	  <point x="142" y="70" type="curve" smooth="yes"/>
	  <point x="150" y="77"/>
	  <point x="162" y="82"/>
	  <point x="178" y="82" type="curve" smooth="yes"/>
	</contour>
	<contour>
	  <point x="133" y="637" type="line"/>
	  <point x="133" y="661"/>
	  <point x="153" y="673"/>
	  <point x="176" y="673" type="curve" smooth="yes"/>
	  <point x="197" y="673"/>
	  <point x="217" y="662"/>
	  <point x="217" y="637" type="curve" smooth="yes"/>
	  <point x="204" y="199" type="line" smooth="yes"/>
	  <point x="203" y="175"/>
	  <point x="190" y="163"/>
	  <point x="175" y="163" type="curve" smooth="yes"/>
	  <point x="161" y="163"/>
	  <point x="146" y="175"/>
	  <point x="146" y="199" type="curve" smooth="yes"/>
	</contour>
  </outline>
</glyph>
<glyph name="quotedbl" format="1">
  <advance width="288"/>
  <unicode hex="0022"/>
  <outline>
    <contour>
      <point x="166" y="641" type="line"/>
      <point x="166" y="643" type="line" smooth="yes"/>
      <point x="166" y="663"/>
      <point x="185" y="673"/>
      <point x="203" y="673" type="curve" smooth="yes"/>
      <point x="222" y="673"/>
      <point x="240" y="663"/>
      <point x="240" y="643" type="curve" smooth="yes"/>
      <point x="240" y="641" type="line"/>
      <point x="228" y="482" type="line" smooth="yes"/>
      <point x="227" y="462"/>
      <point x="214" y="452"/>
      <point x="203" y="452" type="curve" smooth="yes"/>
      <point x="191" y="452"/>
      <point x="180" y="462"/>
      <point x="178" y="482" type="curve" smooth="yes"/>
    </contour>
    <contour>
      <point x="45" y="641" type="line"/>
      <point x="45" y="643" type="line" smooth="yes"/>
      <point x="45" y="663"/>
      <point x="63" y="673"/>
      <point x="82" y="673" type="curve" smooth="yes"/>
      <point x="101" y="673"/>
      <point x="119" y="663"/>
      <point x="119" y="643" type="curve" smooth="yes"/>
      <point x="119" y="641" type="line"/>
      <point x="106" y="482" type="line" smooth="yes"/>
      <point x="105" y="462"/>
      <point x="93" y="452"/>
      <point x="81" y="452" type="curve" smooth="yes"/>
      <point x="70" y="452"/>
      <point x="58" y="462"/>
      <point x="57" y="482" type="curve" smooth="yes"/>
    </contour>
  </outline>
</glyph>
<glyph name="numbersign" format="1">
  <advance width="532"/>
  <unicode hex="0023"/>
  <outline>
    <contour>
      <point x="313" y="209" type="line"/>
      <point x="192" y="209" type="line"/>
      <point x="162" y="5" type="line" smooth="yes"/>
      <point x="158" y="-14"/>
      <point x="144" y="-23"/>
      <point x="130" y="-23" type="curve" smooth="yes"/>
      <point x="115" y="-23"/>
      <point x="100" y="-13"/>
      <point x="100" y="7" type="curve" smooth="yes"/>
      <point x="100" y="10" type="line" smooth="yes"/>
      <point x="100" y="11"/>
      <point x="100" y="12"/>
      <point x="101" y="13" type="curve"/>
      <point x="129" y="209" type="line"/>
      <point x="62" y="209" type="line" smooth="yes"/>
      <point x="43" y="209"/>
      <point x="33" y="224"/>
      <point x="33" y="238" type="curve" smooth="yes"/>
      <point x="33" y="253"/>
      <point x="42" y="268"/>
      <point x="62" y="268" type="curve" smooth="yes"/>
      <point x="137" y="268" type="line"/>
      <point x="156" y="393" type="line"/>
      <point x="88" y="393" type="line" smooth="yes"/>
      <point x="68" y="393"/>
      <point x="58" y="408"/>
      <point x="58" y="423" type="curve" smooth="yes"/>
      <point x="58" y="438"/>
      <point x="68" y="452"/>
      <point x="88" y="452" type="curve" smooth="yes"/>
      <point x="164" y="452" type="line"/>
      <point x="191" y="637" type="line" smooth="yes"/>
      <point x="194" y="655"/>
      <point x="209" y="664"/>
      <point x="224" y="664" type="curve" smooth="yes"/>
      <point x="240" y="664"/>
      <point x="254" y="654"/>
      <point x="254" y="635" type="curve" smooth="yes"/>
      <point x="254" y="632" type="line" smooth="yes"/>
      <point x="254" y="631"/>
      <point x="254" y="630"/>
      <point x="254" y="628" type="curve"/>
      <point x="228" y="452" type="line"/>
      <point x="348" y="452" type="line"/>
      <point x="375" y="637" type="line" smooth="yes"/>
      <point x="378" y="655"/>
      <point x="393" y="664"/>
      <point x="408" y="664" type="curve" smooth="yes"/>
      <point x="424" y="664"/>
      <point x="438" y="654"/>
      <point x="438" y="635" type="curve" smooth="yes"/>
      <point x="438" y="632" type="line" smooth="yes"/>
      <point x="438" y="631"/>
      <point x="438" y="630"/>
      <point x="438" y="628" type="curve"/>
      <point x="411" y="452" type="line"/>
      <point x="469" y="452" type="line" smooth="yes"/>
      <point x="489" y="452"/>
      <point x="499" y="437"/>
      <point x="499" y="422" type="curve" smooth="yes"/>
      <point x="499" y="407"/>
      <point x="489" y="393"/>
      <point x="469" y="393" type="curve" smooth="yes"/>
      <point x="403" y="393" type="line"/>
      <point x="384" y="268" type="line"/>
      <point x="443" y="268" type="line" smooth="yes"/>
      <point x="463" y="268"/>
      <point x="473" y="253"/>
      <point x="473" y="238" type="curve" smooth="yes"/>
      <point x="473" y="223"/>
      <point x="463" y="209"/>
      <point x="443" y="209" type="curve" smooth="yes"/>
      <point x="375" y="209" type="line"/>
      <point x="345" y="5" type="line" smooth="yes"/>
      <point x="342" y="-14"/>
      <point x="328" y="-23"/>
      <point x="314" y="-23" type="curve" smooth="yes"/>
      <point x="299" y="-23"/>
      <point x="284" y="-13"/>
      <point x="284" y="7" type="curve" smooth="yes"/>
      <point x="284" y="10" type="line" smooth="yes"/>
      <point x="284" y="11"/>
      <point x="284" y="12"/>
      <point x="284" y="13" type="curve"/>
    </contour>
    <contour>
      <point x="201" y="268" type="line"/>
      <point x="321" y="268" type="line"/>
      <point x="339" y="393" type="line"/>
      <point x="219" y="393" type="line"/>
    </contour>
  </outline>
</glyph>
<glyph name="dollar" format="1">
  <advance width="580"/>
  <unicode hex="0024"/>
  <outline>
	<contour>
	  <point x="241" y="-19" type="line"/>
	  <point x="211" y="-18"/>
	  <point x="180" y="-13"/>
	  <point x="153" y="-7" type="curve" smooth="yes"/>
	  <point x="125" y="-1"/>
	  <point x="100" y="6"/>
	  <point x="81" y="13" type="curve" smooth="yes"/>
	  <point x="63" y="20"/>
	  <point x="55" y="33"/>
	  <point x="55" y="46" type="curve" smooth="yes"/>
	  <point x="55" y="62"/>
	  <point x="66" y="76"/>
	  <point x="83" y="76" type="curve" smooth="yes"/>
	  <point x="87" y="76"/>
	  <point x="91" y="75"/>
	  <point x="95" y="74" type="curve"/>
	  <point x="107" y="70"/>
	  <point x="118" y="66"/>
	  <point x="130" y="63" type="curve"/>
	  <point x="152" y="56"/>
	  <point x="177" y="51"/>
	  <point x="208" y="47" type="curve" smooth="yes"/>
	  <point x="224" y="46"/>
	  <point x="243" y="45"/>
	  <point x="264" y="45" type="curve" smooth="yes"/>
	  <point x="303" y="45"/>
	  <point x="343" y="55"/>
	  <point x="372" y="73" type="curve" smooth="yes"/>
	  <point x="401" y="91"/>
	  <point x="420" y="119"/>
	  <point x="420" y="156" type="curve" smooth="yes"/>
	  <point x="420" y="182"/>
	  <point x="411" y="202"/>
	  <point x="396" y="218" type="curve" smooth="yes"/>
	  <point x="380" y="234"/>
	  <point x="358" y="247"/>
	  <point x="333" y="257" type="curve" smooth="yes"/>
	  <point x="312" y="266"/>
	  <point x="290" y="273"/>
	  <point x="268" y="280" type="curve" smooth="yes"/>
	  <point x="222" y="294"/>
	  <point x="179" y="307"/>
	  <point x="140" y="325" type="curve" smooth="yes"/>
	  <point x="101" y="343"/>
	  <point x="72" y="369"/>
	  <point x="55" y="405" type="curve" smooth="yes"/>
	  <point x="46" y="424"/>
	  <point x="41" y="446"/>
	  <point x="41" y="472" type="curve" smooth="yes"/>
	  <point x="41" y="522"/>
	  <point x="65" y="563"/>
	  <point x="101" y="592" type="curve" smooth="yes"/>
	  <point x="137" y="621"/>
	  <point x="187" y="638"/>
	  <point x="241" y="642" type="curve"/>
	  <point x="241" y="698" type="line" smooth="yes"/>
	  <point x="241" y="715"/>
	  <point x="253" y="723"/>
	  <point x="266" y="723" type="curve" smooth="yes"/>
	  <point x="278" y="723"/>
	  <point x="291" y="715"/>
	  <point x="291" y="698" type="curve" smooth="yes"/>
	  <point x="291" y="642" type="line"/>
	  <point x="340" y="640"/>
	  <point x="396" y="632"/>
	  <point x="440" y="615" type="curve"/>
	  <point x="458" y="609"/>
	  <point x="466" y="596"/>
	  <point x="466" y="582" type="curve" smooth="yes"/>
	  <point x="466" y="567"/>
	  <point x="455" y="553"/>
	  <point x="437" y="553" type="curve" smooth="yes"/>
	  <point x="433" y="553"/>
	  <point x="430" y="554"/>
	  <point x="426" y="555" type="curve"/>
	  <point x="402" y="561"/>
	  <point x="375" y="566"/>
	  <point x="349" y="571" type="curve" smooth="yes"/>
	  <point x="322" y="575"/>
	  <point x="295" y="577"/>
	  <point x="272" y="577" type="curve" smooth="yes"/>
	  <point x="239" y="577"/>
	  <point x="202" y="570"/>
	  <point x="173" y="555" type="curve" smooth="yes"/>
	  <point x="144" y="539"/>
	  <point x="124" y="514"/>
	  <point x="124" y="481" type="curve" smooth="yes"/>
	  <point x="124" y="437"/>
	  <point x="148" y="410"/>
	  <point x="184" y="389" type="curve" smooth="yes"/>
	  <point x="219" y="369"/>
	  <point x="267" y="355"/>
	  <point x="314" y="341" type="curve" smooth="yes"/>
	  <point x="362" y="326"/>
	  <point x="410" y="309"/>
	  <point x="445" y="283" type="curve" smooth="yes"/>
	  <point x="481" y="256"/>
	  <point x="505" y="219"/>
	  <point x="505" y="163" type="curve" smooth="yes"/>
	  <point x="505" y="109"/>
	  <point x="480" y="66"/>
	  <point x="441" y="36" type="curve" smooth="yes"/>
	  <point x="402" y="5"/>
	  <point x="348" y="-13"/>
	  <point x="291" y="-18" type="curve"/>
	  <point x="291" y="-80" type="line" smooth="yes"/>
	  <point x="291" y="-96"/>
	  <point x="278" y="-105"/>
	  <point x="265" y="-105" type="curve" smooth="yes"/>
	  <point x="253" y="-105"/>
	  <point x="241" y="-98"/>
	  <point x="241" y="-80" type="curve" smooth="yes"/>
	</contour>
  </outline>
</glyph>
<glyph name="percent" format="1">
  <advance width="937"/>
  <unicode hex="0025"/>
  <outline>
    <contour>
      <point x="220" y="591"/>
      <point x="197" y="575"/>
      <point x="183" y="551" type="curve" smooth="yes"/>
      <point x="169" y="527"/>
      <point x="163" y="495"/>
      <point x="163" y="464" type="curve" smooth="yes"/>
      <point x="163" y="433"/>
      <point x="169" y="401"/>
      <point x="183" y="377" type="curve" smooth="yes"/>
      <point x="197" y="353"/>
      <point x="220" y="337"/>
      <point x="253" y="337" type="curve" smooth="yes"/>
      <point x="288" y="337"/>
      <point x="310" y="353"/>
      <point x="324" y="377" type="curve" smooth="yes"/>
      <point x="339" y="401"/>
      <point x="344" y="433"/>
      <point x="344" y="464" type="curve" smooth="yes"/>
      <point x="344" y="495"/>
      <point x="339" y="527"/>
      <point x="324" y="551" type="curve" smooth="yes"/>
      <point x="310" y="575"/>
      <point x="288" y="591"/>
      <point x="253" y="591" type="curve" smooth="yes"/>
    </contour>
    <contour>
      <point x="609" y="637" type="line" smooth="yes"/>
      <point x="617" y="649"/>
      <point x="626" y="654"/>
      <point x="635" y="654" type="curve" smooth="yes"/>
      <point x="648" y="654"/>
      <point x="659" y="642"/>
      <point x="659" y="628" type="curve" smooth="yes"/>
      <point x="659" y="623"/>
      <point x="658" y="618"/>
      <point x="655" y="613" type="curve" smooth="yes"/>
      <point x="295" y="-19" type="line" smooth="yes"/>
      <point x="290" y="-29"/>
      <point x="282" y="-32"/>
      <point x="273" y="-32" type="curve" smooth="yes"/>
      <point x="259" y="-32"/>
      <point x="246" y="-22"/>
      <point x="246" y="-8" type="curve" smooth="yes"/>
      <point x="246" y="-4"/>
      <point x="248" y="0"/>
      <point x="250" y="4" type="curve" smooth="yes"/>
    </contour>
    <contour>
      <point x="305" y="638"/>
      <point x="343" y="617"/>
      <point x="369" y="584" type="curve" smooth="yes"/>
      <point x="394" y="551"/>
      <point x="406" y="508"/>
      <point x="406" y="464" type="curve" smooth="yes"/>
      <point x="406" y="417"/>
      <point x="392" y="374"/>
      <point x="366" y="342" type="curve" smooth="yes"/>
      <point x="340" y="310"/>
      <point x="301" y="290"/>
      <point x="253" y="290" type="curve" smooth="yes"/>
      <point x="205" y="290"/>
      <point x="167" y="309"/>
      <point x="142" y="341" type="curve" smooth="yes"/>
      <point x="116" y="372"/>
      <point x="101" y="416"/>
      <point x="101" y="464" type="curve" smooth="yes"/>
      <point x="101" y="511"/>
      <point x="116" y="555"/>
      <point x="142" y="587" type="curve" smooth="yes"/>
      <point x="167" y="619"/>
      <point x="206" y="638"/>
      <point x="253" y="638" type="curve" smooth="yes"/>
    </contour>
    <contour>
      <point x="735" y="334"/>
      <point x="773" y="313"/>
      <point x="799" y="281" type="curve" smooth="yes"/>
      <point x="824" y="248"/>
      <point x="836" y="204"/>
      <point x="836" y="161" type="curve" smooth="yes"/>
      <point x="836" y="113"/>
      <point x="822" y="70"/>
      <point x="796" y="38" type="curve" smooth="yes"/>
      <point x="770" y="6"/>
      <point x="731" y="-14"/>
      <point x="683" y="-14" type="curve" smooth="yes"/>
      <point x="635" y="-14"/>
      <point x="597" y="6"/>
      <point x="571" y="38" type="curve" smooth="yes"/>
      <point x="545" y="70"/>
      <point x="531" y="113"/>
      <point x="531" y="161" type="curve" smooth="yes"/>
      <point x="531" y="208"/>
      <point x="546" y="251"/>
      <point x="571" y="283" type="curve" smooth="yes"/>
      <point x="597" y="315"/>
      <point x="636" y="334"/>
      <point x="683" y="334" type="curve" smooth="yes"/>
    </contour>
    <contour>
      <point x="649" y="288"/>
      <point x="627" y="271"/>
      <point x="613" y="248" type="curve" smooth="yes"/>
      <point x="598" y="223"/>
      <point x="593" y="192"/>
      <point x="593" y="161" type="curve" smooth="yes"/>
      <point x="593" y="130"/>
      <point x="598" y="97"/>
      <point x="613" y="74" type="curve" smooth="yes"/>
      <point x="627" y="50"/>
      <point x="649" y="33"/>
      <point x="683" y="33" type="curve" smooth="yes"/>
      <point x="717" y="33"/>
      <point x="740" y="50"/>
      <point x="754" y="74" type="curve" smooth="yes"/>
      <point x="768" y="97"/>
      <point x="774" y="130"/>
      <point x="774" y="161" type="curve" smooth="yes"/>
      <point x="774" y="192"/>
      <point x="768" y="223"/>
      <point x="754" y="248" type="curve" smooth="yes"/>
      <point x="740" y="271"/>
      <point x="717" y="288"/>
      <point x="683" y="288" type="curve" smooth="yes"/>
    </contour>
  </outline>
</glyph>
<glyph name="ampersand" format="1">
  <advance width="688"/>
  <unicode hex="0026"/>
  <outline>
	<contour>
	  <point x="555" y="422"/>
	  <point x="570" y="431"/>
	  <point x="586" y="431" type="curve" smooth="yes"/>
	  <point x="595" y="431"/>
	  <point x="604" y="428"/>
	  <point x="611" y="423" type="curve"/>
	  <point x="618" y="417"/>
	  <point x="622" y="409"/>
	  <point x="622" y="398" type="curve" smooth="yes"/>
	  <point x="622" y="394" type="line" smooth="yes"/>
	  <point x="622" y="394"/>
	  <point x="622" y="393"/>
	  <point x="622" y="392" type="curve"/>
	  <point x="619" y="360"/>
	  <point x="615" y="317"/>
	  <point x="606" y="272" type="curve" smooth="yes"/>
	  <point x="596" y="227"/>
	  <point x="581" y="180"/>
	  <point x="556" y="139" type="curve"/>
	  <point x="629" y="61" type="line" smooth="yes"/>
	  <point x="636" y="53"/>
	  <point x="638" y="45"/>
	  <point x="638" y="36" type="curve" smooth="yes"/>
	  <point x="638" y="26"/>
	  <point x="634" y="16"/>
	  <point x="627" y="9" type="curve" smooth="yes"/>
	  <point x="620" y="2"/>
	  <point x="610" y="-3"/>
	  <point x="600" y="-3" type="curve" smooth="yes"/>
	  <point x="591" y="-3"/>
	  <point x="582" y="1"/>
	  <point x="573" y="10" type="curve" smooth="yes"/>
	  <point x="506" y="85" type="line"/>
	  <point x="450" y="22"/>
	  <point x="386" y="-13"/>
	  <point x="298" y="-13" type="curve" smooth="yes"/>
	  <point x="230" y="-13"/>
	  <point x="167" y="5"/>
	  <point x="121" y="39" type="curve" smooth="yes"/>
	  <point x="76" y="73"/>
	  <point x="47" y="122"/>
	  <point x="47" y="185" type="curve" smooth="yes"/>
	  <point x="47" y="236"/>
	  <point x="70" y="275"/>
	  <point x="101" y="308" type="curve" smooth="yes"/>
	  <point x="133" y="340"/>
	  <point x="175" y="366"/>
	  <point x="215" y="394" type="curve"/>
	  <point x="193" y="417"/>
	  <point x="171" y="443"/>
	  <point x="154" y="470" type="curve" smooth="yes"/>
	  <point x="137" y="498"/>
	  <point x="125" y="528"/>
	  <point x="125" y="561" type="curve" smooth="yes"/>
	  <point x="125" y="603"/>
	  <point x="145" y="635"/>
	  <point x="175" y="656" type="curve" smooth="yes"/>
	  <point x="205" y="676"/>
	  <point x="244" y="687"/>
	  <point x="284" y="687" type="curve" smooth="yes"/>
	  <point x="324" y="687"/>
	  <point x="364" y="677"/>
	  <point x="394" y="657" type="curve" smooth="yes"/>
	  <point x="425" y="637"/>
	  <point x="445" y="606"/>
	  <point x="445" y="564" type="curve" smooth="yes"/>
	  <point x="445" y="525"/>
	  <point x="430" y="492"/>
	  <point x="407" y="463" type="curve" smooth="yes"/>
	  <point x="384" y="434"/>
	  <point x="353" y="410"/>
	  <point x="322" y="386" type="curve"/>
	  <point x="507" y="189" type="line"/>
	  <point x="521" y="218"/>
	  <point x="532" y="255"/>
	  <point x="540" y="292" type="curve" smooth="yes"/>
	  <point x="547" y="329"/>
	  <point x="552" y="367"/>
	  <point x="553" y="401" type="curve"/>
	</contour>
	<contour>
	  <point x="262" y="345" type="line"/>
	  <point x="240" y="331"/>
	  <point x="206" y="308"/>
	  <point x="178" y="281" type="curve" smooth="yes"/>
	  <point x="151" y="254"/>
	  <point x="128" y="223"/>
	  <point x="128" y="196" type="curve" smooth="yes"/>
	  <point x="128" y="150"/>
	  <point x="148" y="114"/>
	  <point x="179" y="89" type="curve" smooth="yes"/>
	  <point x="210" y="63"/>
	  <point x="251" y="50"/>
	  <point x="294" y="50" type="curve" smooth="yes"/>
	  <point x="329" y="50"/>
	  <point x="360" y="58"/>
	  <point x="387" y="72" type="curve" smooth="yes"/>
	  <point x="414" y="86"/>
	  <point x="439" y="105"/>
	  <point x="463" y="130" type="curve"/>
	</contour>
	<contour>
	  <point x="204" y="537"/>
	  <point x="214" y="513"/>
	  <point x="228" y="491" type="curve" smooth="yes"/>
	  <point x="242" y="469"/>
	  <point x="260" y="448"/>
	  <point x="276" y="431" type="curve"/>
	  <point x="285" y="440"/>
	  <point x="296" y="450"/>
	  <point x="306" y="459" type="curve" smooth="yes"/>
	  <point x="328" y="478"/>
	  <point x="346" y="498"/>
	  <point x="358" y="522" type="curve" smooth="yes"/>
	  <point x="364" y="533"/>
	  <point x="367" y="546"/>
	  <point x="367" y="560" type="curve" smooth="yes"/>
	  <point x="367" y="581"/>
	  <point x="357" y="598"/>
	  <point x="342" y="609" type="curve" smooth="yes"/>
	  <point x="327" y="620"/>
	  <point x="307" y="625"/>
	  <point x="287" y="625" type="curve" smooth="yes"/>
	  <point x="265" y="625"/>
	  <point x="245" y="620"/>
	  <point x="230" y="610" type="curve" smooth="yes"/>
	  <point x="214" y="599"/>
	  <point x="204" y="583"/>
	  <point x="204" y="560" type="curve" smooth="yes"/>
	</contour>
  </outline>
</glyph>
<glyph name="quotesingle" format="1">
  <advance width="266"/>
  <unicode hex="0027"/>
  <outline>
	<contour>
	  <point x="96" y="641" type="line"/>
	  <point x="96" y="643" type="line" smooth="yes"/>
	  <point x="96" y="663"/>
	  <point x="114" y="673"/>
	  <point x="133" y="673" type="curve" smooth="yes"/>
	  <point x="152" y="673"/>
	  <point x="170" y="663"/>
	  <point x="170" y="643" type="curve" smooth="yes"/>
	  <point x="170" y="641" type="line"/>
	  <point x="157" y="482" type="line" smooth="yes"/>
	  <point x="156" y="462"/>
	  <point x="145" y="452"/>
	  <point x="132" y="452" type="curve" smooth="yes"/>
	  <point x="121" y="452"/>
	  <point x="110" y="462"/>
	  <point x="108" y="482" type="curve" smooth="yes"/>
	</contour>
  </outline>
</glyph>
<glyph name="parenleft" format="1">
  <advance width="269"/>
  <unicode hex="0028"/>
  <outline>
	<contour>
	  <point x="140" y="-20"/>
	  <point x="116" y="40"/>
	  <point x="99" y="101" type="curve" smooth="yes"/>
	  <point x="82" y="163"/>
	  <point x="71" y="225"/>
	  <point x="71" y="288" type="curve" smooth="yes"/>
	  <point x="71" y="351"/>
	  <point x="82" y="414"/>
	  <point x="99" y="476" type="curve" smooth="yes"/>
	  <point x="116" y="538"/>
	  <point x="140" y="599"/>
	  <point x="165" y="658" type="curve" smooth="yes"/>
	  <point x="171" y="673"/>
	  <point x="182" y="679"/>
	  <point x="193" y="679" type="curve" smooth="yes"/>
	  <point x="207" y="679"/>
	  <point x="222" y="668"/>
	  <point x="222" y="652" type="curve" smooth="yes"/>
	  <point x="222" y="648"/>
	  <point x="221" y="644"/>
	  <point x="219" y="640" type="curve"/>
	  <point x="176" y="521"/>
	  <point x="149" y="402"/>
	  <point x="149" y="288" type="curve" smooth="yes"/>
	  <point x="149" y="176"/>
	  <point x="175" y="57"/>
	  <point x="219" y="-61" type="curve"/>
	  <point x="220" y="-64"/>
	  <point x="221" y="-68"/>
	  <point x="221" y="-73" type="curve" smooth="yes"/>
	  <point x="221" y="-89"/>
	  <point x="207" y="-100"/>
	  <point x="193" y="-100" type="curve" smooth="yes"/>
	  <point x="182" y="-100"/>
	  <point x="172" y="-94"/>
	  <point x="165" y="-79" type="curve" smooth="yes"/>
	</contour>
  </outline>
</glyph>
<glyph name="parenright" format="1">
  <advance width="269"/>
  <unicode hex="0029"/>
  <outline>
	<contour>
	  <point x="99" y="-94"/>
	  <point x="88" y="-100"/>
	  <point x="77" y="-100" type="curve" smooth="yes"/>
	  <point x="62" y="-100"/>
	  <point x="49" y="-89"/>
	  <point x="49" y="-73" type="curve" smooth="yes"/>
	  <point x="49" y="-70"/>
	  <point x="50" y="-66"/>
	  <point x="51" y="-61" type="curve" smooth="yes"/>
	  <point x="95" y="57"/>
	  <point x="121" y="176"/>
	  <point x="121" y="288" type="curve" smooth="yes"/>
	  <point x="121" y="402"/>
	  <point x="95" y="521"/>
	  <point x="51" y="640" type="curve"/>
	  <point x="49" y="644"/>
	  <point x="48" y="647"/>
	  <point x="48" y="652" type="curve" smooth="yes"/>
	  <point x="48" y="667"/>
	  <point x="63" y="679"/>
	  <point x="77" y="679" type="curve" smooth="yes"/>
	  <point x="88" y="679"/>
	  <point x="99" y="673"/>
	  <point x="106" y="658" type="curve"/>
	  <point x="131" y="599"/>
	  <point x="154" y="538"/>
	  <point x="172" y="476" type="curve" smooth="yes"/>
	  <point x="189" y="414"/>
	  <point x="200" y="351"/>
	  <point x="200" y="288" type="curve" smooth="yes"/>
	  <point x="200" y="225"/>
	  <point x="189" y="163"/>
	  <point x="172" y="101" type="curve" smooth="yes"/>
	  <point x="154" y="40"/>
	  <point x="131" y="-20"/>
	  <point x="106" y="-79" type="curve" smooth="yes"/>
	</contour>
  </outline>
</glyph>
<glyph name="asterisk" format="1">
  <advance width="503"/>
  <unicode hex="002A"/>
  <outline>
	<contour>
	  <point x="298" y="518" type="line"/>
	  <point x="409" y="522" type="line"/>
	  <point x="425" y="522"/>
	  <point x="438" y="511"/>
	  <point x="438" y="494" type="curve" smooth="yes"/>
	  <point x="438" y="479"/>
	  <point x="425" y="466"/>
	  <point x="409" y="466" type="curve"/>
	  <point x="297" y="470" type="line"/>
	  <point x="354" y="378" type="line"/>
	  <point x="357" y="373"/>
	  <point x="358" y="368"/>
	  <point x="358" y="363" type="curve" smooth="yes"/>
	  <point x="358" y="349"/>
	  <point x="347" y="335"/>
	  <point x="329" y="335" type="curve" smooth="yes"/>
	  <point x="319" y="335"/>
	  <point x="309" y="340"/>
	  <point x="304" y="349" type="curve" smooth="yes"/>
	  <point x="251" y="445" type="line"/>
	  <point x="197" y="349" type="line" smooth="yes"/>
	  <point x="192" y="340"/>
	  <point x="182" y="336"/>
	  <point x="172" y="335" type="curve"/>
	  <point x="163" y="335"/>
	  <point x="156" y="339"/>
	  <point x="151" y="344" type="curve" smooth="yes"/>
	  <point x="146" y="350"/>
	  <point x="143" y="357"/>
	  <point x="143" y="363" type="curve" smooth="yes"/>
	  <point x="143" y="368"/>
	  <point x="145" y="373"/>
	  <point x="147" y="378" type="curve"/>
	  <point x="205" y="470" type="line"/>
	  <point x="94" y="466" type="line"/>
	  <point x="78" y="466"/>
	  <point x="65" y="479"/>
	  <point x="65" y="494" type="curve" smooth="yes"/>
	  <point x="65" y="511"/>
	  <point x="78" y="522"/>
	  <point x="94" y="522" type="curve"/>
	  <point x="204" y="518" type="line"/>
	  <point x="147" y="611" type="line" smooth="yes"/>
	  <point x="144" y="616"/>
	  <point x="142" y="621"/>
	  <point x="142" y="626" type="curve" smooth="yes"/>
	  <point x="142" y="640"/>
	  <point x="154" y="654"/>
	  <point x="171" y="654" type="curve" smooth="yes"/>
	  <point x="182" y="654"/>
	  <point x="191" y="649"/>
	  <point x="197" y="639" type="curve" smooth="yes"/>
	  <point x="251" y="541" type="line"/>
	  <point x="305" y="639" type="line"/>
	  <point x="311" y="649"/>
	  <point x="320" y="654"/>
	  <point x="330" y="654" type="curve" smooth="yes"/>
	  <point x="347" y="654"/>
	  <point x="359" y="640"/>
	  <point x="359" y="625" type="curve" smooth="yes"/>
	  <point x="359" y="620"/>
	  <point x="358" y="615"/>
	  <point x="355" y="611" type="curve"/>
	</contour>
  </outline>
</glyph>
<glyph name="plus" format="1">
  <advance width="610"/>
  <unicode hex="002B"/>
  <outline>
	<contour>
	  <point x="336" y="256" type="line"/>
	  <point x="506" y="256" type="line" smooth="yes"/>
	  <point x="524" y="256"/>
	  <point x="538" y="243"/>
	  <point x="538" y="226" type="curve" smooth="yes"/>
	  <point x="538" y="209"/>
	  <point x="524" y="195"/>
	  <point x="506" y="195" type="curve" smooth="yes"/>
	  <point x="336" y="195" type="line"/>
	  <point x="336" y="32" type="line" smooth="yes"/>
	  <point x="336" y="15"/>
	  <point x="322" y="2"/>
	  <point x="305" y="2" type="curve" smooth="yes"/>
	  <point x="287" y="2"/>
	  <point x="273" y="15"/>
	  <point x="273" y="32" type="curve" smooth="yes"/>
	  <point x="273" y="195" type="line"/>
	  <point x="103" y="195" type="line" smooth="yes"/>
	  <point x="86" y="195"/>
	  <point x="71" y="209"/>
	  <point x="71" y="226" type="curve" smooth="yes"/>
	  <point x="71" y="243"/>
	  <point x="86" y="256"/>
	  <point x="103" y="256" type="curve" smooth="yes"/>
	  <point x="273" y="256" type="line"/>
	  <point x="273" y="420" type="line" smooth="yes"/>
	  <point x="273" y="438"/>
	  <point x="287" y="451"/>
	  <point x="305" y="451" type="curve" smooth="yes"/>
	  <point x="322" y="451"/>
	  <point x="336" y="438"/>
	  <point x="336" y="420" type="curve" smooth="yes"/>
	</contour>
  </outline>
</glyph>
<glyph name="comma" format="1">
  <advance width="266"/>
  <unicode hex="002C"/>
  <outline>
	<contour>
	  <point x="113" y="-109" type="line"/>
	  <point x="51" y="-109" type="line"/>
	  <point x="93" y="84" type="line"/>
	  <point x="182" y="84" type="line"/>
	</contour>
  </outline>
</glyph>
<glyph name="hyphen" format="1">
  <advance width="271"/>
  <unicode hex="002D"/>
  <outline>
    <contour>
      <point x="47" y="208" type="line" smooth="yes"/>
      <point x="29" y="208"/>
      <point x="14" y="222"/>
      <point x="14" y="239" type="curve" smooth="yes"/>
      <point x="14" y="258"/>
      <point x="28" y="272"/>
      <point x="47" y="272" type="curve" smooth="yes"/>
      <point x="224" y="272" type="line" smooth="yes"/>
      <point x="243" y="272"/>
      <point x="258" y="258"/>
      <point x="258" y="239" type="curve" smooth="yes"/>
      <point x="258" y="222"/>
      <point x="243" y="208"/>
      <point x="224" y="208" type="curve" smooth="yes"/>
    </contour>
  </outline>
</glyph>
<glyph name="period" format="1">
  <advance width="266"/>
  <unicode hex="002E"/>
  <outline>
	<contour>
	  <point x="84" y="55"/>
	  <point x="88" y="66"/>
	  <point x="96" y="75" type="curve" smooth="yes"/>
	  <point x="105" y="83"/>
	  <point x="117" y="88"/>
	  <point x="133" y="88" type="curve" smooth="yes"/>
	  <point x="148" y="88"/>
	  <point x="160" y="83"/>
	  <point x="169" y="75" type="curve" smooth="yes"/>
	  <point x="177" y="66"/>
	  <point x="182" y="55"/>
	  <point x="182" y="44" type="curve" smooth="yes"/>
	  <point x="182" y="33"/>
	  <point x="177" y="22"/>
	  <point x="169" y="14" type="curve" smooth="yes"/>
	  <point x="160" y="5"/>
	  <point x="148" y="0"/>
	  <point x="133" y="0" type="curve" smooth="yes"/>
	  <point x="117" y="0"/>
	  <point x="105" y="5"/>
	  <point x="96" y="14" type="curve" smooth="yes"/>
	  <point x="88" y="22"/>
	  <point x="84" y="33"/>
	  <point x="84" y="44" type="curve" smooth="yes"/>
	</contour>
  </outline>
</glyph>
<glyph name="slash" format="1">
  <advance width="268"/>
  <unicode hex="002F"/>
  <outline>
	<contour>
	  <point x="53" y="-57" type="line" smooth="yes"/>
	  <point x="47" y="-73"/>
	  <point x="35" y="-80"/>
	  <point x="22" y="-80" type="curve" smooth="yes"/>
	  <point x="6" y="-80"/>
	  <point x="-9" y="-69"/>
	  <point x="-9" y="-50" type="curve" smooth="yes"/>
	  <point x="-9" y="-47"/>
	  <point x="-8" y="-43"/>
	  <point x="-7" y="-38" type="curve"/>
	  <point x="213" y="628" type="line" smooth="yes"/>
	  <point x="218" y="644"/>
	  <point x="231" y="651"/>
	  <point x="244" y="651" type="curve" smooth="yes"/>
	  <point x="261" y="651"/>
	  <point x="277" y="640"/>
	  <point x="277" y="621" type="curve" smooth="yes"/>
	  <point x="277" y="618"/>
	  <point x="276" y="613"/>
	  <point x="274" y="608" type="curve"/>
	</contour>
  </outline>
</glyph>
<glyph name="zero" format="1">
  <advance width="531"/>
  <unicode hex="0030"/>
  <outline>
    <contour>
      <point x="223" y="590"/>
      <point x="194" y="572"/>
      <point x="173" y="545" type="curve" smooth="yes"/>
      <point x="153" y="517"/>
      <point x="141" y="479"/>
      <point x="135" y="441" type="curve" smooth="yes"/>
      <point x="128" y="402"/>
      <point x="126" y="364"/>
      <point x="126" y="321" type="curve" smooth="yes"/>
      <point x="126" y="282"/>
      <point x="128" y="243"/>
      <point x="135" y="204" type="curve" smooth="yes"/>
      <point x="141" y="165"/>
      <point x="153" y="128"/>
      <point x="173" y="101" type="curve" smooth="yes"/>
      <point x="194" y="73"/>
      <point x="224" y="55"/>
      <point x="266" y="55" type="curve" smooth="yes"/>
      <point x="308" y="55"/>
      <point x="338" y="73"/>
      <point x="359" y="101" type="curve" smooth="yes"/>
      <point x="379" y="128"/>
      <point x="391" y="165"/>
      <point x="398" y="204" type="curve" smooth="yes"/>
      <point x="404" y="243"/>
      <point x="406" y="282"/>
      <point x="406" y="321" type="curve" smooth="yes"/>
      <point x="406" y="364"/>
      <point x="404" y="402"/>
      <point x="398" y="441" type="curve" smooth="yes"/>
      <point x="391" y="479"/>
      <point x="379" y="517"/>
      <point x="359" y="545" type="curve" smooth="yes"/>
      <point x="338" y="572"/>
      <point x="308" y="590"/>
      <point x="266" y="590" type="curve" smooth="yes"/>
    </contour>
    <contour>
      <point x="326" y="654"/>
      <point x="370" y="637"/>
      <point x="404" y="606" type="curve" smooth="yes"/>
      <point x="436" y="576"/>
      <point x="458" y="534"/>
      <point x="471" y="485" type="curve" smooth="yes"/>
      <point x="484" y="437"/>
      <point x="489" y="385"/>
      <point x="489" y="321" type="curve" smooth="yes"/>
      <point x="489" y="261"/>
      <point x="484" y="208"/>
      <point x="471" y="160" type="curve" smooth="yes"/>
      <point x="458" y="111"/>
      <point x="436" y="69"/>
      <point x="404" y="39" type="curve" smooth="yes"/>
      <point x="370" y="9"/>
      <point x="326" y="-10"/>
      <point x="266" y="-10" type="curve" smooth="yes"/>
      <point x="206" y="-10"/>
      <point x="161" y="9"/>
      <point x="128" y="39" type="curve" smooth="yes"/>
      <point x="95" y="69"/>
      <point x="73" y="111"/>
      <point x="61" y="160" type="curve" smooth="yes"/>
      <point x="47" y="208"/>
      <point x="42" y="261"/>
      <point x="42" y="321" type="curve" smooth="yes"/>
      <point x="42" y="385"/>
      <point x="47" y="437"/>
      <point x="61" y="485" type="curve" smooth="yes"/>
      <point x="73" y="534"/>
      <point x="95" y="576"/>
      <point x="128" y="606" type="curve" smooth="yes"/>
      <point x="161" y="637"/>
      <point x="206" y="654"/>
      <point x="266" y="654" type="curve" smooth="yes"/>
    </contour>
  </outline>
</glyph>
<glyph name="one" format="1">
  <advance width="366"/>
  <unicode hex="0031"/>
  <outline>
    <contour>
      <point x="82" y="497" type="line" smooth="yes"/>
      <point x="77" y="494"/>
      <point x="71" y="492"/>
      <point x="66" y="492" type="curve" smooth="yes"/>
      <point x="49" y="492"/>
      <point x="35" y="506"/>
      <point x="35" y="522" type="curve" smooth="yes"/>
      <point x="35" y="531"/>
      <point x="39" y="539"/>
      <point x="49" y="546" type="curve"/>
      <point x="202" y="642" type="line" smooth="yes"/>
      <point x="209" y="647"/>
      <point x="217" y="648"/>
      <point x="225" y="649" type="curve"/>
      <point x="244" y="649"/>
      <point x="263" y="637"/>
      <point x="263" y="610" type="curve" smooth="yes"/>
      <point x="263" y="38" type="line" smooth="yes"/>
      <point x="263" y="25"/>
      <point x="258" y="16"/>
      <point x="251" y="10" type="curve" smooth="yes"/>
      <point x="243" y="3"/>
      <point x="233" y="0"/>
      <point x="222" y="0" type="curve" smooth="yes"/>
      <point x="213" y="0"/>
      <point x="203" y="3"/>
      <point x="195" y="10" type="curve" smooth="yes"/>
      <point x="188" y="16"/>
      <point x="183" y="25"/>
      <point x="183" y="38" type="curve" smooth="yes"/>
      <point x="183" y="562" type="line"/>
    </contour>
  </outline>
</glyph>
<glyph name="two" format="1">
  <advance width="532"/>
  <unicode hex="0032"/>
  <outline>
	<contour>
	  <point x="245" y="588"/>
	  <point x="222" y="583"/>
	  <point x="202" y="576" type="curve" smooth="yes"/>
	  <point x="182" y="568"/>
	  <point x="162" y="559"/>
	  <point x="147" y="550" type="curve" smooth="yes"/>
	  <point x="138" y="545"/>
	  <point x="130" y="543"/>
	  <point x="122" y="543" type="curve" smooth="yes"/>
	  <point x="105" y="543"/>
	  <point x="92" y="555"/>
	  <point x="92" y="571" type="curve" smooth="yes"/>
	  <point x="92" y="583"/>
	  <point x="104" y="597"/>
	  <point x="123" y="610" type="curve" smooth="yes"/>
	  <point x="142" y="622"/>
	  <point x="167" y="633"/>
	  <point x="194" y="642" type="curve" smooth="yes"/>
	  <point x="221" y="650"/>
	  <point x="250" y="654"/>
	  <point x="274" y="654" type="curve" smooth="yes"/>
	  <point x="325" y="654"/>
	  <point x="374" y="641"/>
	  <point x="409" y="616" type="curve" smooth="yes"/>
	  <point x="444" y="590"/>
	  <point x="466" y="551"/>
	  <point x="466" y="501" type="curve" smooth="yes"/>
	  <point x="466" y="454"/>
	  <point x="444" y="403"/>
	  <point x="410" y="352" type="curve" smooth="yes"/>
	  <point x="375" y="301"/>
	  <point x="330" y="249"/>
	  <point x="283" y="202" type="curve" smooth="yes"/>
	  <point x="259" y="179"/>
	  <point x="235" y="154"/>
	  <point x="209" y="129" type="curve" smooth="yes"/>
	  <point x="184" y="104"/>
	  <point x="162" y="83"/>
	  <point x="142" y="66" type="curve"/>
	  <point x="434" y="66" type="line" smooth="yes"/>
	  <point x="455" y="66"/>
	  <point x="465" y="49"/>
	  <point x="465" y="32" type="curve" smooth="yes"/>
	  <point x="465" y="16"/>
	  <point x="455" y="0"/>
	  <point x="434" y="0" type="curve" smooth="yes"/>
	  <point x="103" y="0" type="line" smooth="yes"/>
	  <point x="65" y="0"/>
	  <point x="48" y="18"/>
	  <point x="48" y="41" type="curve" smooth="yes"/>
	  <point x="48" y="59"/>
	  <point x="59" y="80"/>
	  <point x="79" y="98" type="curve" smooth="yes"/>
	  <point x="94" y="112"/>
	  <point x="113" y="131"/>
	  <point x="136" y="155" type="curve" smooth="yes"/>
	  <point x="158" y="179"/>
	  <point x="181" y="202"/>
	  <point x="203" y="224" type="curve" smooth="yes"/>
	  <point x="247" y="269"/>
	  <point x="292" y="319"/>
	  <point x="327" y="367" type="curve" smooth="yes"/>
	  <point x="361" y="414"/>
	  <point x="384" y="460"/>
	  <point x="384" y="495" type="curve" smooth="yes"/>
	  <point x="384" y="526"/>
	  <point x="369" y="548"/>
	  <point x="348" y="564" type="curve" smooth="yes"/>
	  <point x="326" y="580"/>
	  <point x="297" y="588"/>
	  <point x="268" y="588" type="curve" smooth="yes"/>
	</contour>
  </outline>
</glyph>
<glyph name="three" format="1">
  <advance width="532"/>
  <unicode hex="0033"/>
  <outline>
	<contour>
	  <point x="240" y="362" type="line" smooth="yes"/>
	  <point x="277" y="363"/>
	  <point x="313" y="372"/>
	  <point x="340" y="390" type="curve" smooth="yes"/>
	  <point x="367" y="409"/>
	  <point x="384" y="436"/>
	  <point x="384" y="476" type="curve" smooth="yes"/>
	  <point x="384" y="511"/>
	  <point x="369" y="539"/>
	  <point x="346" y="558" type="curve" smooth="yes"/>
	  <point x="322" y="576"/>
	  <point x="290" y="586"/>
	  <point x="256" y="586" type="curve" smooth="yes"/>
	  <point x="224" y="586"/>
	  <point x="192" y="578"/>
	  <point x="165" y="571" type="curve" smooth="yes"/>
	  <point x="152" y="567"/>
	  <point x="140" y="564"/>
	  <point x="131" y="561" type="curve" smooth="yes"/>
	  <point x="121" y="557"/>
	  <point x="114" y="556"/>
	  <point x="111" y="556" type="curve" smooth="yes"/>
	  <point x="91" y="556"/>
	  <point x="77" y="572"/>
	  <point x="77" y="590" type="curve" smooth="yes"/>
	  <point x="77" y="602"/>
	  <point x="84" y="613"/>
	  <point x="99" y="620" type="curve" smooth="yes"/>
	  <point x="144" y="641"/>
	  <point x="194" y="654"/>
	  <point x="252" y="654" type="curve" smooth="yes"/>
	  <point x="310" y="654"/>
	  <point x="363" y="640"/>
	  <point x="403" y="611" type="curve" smooth="yes"/>
	  <point x="442" y="582"/>
	  <point x="467" y="538"/>
	  <point x="467" y="477" type="curve" smooth="yes"/>
	  <point x="467" y="439"/>
	  <point x="453" y="408"/>
	  <point x="430" y="383" type="curve" smooth="yes"/>
	  <point x="408" y="359"/>
	  <point x="376" y="342"/>
	  <point x="342" y="334" type="curve"/>
	  <point x="342" y="333" type="line"/>
	  <point x="382" y="324"/>
	  <point x="416" y="305"/>
	  <point x="440" y="277" type="curve" smooth="yes"/>
	  <point x="464" y="248"/>
	  <point x="478" y="212"/>
	  <point x="478" y="168" type="curve" smooth="yes"/>
	  <point x="478" y="105"/>
	  <point x="451" y="61"/>
	  <point x="411" y="32" type="curve" smooth="yes"/>
	  <point x="371" y="3"/>
	  <point x="318" y="-10"/>
	  <point x="262" y="-10" type="curve" smooth="yes"/>
	  <point x="242" y="-10"/>
	  <point x="216" y="-7"/>
	  <point x="190" y="-2" type="curve" smooth="yes"/>
	  <point x="163" y="4"/>
	  <point x="137" y="12"/>
	  <point x="117" y="22" type="curve" smooth="yes"/>
	  <point x="98" y="32"/>
	  <point x="85" y="44"/>
	  <point x="85" y="58" type="curve" smooth="yes"/>
	  <point x="85" y="74"/>
	  <point x="98" y="90"/>
	  <point x="117" y="90" type="curve" smooth="yes"/>
	  <point x="121" y="90"/>
	  <point x="125" y="90"/>
	  <point x="129" y="88" type="curve"/>
	  <point x="143" y="81"/>
	  <point x="163" y="74"/>
	  <point x="187" y="68" type="curve" smooth="yes"/>
	  <point x="210" y="62"/>
	  <point x="235" y="58"/>
	  <point x="262" y="58" type="curve" smooth="yes"/>
	  <point x="302" y="58"/>
	  <point x="336" y="67"/>
	  <point x="359" y="86" type="curve" smooth="yes"/>
	  <point x="381" y="105"/>
	  <point x="394" y="131"/>
	  <point x="394" y="167" type="curve" smooth="yes"/>
	  <point x="394" y="210"/>
	  <point x="377" y="243"/>
	  <point x="350" y="265" type="curve" smooth="yes"/>
	  <point x="323" y="287"/>
	  <point x="285" y="299"/>
	  <point x="247" y="299" type="curve" smooth="yes"/>
	  <point x="212" y="299" type="line" smooth="yes"/>
	  <point x="192" y="299"/>
	  <point x="182" y="314"/>
	  <point x="182" y="330" type="curve" smooth="yes"/>
	  <point x="182" y="346"/>
	  <point x="192" y="361"/>
	  <point x="212" y="362" type="curve" smooth="yes"/>
	</contour>
  </outline>
</glyph>
<glyph name="four" format="1">
  <advance width="532"/>
  <unicode hex="0034"/>
  <outline>
    <contour>
      <point x="281" y="612" type="line" smooth="yes"/>
      <point x="297" y="638"/>
      <point x="320" y="649"/>
      <point x="346" y="649" type="curve" smooth="yes"/>
      <point x="360" y="649"/>
      <point x="374" y="645"/>
      <point x="385" y="636" type="curve" smooth="yes"/>
      <point x="396" y="627"/>
      <point x="402" y="612"/>
      <point x="402" y="593" type="curve" smooth="yes"/>
      <point x="402" y="204" type="line"/>
      <point x="472" y="204" type="line" smooth="yes"/>
      <point x="492" y="204"/>
      <point x="502" y="189"/>
      <point x="502" y="174" type="curve" smooth="yes"/>
      <point x="502" y="159"/>
      <point x="492" y="144"/>
      <point x="472" y="144" type="curve" smooth="yes"/>
      <point x="402" y="144" type="line"/>
      <point x="402" y="36" type="line" smooth="yes"/>
      <point x="402" y="24"/>
      <point x="397" y="15"/>
      <point x="389" y="9" type="curve" smooth="yes"/>
      <point x="382" y="3"/>
      <point x="373" y="0"/>
      <point x="363" y="0" type="curve" smooth="yes"/>
      <point x="354" y="0"/>
      <point x="344" y="3"/>
      <point x="336" y="9" type="curve" smooth="yes"/>
      <point x="329" y="15"/>
      <point x="324" y="24"/>
      <point x="324" y="36" type="curve" smooth="yes"/>
      <point x="324" y="144" type="line"/>
      <point x="61" y="144" type="line" smooth="yes"/>
      <point x="34" y="144"/>
      <point x="17" y="164"/>
      <point x="17" y="187" type="curve" smooth="yes"/>
      <point x="17" y="196"/>
      <point x="19" y="207"/>
      <point x="26" y="216" type="curve"/>
    </contour>
    <contour>
      <point x="87" y="204" type="line"/>
      <point x="324" y="204" type="line"/>
      <point x="324" y="575" type="line"/>
    </contour>
  </outline>
</glyph>
<glyph name="five" format="1">
  <advance width="532"/>
  <unicode hex="0035"/>
  <outline>
	<contour>
	  <point x="83" y="613" type="line" smooth="yes"/>
	  <point x="83" y="635"/>
	  <point x="96" y="649"/>
	  <point x="121" y="649" type="curve" smooth="yes"/>
	  <point x="425" y="649" type="line" smooth="yes"/>
	  <point x="446" y="649"/>
	  <point x="456" y="633"/>
	  <point x="456" y="617" type="curve" smooth="yes"/>
	  <point x="456" y="601"/>
	  <point x="446" y="585"/>
	  <point x="425" y="585" type="curve" smooth="yes"/>
	  <point x="147" y="585" type="line"/>
	  <point x="147" y="356" type="line"/>
	  <point x="184" y="397"/>
	  <point x="233" y="420"/>
	  <point x="291" y="420" type="curve" smooth="yes"/>
	  <point x="351" y="420"/>
	  <point x="400" y="397"/>
	  <point x="435" y="359" type="curve" smooth="yes"/>
	  <point x="469" y="321"/>
	  <point x="488" y="269"/>
	  <point x="488" y="208" type="curve" smooth="yes"/>
	  <point x="488" y="144"/>
	  <point x="466" y="90"/>
	  <point x="428" y="52" type="curve" smooth="yes"/>
	  <point x="390" y="13"/>
	  <point x="336" y="-10"/>
	  <point x="271" y="-10" type="curve" smooth="yes"/>
	  <point x="224" y="-10"/>
	  <point x="181" y="-1"/>
	  <point x="146" y="18" type="curve" smooth="yes"/>
	  <point x="111" y="36"/>
	  <point x="84" y="65"/>
	  <point x="69" y="105" type="curve" smooth="yes"/>
	  <point x="66" y="113"/>
	  <point x="64" y="119"/>
	  <point x="64" y="126" type="curve" smooth="yes"/>
	  <point x="64" y="145"/>
	  <point x="78" y="157"/>
	  <point x="93" y="157" type="curve" smooth="yes"/>
	  <point x="104" y="157"/>
	  <point x="116" y="150"/>
	  <point x="124" y="135" type="curve"/>
	  <point x="135" y="108"/>
	  <point x="154" y="87"/>
	  <point x="178" y="74" type="curve" smooth="yes"/>
	  <point x="202" y="61"/>
	  <point x="232" y="54"/>
	  <point x="263" y="54" type="curve" smooth="yes"/>
	  <point x="311" y="54"/>
	  <point x="346" y="71"/>
	  <point x="370" y="99" type="curve" smooth="yes"/>
	  <point x="393" y="127"/>
	  <point x="404" y="166"/>
	  <point x="404" y="211" type="curve" smooth="yes"/>
	  <point x="404" y="255"/>
	  <point x="393" y="290"/>
	  <point x="371" y="316" type="curve" smooth="yes"/>
	  <point x="349" y="342"/>
	  <point x="318" y="358"/>
	  <point x="278" y="358" type="curve" smooth="yes"/>
	  <point x="245" y="358"/>
	  <point x="218" y="349"/>
	  <point x="198" y="336" type="curve" smooth="yes"/>
	  <point x="178" y="324"/>
	  <point x="164" y="308"/>
	  <point x="155" y="293" type="curve"/>
	  <point x="146" y="276"/>
	  <point x="130" y="268"/>
	  <point x="115" y="268" type="curve" smooth="yes"/>
	  <point x="98" y="268"/>
	  <point x="83" y="279"/>
	  <point x="83" y="303" type="curve" smooth="yes"/>
	</contour>
  </outline>
</glyph>
<glyph name="six" format="1">
  <advance width="532"/>
  <unicode hex="0036"/>
  <outline>
    <contour>
      <point x="452" y="617"/>
      <point x="456" y="607"/>
      <point x="456" y="597" type="curve" smooth="yes"/>
      <point x="456" y="589"/>
      <point x="453" y="580"/>
      <point x="448" y="573" type="curve" smooth="yes"/>
      <point x="442" y="566"/>
      <point x="435" y="562"/>
      <point x="426" y="562" type="curve" smooth="yes"/>
      <point x="424" y="562"/>
      <point x="421" y="562"/>
      <point x="419" y="563" type="curve"/>
      <point x="378" y="579"/>
      <point x="339" y="589"/>
      <point x="307" y="589" type="curve" smooth="yes"/>
      <point x="253" y="589"/>
      <point x="215" y="572"/>
      <point x="187" y="546" type="curve" smooth="yes"/>
      <point x="160" y="520"/>
      <point x="144" y="484"/>
      <point x="135" y="445" type="curve" smooth="yes"/>
      <point x="126" y="406"/>
      <point x="123" y="364"/>
      <point x="123" y="325" type="curve"/>
      <point x="156" y="390"/>
      <point x="217" y="421"/>
      <point x="291" y="421" type="curve" smooth="yes"/>
      <point x="354" y="421"/>
      <point x="404" y="400"/>
      <point x="439" y="364" type="curve" smooth="yes"/>
      <point x="473" y="327"/>
      <point x="492" y="277"/>
      <point x="492" y="211" type="curve" smooth="yes"/>
      <point x="492" y="141"/>
      <point x="472" y="90"/>
      <point x="435" y="51" type="curve" smooth="yes"/>
      <point x="399" y="13"/>
      <point x="345" y="-10"/>
      <point x="279" y="-10" type="curve" smooth="yes"/>
      <point x="218" y="-10"/>
      <point x="172" y="5"/>
      <point x="137" y="32" type="curve" smooth="yes"/>
      <point x="101" y="59"/>
      <point x="77" y="97"/>
      <point x="62" y="141" type="curve" smooth="yes"/>
      <point x="47" y="184"/>
      <point x="40" y="247"/>
      <point x="40" y="298" type="curve" smooth="yes"/>
      <point x="40" y="354"/>
      <point x="45" y="412"/>
      <point x="59" y="465" type="curve" smooth="yes"/>
      <point x="72" y="518"/>
      <point x="96" y="565"/>
      <point x="135" y="599" type="curve" smooth="yes"/>
      <point x="174" y="633"/>
      <point x="228" y="654"/>
      <point x="303" y="654" type="curve" smooth="yes"/>
      <point x="354" y="654"/>
      <point x="401" y="643"/>
      <point x="442" y="622" type="curve"/>
    </contour>
    <contour>
      <point x="316" y="54"/>
      <point x="351" y="69"/>
      <point x="374" y="95" type="curve" smooth="yes"/>
      <point x="398" y="121"/>
      <point x="410" y="155"/>
      <point x="410" y="207" type="curve" smooth="yes"/>
      <point x="410" y="253"/>
      <point x="401" y="290"/>
      <point x="380" y="318" type="curve" smooth="yes"/>
      <point x="359" y="345"/>
      <point x="328" y="364"/>
      <point x="282" y="364" type="curve" smooth="yes"/>
      <point x="234" y="364"/>
      <point x="197" y="347"/>
      <point x="172" y="319" type="curve" smooth="yes"/>
      <point x="147" y="291"/>
      <point x="134" y="254"/>
      <point x="134" y="203" type="curve" smooth="yes"/>
      <point x="134" y="156"/>
      <point x="149" y="122"/>
      <point x="173" y="96" type="curve" smooth="yes"/>
      <point x="198" y="71"/>
      <point x="232" y="54"/>
      <point x="272" y="54" type="curve" smooth="yes"/>
    </contour>
  </outline>
</glyph>
<glyph name="seven" format="1">
  <advance width="532"/>
  <unicode hex="0037"/>
  <outline>
	<contour>
	  <point x="233" y="22" type="line" smooth="yes"/>
	  <point x="226" y="6"/>
	  <point x="212" y="0"/>
	  <point x="197" y="0" type="curve" smooth="yes"/>
	  <point x="187" y="0"/>
	  <point x="176" y="4"/>
	  <point x="168" y="10" type="curve" smooth="yes"/>
	  <point x="160" y="17"/>
	  <point x="154" y="27"/>
	  <point x="154" y="38" type="curve" smooth="yes"/>
	  <point x="154" y="43"/>
	  <point x="155" y="48"/>
	  <point x="158" y="54" type="curve" smooth="yes"/>
	  <point x="389" y="583" type="line"/>
	  <point x="80" y="583" type="line" smooth="yes"/>
	  <point x="58" y="583"/>
	  <point x="47" y="599"/>
	  <point x="47" y="616" type="curve" smooth="yes"/>
	  <point x="47" y="632"/>
	  <point x="58" y="649"/>
	  <point x="80" y="649" type="curve" smooth="yes"/>
	  <point x="428" y="649" type="line" smooth="yes"/>
	  <point x="461" y="649"/>
	  <point x="475" y="631"/>
	  <point x="475" y="608" type="curve" smooth="yes"/>
	  <point x="475" y="597"/>
	  <point x="473" y="587"/>
	  <point x="468" y="576" type="curve"/>
	</contour>
  </outline>
</glyph>
<glyph name="eight" format="1">
  <advance width="532"/>
  <unicode hex="0038"/>
  <outline>
    <contour>
      <point x="178" y="335" type="line"/>
      <point x="141" y="339"/>
      <point x="109" y="362"/>
      <point x="86" y="388" type="curve" smooth="yes"/>
      <point x="62" y="413"/>
      <point x="49" y="447"/>
      <point x="49" y="484" type="curve" smooth="yes"/>
      <point x="49" y="542"/>
      <point x="75" y="584"/>
      <point x="116" y="612" type="curve" smooth="yes"/>
      <point x="156" y="641"/>
      <point x="210" y="654"/>
      <point x="266" y="654" type="curve" smooth="yes"/>
      <point x="322" y="654"/>
      <point x="377" y="641"/>
      <point x="417" y="612" type="curve" smooth="yes"/>
      <point x="457" y="584"/>
      <point x="483" y="542"/>
      <point x="483" y="484" type="curve" smooth="yes"/>
      <point x="483" y="446"/>
      <point x="470" y="414"/>
      <point x="447" y="390" type="curve" smooth="yes"/>
      <point x="424" y="366"/>
      <point x="391" y="343"/>
      <point x="354" y="335" type="curve"/>
      <point x="354" y="334" type="line"/>
      <point x="441" y="310"/>
      <point x="493" y="253"/>
      <point x="493" y="172" type="curve" smooth="yes"/>
      <point x="493" y="113"/>
      <point x="466" y="66"/>
      <point x="425" y="35" type="curve" smooth="yes"/>
      <point x="383" y="5"/>
      <point x="326" y="-10"/>
      <point x="266" y="-10" type="curve" smooth="yes"/>
      <point x="206" y="-10"/>
      <point x="149" y="5"/>
      <point x="107" y="35" type="curve" smooth="yes"/>
      <point x="66" y="66"/>
      <point x="39" y="113"/>
      <point x="39" y="172" type="curve" smooth="yes"/>
      <point x="39" y="211"/>
      <point x="52" y="245"/>
      <point x="76" y="272" type="curve" smooth="yes"/>
      <point x="101" y="298"/>
      <point x="136" y="325"/>
      <point x="178" y="334" type="curve"/>
    </contour>
    <contour>
      <point x="127" y="446"/>
      <point x="142" y="418"/>
      <point x="167" y="400" type="curve" smooth="yes"/>
      <point x="191" y="381"/>
      <point x="226" y="372"/>
      <point x="266" y="372" type="curve" smooth="yes"/>
      <point x="306" y="372"/>
      <point x="341" y="381"/>
      <point x="366" y="400" type="curve" smooth="yes"/>
      <point x="390" y="418"/>
      <point x="405" y="446"/>
      <point x="405" y="483" type="curve" smooth="yes"/>
      <point x="405" y="523"/>
      <point x="388" y="551"/>
      <point x="361" y="569" type="curve" smooth="yes"/>
      <point x="335" y="586"/>
      <point x="300" y="595"/>
      <point x="266" y="595" type="curve" smooth="yes"/>
      <point x="232" y="595"/>
      <point x="197" y="586"/>
      <point x="171" y="569" type="curve" smooth="yes"/>
      <point x="145" y="551"/>
      <point x="127" y="523"/>
      <point x="127" y="483" type="curve" smooth="yes"/>
    </contour>
    <contour>
      <point x="121" y="134"/>
      <point x="139" y="103"/>
      <point x="166" y="83" type="curve" smooth="yes"/>
      <point x="192" y="63"/>
      <point x="228" y="54"/>
      <point x="266" y="54" type="curve" smooth="yes"/>
      <point x="303" y="54"/>
      <point x="339" y="63"/>
      <point x="366" y="83" type="curve" smooth="yes"/>
      <point x="393" y="103"/>
      <point x="410" y="134"/>
      <point x="410" y="174" type="curve" smooth="yes"/>
      <point x="410" y="217"/>
      <point x="393" y="247"/>
      <point x="366" y="267" type="curve" smooth="yes"/>
      <point x="339" y="287"/>
      <point x="303" y="302"/>
      <point x="266" y="302" type="curve" smooth="yes"/>
      <point x="228" y="302"/>
      <point x="192" y="287"/>
      <point x="166" y="267" type="curve" smooth="yes"/>
      <point x="139" y="247"/>
      <point x="121" y="217"/>
      <point x="121" y="174" type="curve" smooth="yes"/>
    </contour>
  </outline>
</glyph>
<glyph name="nine" format="1">
  <advance width="532"/>
  <unicode hex="0039"/>
  <outline>
	<contour>
	  <point x="80" y="28"/>
	  <point x="76" y="37"/>
	  <point x="76" y="47" type="curve" smooth="yes"/>
	  <point x="76" y="56"/>
	  <point x="79" y="66"/>
	  <point x="84" y="73" type="curve" smooth="yes"/>
	  <point x="90" y="80"/>
	  <point x="97" y="84"/>
	  <point x="106" y="84" type="curve" smooth="yes"/>
	  <point x="108" y="84"/>
	  <point x="111" y="84"/>
	  <point x="113" y="83" type="curve"/>
	  <point x="157" y="66"/>
	  <point x="199" y="57"/>
	  <point x="233" y="57" type="curve" smooth="yes"/>
	  <point x="283" y="57"/>
	  <point x="320" y="74"/>
	  <point x="346" y="101" type="curve" smooth="yes"/>
	  <point x="372" y="129"/>
	  <point x="388" y="167"/>
	  <point x="397" y="209" type="curve" smooth="yes"/>
	  <point x="406" y="252"/>
	  <point x="409" y="286"/>
	  <point x="409" y="331" type="curve"/>
	  <point x="408" y="331" type="line" smooth="yes"/>
	  <point x="408" y="331"/>
	  <point x="407" y="331"/>
	  <point x="407" y="331" type="curve"/>
	  <point x="393" y="299"/>
	  <point x="369" y="275"/>
	  <point x="340" y="259" type="curve" smooth="yes"/>
	  <point x="312" y="243"/>
	  <point x="277" y="235"/>
	  <point x="241" y="235" type="curve" smooth="yes"/>
	  <point x="177" y="235"/>
	  <point x="127" y="256"/>
	  <point x="93" y="293" type="curve" smooth="yes"/>
	  <point x="59" y="329"/>
	  <point x="40" y="380"/>
	  <point x="40" y="440" type="curve" smooth="yes"/>
	  <point x="40" y="501"/>
	  <point x="61" y="555"/>
	  <point x="97" y="593" type="curve" smooth="yes"/>
	  <point x="134" y="631"/>
	  <point x="187" y="654"/>
	  <point x="253" y="654" type="curve" smooth="yes"/>
	  <point x="313" y="654"/>
	  <point x="361" y="639"/>
	  <point x="396" y="612" type="curve" smooth="yes"/>
	  <point x="432" y="585"/>
	  <point x="455" y="547"/>
	  <point x="470" y="504" type="curve" smooth="yes"/>
	  <point x="485" y="460"/>
	  <point x="492" y="410"/>
	  <point x="492" y="358" type="curve" smooth="yes"/>
	  <point x="492" y="299"/>
	  <point x="488" y="250"/>
	  <point x="474" y="193" type="curve" smooth="yes"/>
	  <point x="460" y="137"/>
	  <point x="437" y="86"/>
	  <point x="398" y="50" type="curve" smooth="yes"/>
	  <point x="359" y="13"/>
	  <point x="304" y="-10"/>
	  <point x="229" y="-10" type="curve" smooth="yes"/>
	  <point x="179" y="-10"/>
	  <point x="131" y="1"/>
	  <point x="90" y="23" type="curve"/>
	</contour>
	<contour>
	  <point x="215" y="591"/>
	  <point x="181" y="575"/>
	  <point x="158" y="550" type="curve" smooth="yes"/>
	  <point x="134" y="524"/>
	  <point x="122" y="487"/>
	  <point x="122" y="445" type="curve" smooth="yes"/>
	  <point x="122" y="404"/>
	  <point x="131" y="366"/>
	  <point x="152" y="339" type="curve" smooth="yes"/>
	  <point x="172" y="311"/>
	  <point x="204" y="293"/>
	  <point x="250" y="293" type="curve" smooth="yes"/>
	  <point x="298" y="293"/>
	  <point x="334" y="309"/>
	  <point x="360" y="337" type="curve" smooth="yes"/>
	  <point x="385" y="365"/>
	  <point x="398" y="404"/>
	  <point x="398" y="448" type="curve" smooth="yes"/>
	  <point x="398" y="486"/>
	  <point x="383" y="522"/>
	  <point x="359" y="548" type="curve" smooth="yes"/>
	  <point x="335" y="574"/>
	  <point x="300" y="591"/>
	  <point x="260" y="591" type="curve" smooth="yes"/>
	</contour>
  </outline>
</glyph>
<glyph name="colon" format="1">
  <advance width="266"/>
  <unicode hex="003A"/>
  <outline>
    <contour>
      <point x="84" y="422"/>
      <point x="88" y="433"/>
      <point x="96" y="441" type="curve" smooth="yes"/>
      <point x="105" y="450"/>
      <point x="117" y="455"/>
      <point x="133" y="455" type="curve" smooth="yes"/>
      <point x="148" y="455"/>
      <point x="160" y="450"/>
      <point x="169" y="441" type="curve" smooth="yes"/>
      <point x="177" y="433"/>
      <point x="182" y="422"/>
      <point x="182" y="410" type="curve" smooth="yes"/>
      <point x="182" y="399"/>
      <point x="177" y="388"/>
      <point x="169" y="380" type="curve" smooth="yes"/>
      <point x="160" y="372"/>
      <point x="148" y="366"/>
      <point x="133" y="366" type="curve" smooth="yes"/>
      <point x="117" y="366"/>
      <point x="105" y="372"/>
      <point x="96" y="380" type="curve" smooth="yes"/>
      <point x="88" y="388"/>
      <point x="84" y="399"/>
      <point x="84" y="410" type="curve" smooth="yes"/>
    </contour>
    <contour>
      <point x="84" y="55"/>
      <point x="88" y="66"/>
      <point x="96" y="75" type="curve" smooth="yes"/>
      <point x="105" y="83"/>
      <point x="117" y="88"/>
      <point x="133" y="88" type="curve" smooth="yes"/>
      <point x="148" y="88"/>
      <point x="160" y="83"/>
      <point x="169" y="75" type="curve" smooth="yes"/>
      <point x="177" y="66"/>
      <point x="182" y="55"/>
      <point x="182" y="44" type="curve" smooth="yes"/>
      <point x="182" y="33"/>
      <point x="177" y="22"/>
      <point x="169" y="14" type="curve" smooth="yes"/>
      <point x="160" y="5"/>
      <point x="148" y="-0"/>
      <point x="133" y="-0" type="curve" smooth="yes"/>
      <point x="117" y="-0"/>
      <point x="105" y="5"/>
      <point x="96" y="14" type="curve" smooth="yes"/>
      <point x="88" y="22"/>
      <point x="84" y="33"/>
      <point x="84" y="44" type="curve" smooth="yes"/>
    </contour>
  </outline>
</glyph>
<glyph name="semicolon" format="1">
  <advance width="266"/>
  <unicode hex="003B"/>
  <outline>
    <contour>
      <point x="96" y="431"/>
      <point x="100" y="443"/>
      <point x="108" y="451" type="curve" smooth="yes"/>
      <point x="116" y="459"/>
      <point x="128" y="464"/>
      <point x="144" y="464" type="curve" smooth="yes"/>
      <point x="160" y="464"/>
      <point x="172" y="459"/>
      <point x="181" y="451" type="curve" smooth="yes"/>
      <point x="189" y="443"/>
      <point x="193" y="431"/>
      <point x="193" y="420" type="curve" smooth="yes"/>
      <point x="193" y="409"/>
      <point x="189" y="398"/>
      <point x="181" y="389" type="curve" smooth="yes"/>
      <point x="172" y="381"/>
      <point x="160" y="375"/>
      <point x="144" y="375" type="curve" smooth="yes"/>
      <point x="128" y="375"/>
      <point x="116" y="381"/>
      <point x="108" y="389" type="curve" smooth="yes"/>
      <point x="100" y="398"/>
      <point x="96" y="409"/>
      <point x="96" y="420" type="curve" smooth="yes"/>
    </contour>
    <contour>
      <point x="129" y="-109" type="line"/>
      <point x="66" y="-109" type="line"/>
      <point x="109" y="84" type="line"/>
      <point x="198" y="84" type="line"/>
    </contour>
  </outline>
</glyph>
<glyph name="less" format="1">
  <advance width="610"/>
  <unicode hex="003C"/>
  <outline>
    <contour>
      <point x="90" y="191" type="line" smooth="yes"/>
      <point x="71" y="199"/>
      <point x="63" y="212"/>
      <point x="63" y="225" type="curve" smooth="yes"/>
      <point x="63" y="238"/>
      <point x="71" y="253"/>
      <point x="91" y="261" type="curve" smooth="yes"/>
      <point x="495" y="433" type="line"/>
      <point x="498" y="435"/>
      <point x="502" y="435"/>
      <point x="506" y="435" type="curve" smooth="yes"/>
      <point x="524" y="435"/>
      <point x="537" y="420"/>
      <point x="537" y="404" type="curve" smooth="yes"/>
      <point x="537" y="394"/>
      <point x="531" y="384"/>
      <point x="518" y="379" type="curve" smooth="yes"/>
      <point x="154" y="225" type="line"/>
      <point x="520" y="63" type="line" smooth="yes"/>
      <point x="532" y="57"/>
      <point x="537" y="48"/>
      <point x="537" y="37" type="curve" smooth="yes"/>
      <point x="537" y="22"/>
      <point x="525" y="7"/>
      <point x="508" y="7" type="curve" smooth="yes"/>
      <point x="504" y="7"/>
      <point x="500" y="8"/>
      <point x="495" y="10" type="curve"/>
    </contour>
  </outline>
</glyph>
<glyph name="equal" format="1">
  <advance width="610"/>
  <unicode hex="003D"/>
  <outline>
	<contour>
	  <point x="103" y="106" type="line" smooth="yes"/>
	  <point x="86" y="106"/>
	  <point x="71" y="120"/>
	  <point x="71" y="136" type="curve" smooth="yes"/>
	  <point x="71" y="154"/>
	  <point x="86" y="167"/>
	  <point x="103" y="167" type="curve" smooth="yes"/>
	  <point x="506" y="167" type="line" smooth="yes"/>
	  <point x="524" y="167"/>
	  <point x="538" y="154"/>
	  <point x="538" y="136" type="curve" smooth="yes"/>
	  <point x="538" y="120"/>
	  <point x="524" y="106"/>
	  <point x="506" y="106" type="curve" smooth="yes"/>
	</contour>
	<contour>
	  <point x="103" y="284" type="line" smooth="yes"/>
	  <point x="86" y="284"/>
	  <point x="71" y="298"/>
	  <point x="71" y="315" type="curve" smooth="yes"/>
	  <point x="71" y="333"/>
	  <point x="86" y="346"/>
	  <point x="103" y="346" type="curve" smooth="yes"/>
	  <point x="506" y="346" type="line" smooth="yes"/>
	  <point x="524" y="346"/>
	  <point x="538" y="333"/>
	  <point x="538" y="315" type="curve" smooth="yes"/>
	  <point x="538" y="298"/>
	  <point x="524" y="284"/>
	  <point x="506" y="284" type="curve" smooth="yes"/>
	</contour>
  </outline>
</glyph>
<glyph name="greater" format="1">
  <advance width="610"/>
  <unicode hex="003E"/>
  <outline>
    <contour>
      <point x="520" y="260" type="line" smooth="yes"/>
      <point x="538" y="251"/>
      <point x="546" y="238"/>
      <point x="546" y="225" type="curve" smooth="yes"/>
      <point x="546" y="211"/>
      <point x="538" y="198"/>
      <point x="518" y="189" type="curve" smooth="yes"/>
      <point x="115" y="17" type="line"/>
      <point x="110" y="16"/>
      <point x="106" y="15"/>
      <point x="103" y="15" type="curve" smooth="yes"/>
      <point x="85" y="15"/>
      <point x="72" y="30"/>
      <point x="72" y="46" type="curve" smooth="yes"/>
      <point x="72" y="56"/>
      <point x="78" y="66"/>
      <point x="91" y="71" type="curve" smooth="yes"/>
      <point x="455" y="225" type="line"/>
      <point x="90" y="388" type="line" smooth="yes"/>
      <point x="77" y="393"/>
      <point x="72" y="403"/>
      <point x="72" y="413" type="curve" smooth="yes"/>
      <point x="72" y="428"/>
      <point x="84" y="443"/>
      <point x="101" y="443" type="curve" smooth="yes"/>
      <point x="105" y="443"/>
      <point x="109" y="442"/>
      <point x="114" y="440" type="curve"/>
    </contour>
  </outline>
</glyph>
<glyph name="question" format="1">
  <advance width="470"/>
  <unicode hex="003F"/>
  <outline>
	<contour>
	  <point x="98" y="606"/>
	  <point x="96" y="606"/>
	  <point x="94" y="606" type="curve" smooth="yes"/>
	  <point x="76" y="606"/>
	  <point x="65" y="622"/>
	  <point x="65" y="639" type="curve" smooth="yes"/>
	  <point x="65" y="653"/>
	  <point x="73" y="668"/>
	  <point x="93" y="673" type="curve" smooth="yes"/>
	  <point x="135" y="684"/>
	  <point x="180" y="687"/>
	  <point x="222" y="687" type="curve" smooth="yes"/>
	  <point x="272" y="687"/>
	  <point x="317" y="674"/>
	  <point x="350" y="646" type="curve" smooth="yes"/>
	  <point x="384" y="618"/>
	  <point x="404" y="576"/>
	  <point x="404" y="519" type="curve" smooth="yes"/>
	  <point x="404" y="480"/>
	  <point x="394" y="450"/>
	  <point x="377" y="424" type="curve" smooth="yes"/>
	  <point x="359" y="398"/>
	  <point x="335" y="374"/>
	  <point x="310" y="350" type="curve"/>
	  <point x="295" y="335"/>
	  <point x="283" y="322"/>
	  <point x="272" y="313" type="curve" smooth="yes"/>
	  <point x="251" y="293"/>
	  <point x="238" y="279"/>
	  <point x="231" y="265" type="curve" smooth="yes"/>
	  <point x="228" y="258"/>
	  <point x="226" y="249"/>
	  <point x="226" y="238" type="curve"/>
	  <point x="226" y="232" type="line" smooth="yes"/>
	  <point x="226" y="228"/>
	  <point x="226" y="223"/>
	  <point x="226" y="217" type="curve"/>
	  <point x="226" y="212"/>
	  <point x="226" y="203"/>
	  <point x="226" y="194" type="curve" smooth="yes"/>
	  <point x="226" y="172"/>
	  <point x="209" y="162"/>
	  <point x="191" y="162" type="curve" smooth="yes"/>
	  <point x="170" y="162"/>
	  <point x="161" y="171"/>
	  <point x="157" y="187" type="curve" smooth="yes"/>
	  <point x="156" y="196"/>
	  <point x="155" y="206"/>
	  <point x="155" y="218" type="curve" smooth="yes"/>
	  <point x="156" y="231"/>
	  <point x="156" y="244"/>
	  <point x="156" y="260" type="curve"/>
	  <point x="157" y="290"/>
	  <point x="176" y="316"/>
	  <point x="201" y="341" type="curve" smooth="yes"/>
	  <point x="213" y="354"/>
	  <point x="227" y="366"/>
	  <point x="241" y="379" type="curve" smooth="yes"/>
	  <point x="269" y="404"/>
	  <point x="295" y="431"/>
	  <point x="311" y="462" type="curve" smooth="yes"/>
	  <point x="319" y="477"/>
	  <point x="324" y="495"/>
	  <point x="324" y="513" type="curve" smooth="yes"/>
	  <point x="324" y="554"/>
	  <point x="308" y="580"/>
	  <point x="287" y="597" type="curve" smooth="yes"/>
	  <point x="264" y="612"/>
	  <point x="234" y="618"/>
	  <point x="204" y="618" type="curve" smooth="yes"/>
	  <point x="195" y="618"/>
	  <point x="179" y="617"/>
	  <point x="160" y="616" type="curve" smooth="yes"/>
	  <point x="141" y="614"/>
	  <point x="119" y="611"/>
	  <point x="101" y="607" type="curve"/>
	</contour>
	<contour>
	  <point x="144" y="51"/>
	  <point x="149" y="62"/>
	  <point x="157" y="71" type="curve" smooth="yes"/>
	  <point x="165" y="79"/>
	  <point x="177" y="84"/>
	  <point x="193" y="84" type="curve" smooth="yes"/>
	  <point x="209" y="84"/>
	  <point x="221" y="79"/>
	  <point x="229" y="71" type="curve" smooth="yes"/>
	  <point x="238" y="62"/>
	  <point x="242" y="51"/>
	  <point x="242" y="40" type="curve" smooth="yes"/>
	  <point x="242" y="29"/>
	  <point x="238" y="17"/>
	  <point x="229" y="9" type="curve" smooth="yes"/>
	  <point x="221" y="1"/>
	  <point x="209" y="-5"/>
	  <point x="193" y="-5" type="curve" smooth="yes"/>
	  <point x="177" y="-5"/>
	  <point x="165" y="1"/>
	  <point x="157" y="9" type="curve" smooth="yes"/>
	  <point x="149" y="17"/>
	  <point x="144" y="29"/>
	  <point x="144" y="40" type="curve" smooth="yes"/>
	</contour>
  </outline>
</glyph>
<glyph name="at" format="1">
  <advance width="745"/>
  <unicode hex="0040"/>
  <outline>
	<contour>
	  <point x="245" y="253"/>
	  <point x="251" y="231"/>
	  <point x="264" y="215" type="curve" smooth="yes"/>
	  <point x="276" y="199"/>
	  <point x="294" y="188"/>
	  <point x="316" y="188" type="curve" smooth="yes"/>
	  <point x="339" y="188"/>
	  <point x="364" y="195"/>
	  <point x="386" y="209" type="curve" smooth="yes"/>
	  <point x="408" y="223"/>
	  <point x="426" y="244"/>
	  <point x="435" y="271" type="curve" smooth="yes"/>
	  <point x="472" y="384" type="line" smooth="yes"/>
	  <point x="475" y="393"/>
	  <point x="476" y="401"/>
	  <point x="476" y="409" type="curve" smooth="yes"/>
	  <point x="476" y="431"/>
	  <point x="465" y="449"/>
	  <point x="450" y="462" type="curve" smooth="yes"/>
	  <point x="435" y="474"/>
	  <point x="415" y="481"/>
	  <point x="399" y="481" type="curve" smooth="yes"/>
	  <point x="368" y="481"/>
	  <point x="341" y="467"/>
	  <point x="318" y="446" type="curve" smooth="yes"/>
	  <point x="295" y="424"/>
	  <point x="277" y="395"/>
	  <point x="264" y="364" type="curve" smooth="yes"/>
	  <point x="252" y="334"/>
	  <point x="245" y="302"/>
	  <point x="245" y="275" type="curve" smooth="yes"/>
	</contour>
	<contour>
	  <point x="498" y="57"/>
	  <point x="502" y="58"/>
	  <point x="506" y="58" type="curve" smooth="yes"/>
	  <point x="522" y="58"/>
	  <point x="530" y="46"/>
	  <point x="530" y="34" type="curve" smooth="yes"/>
	  <point x="530" y="25"/>
	  <point x="525" y="15"/>
	  <point x="514" y="12" type="curve" smooth="yes"/>
	  <point x="464" y="-4"/>
	  <point x="415" y="-11"/>
	  <point x="367" y="-11" type="curve" smooth="yes"/>
	  <point x="270" y="-11"/>
	  <point x="185" y="21"/>
	  <point x="124" y="81" type="curve" smooth="yes"/>
	  <point x="63" y="141"/>
	  <point x="26" y="228"/>
	  <point x="26" y="337" type="curve" smooth="yes"/>
	  <point x="26" y="412"/>
	  <point x="48" y="475"/>
	  <point x="84" y="528" type="curve" smooth="yes"/>
	  <point x="120" y="580"/>
	  <point x="170" y="620"/>
	  <point x="227" y="647" type="curve" smooth="yes"/>
	  <point x="283" y="674"/>
	  <point x="345" y="688"/>
	  <point x="405" y="688" type="curve" smooth="yes"/>
	  <point x="483" y="688"/>
	  <point x="558" y="665"/>
	  <point x="613" y="617" type="curve" smooth="yes"/>
	  <point x="669" y="569"/>
	  <point x="705" y="496"/>
	  <point x="705" y="396" type="curve" smooth="yes"/>
	  <point x="705" y="347"/>
	  <point x="692" y="301"/>
	  <point x="671" y="262" type="curve" smooth="yes"/>
	  <point x="650" y="222"/>
	  <point x="621" y="188"/>
	  <point x="590" y="165" type="curve" smooth="yes"/>
	  <point x="558" y="142"/>
	  <point x="524" y="128"/>
	  <point x="491" y="128" type="curve" smooth="yes"/>
	  <point x="475" y="128"/>
	  <point x="459" y="132"/>
	  <point x="445" y="140" type="curve"/>
	  <point x="430" y="147"/>
	  <point x="419" y="159"/>
	  <point x="414" y="176" type="curve"/>
	  <point x="385" y="146"/>
	  <point x="341" y="129"/>
	  <point x="301" y="129" type="curve" smooth="yes"/>
	  <point x="260" y="129"/>
	  <point x="227" y="145"/>
	  <point x="205" y="171" type="curve" smooth="yes"/>
	  <point x="182" y="196"/>
	  <point x="170" y="232"/>
	  <point x="170" y="270" type="curve" smooth="yes"/>
	  <point x="170" y="312"/>
	  <point x="180" y="355"/>
	  <point x="199" y="396" type="curve" smooth="yes"/>
	  <point x="217" y="436"/>
	  <point x="244" y="473"/>
	  <point x="278" y="500" type="curve" smooth="yes"/>
	  <point x="311" y="526"/>
	  <point x="351" y="543"/>
	  <point x="396" y="543" type="curve" smooth="yes"/>
	  <point x="418" y="543"/>
	  <point x="439" y="538"/>
	  <point x="457" y="528" type="curve" smooth="yes"/>
	  <point x="475" y="518"/>
	  <point x="491" y="503"/>
	  <point x="501" y="483" type="curve"/>
	  <point x="505" y="496" type="line" smooth="yes"/>
	  <point x="510" y="512"/>
	  <point x="525" y="520"/>
	  <point x="539" y="520" type="curve" smooth="yes"/>
	  <point x="553" y="520"/>
	  <point x="567" y="511"/>
	  <point x="567" y="495" type="curve" smooth="yes"/>
	  <point x="567" y="491"/>
	  <point x="566" y="487"/>
	  <point x="565" y="484" type="curve"/>
	  <point x="490" y="254" type="line" smooth="yes"/>
	  <point x="484" y="234"/>
	  <point x="480" y="217"/>
	  <point x="480" y="204" type="curve" smooth="yes"/>
	  <point x="480" y="190"/>
	  <point x="485" y="181"/>
	  <point x="505" y="181" type="curve" smooth="yes"/>
	  <point x="541" y="181"/>
	  <point x="576" y="209"/>
	  <point x="602" y="251" type="curve" smooth="yes"/>
	  <point x="627" y="292"/>
	  <point x="645" y="345"/>
	  <point x="645" y="396" type="curve" smooth="yes"/>
	  <point x="645" y="478"/>
	  <point x="617" y="539"/>
	  <point x="573" y="578" type="curve" smooth="yes"/>
	  <point x="529" y="618"/>
	  <point x="469" y="637"/>
	  <point x="407" y="637" type="curve" smooth="yes"/>
	  <point x="356" y="637"/>
	  <point x="304" y="624"/>
	  <point x="257" y="601" type="curve" smooth="yes"/>
	  <point x="209" y="577"/>
	  <point x="167" y="542"/>
	  <point x="137" y="497" type="curve" smooth="yes"/>
	  <point x="106" y="451"/>
	  <point x="87" y="396"/>
	  <point x="87" y="331" type="curve" smooth="yes"/>
	  <point x="87" y="233"/>
	  <point x="121" y="160"/>
	  <point x="173" y="111" type="curve" smooth="yes"/>
	  <point x="226" y="62"/>
	  <point x="298" y="37"/>
	  <point x="375" y="37" type="curve" smooth="yes"/>
	  <point x="414" y="37"/>
	  <point x="454" y="44"/>
	  <point x="495" y="56" type="curve"/>
	</contour>
  </outline>
</glyph>
<glyph name="A" format="1">
  <advance width="633"/>
  <unicode hex="0041"/>
  <outline>
	<contour>
	  <point x="608" y="49" type="line"/>
	  <point x="610" y="44"/>
	  <point x="611" y="40"/>
	  <point x="611" y="36" type="curve" smooth="yes"/>
	  <point x="611" y="25"/>
	  <point x="606" y="16"/>
	  <point x="597" y="10" type="curve" smooth="yes"/>
	  <point x="589" y="4"/>
	  <point x="578" y="0"/>
	  <point x="568" y="0" type="curve" smooth="yes"/>
	  <point x="553" y="0"/>
	  <point x="539" y="7"/>
	  <point x="534" y="24" type="curve"/>
	  <point x="475" y="170" type="line"/>
	  <point x="154" y="170" type="line"/>
	  <point x="96" y="24" type="line"/>
	  <point x="90" y="6"/>
	  <point x="77" y="0"/>
	  <point x="63" y="0" type="curve" smooth="yes"/>
	  <point x="52" y="0"/>
	  <point x="42" y="4"/>
	  <point x="35" y="10" type="curve" smooth="yes"/>
	  <point x="27" y="16"/>
	  <point x="22" y="25"/>
	  <point x="22" y="35" type="curve" smooth="yes"/>
	  <point x="22" y="40"/>
	  <point x="23" y="44"/>
	  <point x="25" y="49" type="curve"/>
	  <point x="241" y="578" type="line" smooth="yes"/>
	  <point x="253" y="608"/>
	  <point x="264" y="627"/>
	  <point x="276" y="637" type="curve" smooth="yes"/>
	  <point x="288" y="647"/>
	  <point x="301" y="649"/>
	  <point x="316" y="649" type="curve" smooth="yes"/>
	  <point x="331" y="649"/>
	  <point x="344" y="647"/>
	  <point x="356" y="636" type="curve" smooth="yes"/>
	  <point x="368" y="626"/>
	  <point x="379" y="608"/>
	  <point x="391" y="578" type="curve" smooth="yes"/>
	</contour>
	<contour>
	  <point x="314" y="582" type="line"/>
	  <point x="177" y="231" type="line"/>
	  <point x="453" y="231" type="line"/>
	  <point x="315" y="582" type="line"/>
	</contour>
  </outline>
</glyph>
<glyph name="B" format="1">
  <advance width="630"/>
  <unicode hex="0042"/>
  <outline>
	<contour>
	  <point x="89" y="610" type="line" smooth="yes"/>
	  <point x="89" y="621"/>
	  <point x="93" y="631"/>
	  <point x="101" y="638" type="curve" smooth="yes"/>
	  <point x="108" y="645"/>
	  <point x="118" y="649"/>
	  <point x="129" y="649" type="curve" smooth="yes"/>
	  <point x="338" y="649" type="line" smooth="yes"/>
	  <point x="395" y="649"/>
	  <point x="445" y="633"/>
	  <point x="480" y="605" type="curve" smooth="yes"/>
	  <point x="515" y="576"/>
	  <point x="536" y="536"/>
	  <point x="536" y="486" type="curve" smooth="yes"/>
	  <point x="536" y="450"/>
	  <point x="522" y="418"/>
	  <point x="501" y="392" type="curve" smooth="yes"/>
	  <point x="478" y="366"/>
	  <point x="447" y="347"/>
	  <point x="411" y="339" type="curve"/>
	  <point x="411" y="338" type="line"/>
	  <point x="456" y="330"/>
	  <point x="495" y="312"/>
	  <point x="521" y="285" type="curve" smooth="yes"/>
	  <point x="548" y="257"/>
	  <point x="563" y="220"/>
	  <point x="563" y="174" type="curve" smooth="yes"/>
	  <point x="563" y="131"/>
	  <point x="550" y="88"/>
	  <point x="514" y="55" type="curve" smooth="yes"/>
	  <point x="479" y="22"/>
	  <point x="421" y="0"/>
	  <point x="346" y="0" type="curve" smooth="yes"/>
	  <point x="129" y="0" type="line" smooth="yes"/>
	  <point x="118" y="0"/>
	  <point x="108" y="4"/>
	  <point x="101" y="11" type="curve" smooth="yes"/>
	  <point x="93" y="18"/>
	  <point x="89" y="28"/>
	  <point x="89" y="39" type="curve" smooth="yes"/>
	</contour>
	<contour>
	  <point x="168" y="63" type="line"/>
	  <point x="305" y="63" type="line" smooth="yes"/>
	  <point x="360" y="63"/>
	  <point x="404" y="69"/>
	  <point x="434" y="88" type="curve" smooth="yes"/>
	  <point x="463" y="106"/>
	  <point x="479" y="137"/>
	  <point x="479" y="184" type="curve" smooth="yes"/>
	  <point x="479" y="236"/>
	  <point x="457" y="266"/>
	  <point x="420" y="284" type="curve" smooth="yes"/>
	  <point x="384" y="302"/>
	  <point x="333" y="306"/>
	  <point x="273" y="306" type="curve" smooth="yes"/>
	  <point x="168" y="306" type="line"/>
	</contour>
	<contour>
	  <point x="168" y="586" type="line"/>
	  <point x="168" y="364" type="line"/>
	  <point x="303" y="364" type="line" smooth="yes"/>
	  <point x="341" y="364"/>
	  <point x="379" y="372"/>
	  <point x="407" y="390" type="curve" smooth="yes"/>
	  <point x="435" y="408"/>
	  <point x="453" y="435"/>
	  <point x="453" y="477" type="curve" smooth="yes"/>
	  <point x="453" y="521"/>
	  <point x="434" y="549"/>
	  <point x="405" y="565" type="curve" smooth="yes"/>
	  <point x="377" y="581"/>
	  <point x="339" y="586"/>
	  <point x="301" y="586" type="curve" smooth="yes"/>
	</contour>
  </outline>
</glyph>
<glyph name="C" format="1">
  <advance width="630"/>
  <unicode hex="0043"/>
  <outline>
	<contour>
	  <point x="54" y="406"/>
	  <point x="77" y="493"/>
	  <point x="126" y="555" type="curve" smooth="yes"/>
	  <point x="175" y="616"/>
	  <point x="249" y="654"/>
	  <point x="349" y="654" type="curve" smooth="yes"/>
	  <point x="411" y="654"/>
	  <point x="465" y="640"/>
	  <point x="512" y="618" type="curve" smooth="yes"/>
	  <point x="526" y="612"/>
	  <point x="532" y="598"/>
	  <point x="532" y="586" type="curve" smooth="yes"/>
	  <point x="532" y="569"/>
	  <point x="521" y="553"/>
	  <point x="504" y="553" type="curve" smooth="yes"/>
	  <point x="500" y="553"/>
	  <point x="496" y="554"/>
	  <point x="493" y="555" type="curve"/>
	  <point x="445" y="573"/>
	  <point x="395" y="584"/>
	  <point x="355" y="584" type="curve" smooth="yes"/>
	  <point x="300" y="584"/>
	  <point x="259" y="568"/>
	  <point x="227" y="543" type="curve" smooth="yes"/>
	  <point x="195" y="518"/>
	  <point x="173" y="483"/>
	  <point x="159" y="443" type="curve" smooth="yes"/>
	  <point x="145" y="403"/>
	  <point x="140" y="359"/>
	  <point x="140" y="321" type="curve" smooth="yes"/>
	  <point x="140" y="284"/>
	  <point x="145" y="240"/>
	  <point x="159" y="201" type="curve" smooth="yes"/>
	  <point x="173" y="161"/>
	  <point x="195" y="126"/>
	  <point x="227" y="101" type="curve" smooth="yes"/>
	  <point x="259" y="75"/>
	  <point x="300" y="60"/>
	  <point x="355" y="60" type="curve" smooth="yes"/>
	  <point x="375" y="60"/>
	  <point x="401" y="63"/>
	  <point x="427" y="70" type="curve" smooth="yes"/>
	  <point x="453" y="77"/>
	  <point x="480" y="87"/>
	  <point x="505" y="101" type="curve" smooth="yes"/>
	  <point x="510" y="105"/>
	  <point x="516" y="106"/>
	  <point x="521" y="106" type="curve" smooth="yes"/>
	  <point x="537" y="106"/>
	  <point x="548" y="92"/>
	  <point x="548" y="76" type="curve" smooth="yes"/>
	  <point x="548" y="58"/>
	  <point x="535" y="43"/>
	  <point x="513" y="30" type="curve" smooth="yes"/>
	  <point x="492" y="18"/>
	  <point x="463" y="8"/>
	  <point x="434" y="1" type="curve" smooth="yes"/>
	  <point x="405" y="-6"/>
	  <point x="374" y="-10"/>
	  <point x="350" y="-10" type="curve" smooth="yes"/>
	  <point x="248" y="-10"/>
	  <point x="175" y="28"/>
	  <point x="126" y="89" type="curve" smooth="yes"/>
	  <point x="77" y="151"/>
	  <point x="54" y="237"/>
	  <point x="54" y="320" type="curve" smooth="yes"/>
	</contour>
  </outline>
</glyph>
<glyph name="D" format="1">
  <advance width="680"/>
  <unicode hex="0044"/>
  <outline>
	<contour>
	  <point x="121" y="0" type="line" smooth="yes"/>
	  <point x="111" y="0"/>
	  <point x="100" y="5"/>
	  <point x="93" y="12" type="curve" smooth="yes"/>
	  <point x="86" y="19"/>
	  <point x="81" y="28"/>
	  <point x="81" y="39" type="curve" smooth="yes"/>
	  <point x="81" y="610" type="line" smooth="yes"/>
	  <point x="81" y="621"/>
	  <point x="86" y="630"/>
	  <point x="93" y="637" type="curve" smooth="yes"/>
	  <point x="100" y="644"/>
	  <point x="111" y="649"/>
	  <point x="121" y="649" type="curve" smooth="yes"/>
	  <point x="276" y="649" type="line" smooth="yes"/>
	  <point x="389" y="649"/>
	  <point x="476" y="621"/>
	  <point x="535" y="566" type="curve" smooth="yes"/>
	  <point x="593" y="511"/>
	  <point x="624" y="429"/>
	  <point x="624" y="323" type="curve" smooth="yes"/>
	  <point x="624" y="217"/>
	  <point x="592" y="137"/>
	  <point x="533" y="82" type="curve" smooth="yes"/>
	  <point x="474" y="28"/>
	  <point x="388" y="0"/>
	  <point x="278" y="0" type="curve" smooth="yes"/>
	</contour>
	<contour>
	  <point x="162" y="64" type="line"/>
	  <point x="287" y="64" type="line" smooth="yes"/>
	  <point x="376" y="64"/>
	  <point x="439" y="89"/>
	  <point x="479" y="134" type="curve" smooth="yes"/>
	  <point x="519" y="179"/>
	  <point x="537" y="244"/>
	  <point x="537" y="324" type="curve" smooth="yes"/>
	  <point x="537" y="414"/>
	  <point x="512" y="480"/>
	  <point x="465" y="522" type="curve" smooth="yes"/>
	  <point x="419" y="565"/>
	  <point x="350" y="585"/>
	  <point x="265" y="585" type="curve" smooth="yes"/>
	  <point x="162" y="585" type="line"/>
	</contour>
  </outline>
</glyph>
<glyph name="E" format="1">
  <advance width="571"/>
  <unicode hex="0045"/>
  <outline>
	<contour>
	  <point x="131" y="0" type="line" smooth="yes"/>
	  <point x="120" y="0"/>
	  <point x="111" y="5"/>
	  <point x="103" y="12" type="curve" smooth="yes"/>
	  <point x="96" y="19"/>
	  <point x="91" y="29"/>
	  <point x="91" y="39" type="curve" smooth="yes"/>
	  <point x="91" y="610" type="line" smooth="yes"/>
	  <point x="91" y="619"/>
	  <point x="94" y="629"/>
	  <point x="101" y="637" type="curve" smooth="yes"/>
	  <point x="108" y="644"/>
	  <point x="117" y="649"/>
	  <point x="128" y="649" type="curve" smooth="yes"/>
	  <point x="468" y="649" type="line" smooth="yes"/>
	  <point x="490" y="649"/>
	  <point x="501" y="632"/>
	  <point x="501" y="616" type="curve" smooth="yes"/>
	  <point x="501" y="599"/>
	  <point x="490" y="583"/>
	  <point x="468" y="583" type="curve" smooth="yes"/>
	  <point x="170" y="583" type="line"/>
	  <point x="170" y="367" type="line"/>
	  <point x="453" y="367" type="line" smooth="yes"/>
	  <point x="476" y="367"/>
	  <point x="487" y="350"/>
	  <point x="487" y="334" type="curve" smooth="yes"/>
	  <point x="487" y="318"/>
	  <point x="475" y="301"/>
	  <point x="453" y="301" type="curve" smooth="yes"/>
	  <point x="170" y="301" type="line"/>
	  <point x="170" y="66" type="line"/>
	  <point x="480" y="66" type="line" smooth="yes"/>
	  <point x="503" y="66"/>
	  <point x="514" y="50"/>
	  <point x="514" y="33" type="curve" smooth="yes"/>
	  <point x="514" y="16"/>
	  <point x="503" y="0"/>
	  <point x="480" y="0" type="curve" smooth="yes"/>
	</contour>
  </outline>
</glyph>
<glyph name="F" format="1">
  <advance width="523"/>
  <unicode hex="0046"/>
  <outline>
    <contour>
      <point x="85" y="610" type="line" smooth="yes"/>
      <point x="85" y="633"/>
      <point x="102" y="649"/>
      <point x="123" y="649" type="curve" smooth="yes"/>
      <point x="444" y="649" type="line" smooth="yes"/>
      <point x="466" y="649"/>
      <point x="477" y="632"/>
      <point x="477" y="616" type="curve" smooth="yes"/>
      <point x="477" y="599"/>
      <point x="466" y="583"/>
      <point x="444" y="583" type="curve" smooth="yes"/>
      <point x="166" y="583" type="line"/>
      <point x="166" y="371" type="line"/>
      <point x="432" y="371" type="line" smooth="yes"/>
      <point x="454" y="371"/>
      <point x="465" y="354"/>
      <point x="465" y="338" type="curve" smooth="yes"/>
      <point x="465" y="321"/>
      <point x="454" y="305"/>
      <point x="432" y="305" type="curve" smooth="yes"/>
      <point x="166" y="305" type="line"/>
      <point x="166" y="38" type="line" smooth="yes"/>
      <point x="166" y="25"/>
      <point x="161" y="16"/>
      <point x="153" y="10" type="curve" smooth="yes"/>
      <point x="145" y="3"/>
      <point x="135" y="0"/>
      <point x="125" y="0" type="curve" smooth="yes"/>
      <point x="105" y="0"/>
      <point x="85" y="13"/>
      <point x="85" y="38" type="curve" smooth="yes"/>
    </contour>
  </outline>
</glyph>
<glyph name="G" format="1">
  <advance width="682"/>
  <unicode hex="0047"/>
  <outline>
	<contour>
	  <point x="567" y="334" type="line" smooth="yes"/>
	  <point x="589" y="334"/>
	  <point x="601" y="322"/>
	  <point x="601" y="300" type="curve" smooth="yes"/>
	  <point x="601" y="63" type="line" smooth="yes"/>
	  <point x="601" y="40"/>
	  <point x="588" y="27"/>
	  <point x="571" y="23" type="curve"/>
	  <point x="504" y="2"/>
	  <point x="431" y="-10"/>
	  <point x="371" y="-10" type="curve" smooth="yes"/>
	  <point x="278" y="-10"/>
	  <point x="198" y="16"/>
	  <point x="143" y="71" type="curve" smooth="yes"/>
	  <point x="88" y="127"/>
	  <point x="56" y="212"/>
	  <point x="56" y="324" type="curve" smooth="yes"/>
	  <point x="56" y="374"/>
	  <point x="67" y="435"/>
	  <point x="91" y="485" type="curve" smooth="yes"/>
	  <point x="114" y="536"/>
	  <point x="149" y="578"/>
	  <point x="197" y="607" type="curve" smooth="yes"/>
	  <point x="244" y="637"/>
	  <point x="304" y="654"/>
	  <point x="377" y="654" type="curve" smooth="yes"/>
	  <point x="443" y="654"/>
	  <point x="506" y="643"/>
	  <point x="558" y="621" type="curve" smooth="yes"/>
	  <point x="571" y="616"/>
	  <point x="576" y="605"/>
	  <point x="576" y="594" type="curve" smooth="yes"/>
	  <point x="576" y="577"/>
	  <point x="565" y="561"/>
	  <point x="547" y="561" type="curve" smooth="yes"/>
	  <point x="543" y="561" type="line" smooth="yes"/>
	  <point x="542" y="561"/>
	  <point x="541" y="561"/>
	  <point x="540" y="561" type="curve"/>
	  <point x="513" y="569"/>
	  <point x="485" y="575"/>
	  <point x="457" y="579" type="curve" smooth="yes"/>
	  <point x="429" y="583"/>
	  <point x="402" y="586"/>
	  <point x="380" y="586" type="curve" smooth="yes"/>
	  <point x="294" y="586"/>
	  <point x="235" y="555"/>
	  <point x="197" y="506" type="curve" smooth="yes"/>
	  <point x="158" y="456"/>
	  <point x="142" y="385"/>
	  <point x="142" y="323" type="curve" smooth="yes"/>
	  <point x="142" y="244"/>
	  <point x="158" y="175"/>
	  <point x="195" y="128" type="curve" smooth="yes"/>
	  <point x="233" y="81"/>
	  <point x="292" y="56"/>
	  <point x="379" y="56" type="curve" smooth="yes"/>
	  <point x="427" y="56"/>
	  <point x="477" y="64"/>
	  <point x="521" y="76" type="curve"/>
	  <point x="521" y="273" type="line"/>
	  <point x="392" y="273" type="line" smooth="yes"/>
	  <point x="372" y="273"/>
	  <point x="362" y="288"/>
	  <point x="362" y="304" type="curve" smooth="yes"/>
	  <point x="362" y="320"/>
	  <point x="372" y="334"/>
	  <point x="392" y="334" type="curve" smooth="yes"/>
	</contour>
  </outline>
</glyph>
<glyph name="H" format="1">
  <advance width="680"/>
  <unicode hex="0048"/>
  <outline>
	<contour>
	  <point x="511" y="611" type="line" smooth="yes"/>
	  <point x="511" y="623"/>
	  <point x="516" y="633"/>
	  <point x="524" y="639" type="curve" smooth="yes"/>
	  <point x="531" y="646"/>
	  <point x="541" y="649"/>
	  <point x="551" y="649" type="curve" smooth="yes"/>
	  <point x="572" y="649"/>
	  <point x="592" y="636"/>
	  <point x="592" y="611" type="curve" smooth="yes"/>
	  <point x="592" y="38" type="line" smooth="yes"/>
	  <point x="592" y="25"/>
	  <point x="587" y="16"/>
	  <point x="579" y="10" type="curve" smooth="yes"/>
	  <point x="571" y="3"/>
	  <point x="561" y="0"/>
	  <point x="551" y="0" type="curve" smooth="yes"/>
	  <point x="531" y="0"/>
	  <point x="511" y="13"/>
	  <point x="511" y="38" type="curve" smooth="yes"/>
	  <point x="511" y="303" type="line"/>
	  <point x="169" y="303" type="line"/>
	  <point x="169" y="38" type="line" smooth="yes"/>
	  <point x="169" y="25"/>
	  <point x="164" y="16"/>
	  <point x="156" y="10" type="curve" smooth="yes"/>
	  <point x="148" y="3"/>
	  <point x="138" y="0"/>
	  <point x="128" y="0" type="curve" smooth="yes"/>
	  <point x="108" y="0"/>
	  <point x="88" y="13"/>
	  <point x="88" y="38" type="curve" smooth="yes"/>
	  <point x="88" y="611" type="line" smooth="yes"/>
	  <point x="88" y="623"/>
	  <point x="93" y="633"/>
	  <point x="101" y="639" type="curve" smooth="yes"/>
	  <point x="108" y="646"/>
	  <point x="118" y="649"/>
	  <point x="129" y="649" type="curve" smooth="yes"/>
	  <point x="149" y="649"/>
	  <point x="169" y="636"/>
	  <point x="169" y="611" type="curve" smooth="yes"/>
	  <point x="169" y="370" type="line"/>
	  <point x="511" y="370" type="line"/>
	</contour>
  </outline>
</glyph>
<glyph name="I" format="1">
  <advance width="271"/>
  <unicode hex="0049"/>
  <outline>
	<contour>
	  <point x="95" y="610" type="line" smooth="yes"/>
	  <point x="95" y="623"/>
	  <point x="100" y="633"/>
	  <point x="107" y="639" type="curve" smooth="yes"/>
	  <point x="115" y="646"/>
	  <point x="125" y="649"/>
	  <point x="136" y="649" type="curve" smooth="yes"/>
	  <point x="156" y="649"/>
	  <point x="176" y="636"/>
	  <point x="176" y="610" type="curve" smooth="yes"/>
	  <point x="176" y="38" type="line" smooth="yes"/>
	  <point x="176" y="25"/>
	  <point x="171" y="16"/>
	  <point x="163" y="10" type="curve" smooth="yes"/>
	  <point x="155" y="3"/>
	  <point x="145" y="0"/>
	  <point x="135" y="0" type="curve" smooth="yes"/>
	  <point x="115" y="0"/>
	  <point x="95" y="13"/>
	  <point x="95" y="38" type="curve" smooth="yes"/>
	</contour>
  </outline>
</glyph>
<glyph name="J" format="1">
  <advance width="481"/>
  <unicode hex="004A"/>
  <outline>
    <contour>
      <point x="322" y="611" type="line" smooth="yes"/>
      <point x="322" y="624"/>
      <point x="327" y="633"/>
      <point x="335" y="640" type="curve" smooth="yes"/>
      <point x="343" y="646"/>
      <point x="353" y="649"/>
      <point x="363" y="649" type="curve" smooth="yes"/>
      <point x="374" y="649"/>
      <point x="384" y="646"/>
      <point x="391" y="640" type="curve" smooth="yes"/>
      <point x="399" y="633"/>
      <point x="404" y="624"/>
      <point x="404" y="611" type="curve" smooth="yes"/>
      <point x="404" y="201" type="line" smooth="yes"/>
      <point x="404" y="124"/>
      <point x="379" y="71"/>
      <point x="342" y="38" type="curve" smooth="yes"/>
      <point x="304" y="5"/>
      <point x="254" y="-10"/>
      <point x="203" y="-10" type="curve" smooth="yes"/>
      <point x="165" y="-10"/>
      <point x="129" y="1"/>
      <point x="99" y="21" type="curve" smooth="yes"/>
      <point x="68" y="41"/>
      <point x="44" y="71"/>
      <point x="31" y="109" type="curve"/>
      <point x="28" y="116"/>
      <point x="27" y="122"/>
      <point x="27" y="128" type="curve" smooth="yes"/>
      <point x="27" y="148"/>
      <point x="43" y="161"/>
      <point x="60" y="161" type="curve" smooth="yes"/>
      <point x="71" y="161"/>
      <point x="82" y="155"/>
      <point x="89" y="142" type="curve"/>
      <point x="108" y="87"/>
      <point x="144" y="55"/>
      <point x="203" y="55" type="curve" smooth="yes"/>
      <point x="279" y="55"/>
      <point x="322" y="101"/>
      <point x="322" y="207" type="curve" smooth="yes"/>
    </contour>
  </outline>
</glyph>
<glyph name="K" format="1">
  <advance width="586"/>
  <unicode hex="004B"/>
  <outline>
    <contour>
      <point x="173" y="38" type="line" smooth="yes"/>
      <point x="173" y="25"/>
      <point x="168" y="16"/>
      <point x="161" y="10" type="curve" smooth="yes"/>
      <point x="153" y="3"/>
      <point x="142" y="0"/>
      <point x="133" y="0" type="curve" smooth="yes"/>
      <point x="123" y="0"/>
      <point x="113" y="3"/>
      <point x="106" y="10" type="curve" smooth="yes"/>
      <point x="99" y="16"/>
      <point x="94" y="25"/>
      <point x="94" y="38" type="curve" smooth="yes"/>
      <point x="94" y="611" type="line" smooth="yes"/>
      <point x="94" y="636"/>
      <point x="114" y="649"/>
      <point x="134" y="649" type="curve" smooth="yes"/>
      <point x="143" y="649"/>
      <point x="153" y="646"/>
      <point x="161" y="639" type="curve" smooth="yes"/>
      <point x="168" y="633"/>
      <point x="173" y="623"/>
      <point x="173" y="611" type="curve" smooth="yes"/>
      <point x="173" y="363" type="line"/>
      <point x="447" y="635" type="line"/>
      <point x="456" y="645"/>
      <point x="466" y="649"/>
      <point x="477" y="649" type="curve" smooth="yes"/>
      <point x="496" y="649"/>
      <point x="513" y="634"/>
      <point x="513" y="616" type="curve" smooth="yes"/>
      <point x="513" y="608"/>
      <point x="510" y="600"/>
      <point x="504" y="592" type="curve"/>
      <point x="258" y="354" type="line"/>
      <point x="530" y="63" type="line"/>
      <point x="536" y="55"/>
      <point x="540" y="46"/>
      <point x="540" y="38" type="curve" smooth="yes"/>
      <point x="540" y="28"/>
      <point x="535" y="18"/>
      <point x="527" y="11" type="curve" smooth="yes"/>
      <point x="519" y="4"/>
      <point x="509" y="0"/>
      <point x="498" y="0" type="curve" smooth="yes"/>
      <point x="487" y="0"/>
      <point x="476" y="5"/>
      <point x="467" y="16" type="curve"/>
      <point x="173" y="334" type="line"/>
    </contour>
  </outline>
</glyph>
<glyph name="L" format="1">
  <advance width="523"/>
  <unicode hex="004C"/>
  <outline>
	<contour>
	  <point x="130" y="0" type="line" smooth="yes"/>
	  <point x="119" y="0"/>
	  <point x="108" y="4"/>
	  <point x="101" y="11" type="curve" smooth="yes"/>
	  <point x="94" y="19"/>
	  <point x="89" y="29"/>
	  <point x="89" y="40" type="curve" smooth="yes"/>
	  <point x="89" y="611" type="line" smooth="yes"/>
	  <point x="89" y="623"/>
	  <point x="94" y="633"/>
	  <point x="101" y="639" type="curve" smooth="yes"/>
	  <point x="109" y="646"/>
	  <point x="119" y="649"/>
	  <point x="130" y="649" type="curve" smooth="yes"/>
	  <point x="150" y="649"/>
	  <point x="170" y="636"/>
	  <point x="170" y="611" type="curve" smooth="yes"/>
	  <point x="170" y="66" type="line"/>
	  <point x="464" y="66" type="line" smooth="yes"/>
	  <point x="487" y="66"/>
	  <point x="498" y="50"/>
	  <point x="498" y="33" type="curve" smooth="yes"/>
	  <point x="498" y="17"/>
	  <point x="486" y="0"/>
	  <point x="464" y="0" type="curve" smooth="yes"/>
	</contour>
  </outline>
</glyph>
<glyph name="M" format="1">
  <advance width="891"/>
  <unicode hex="004D"/>
  <outline>
    <contour>
      <point x="446" y="105" type="line"/>
      <point x="662" y="581" type="line" smooth="yes"/>
      <point x="673" y="608"/>
      <point x="683" y="626"/>
      <point x="695" y="636" type="curve" smooth="yes"/>
      <point x="707" y="646"/>
      <point x="721" y="649"/>
      <point x="739" y="649" type="curve" smooth="yes"/>
      <point x="757" y="649"/>
      <point x="773" y="643"/>
      <point x="784" y="632" type="curve" smooth="yes"/>
      <point x="796" y="621"/>
      <point x="803" y="602"/>
      <point x="803" y="578" type="curve" smooth="yes"/>
      <point x="803" y="36" type="line" smooth="yes"/>
      <point x="803" y="12"/>
      <point x="784" y="0"/>
      <point x="765" y="0" type="curve" smooth="yes"/>
      <point x="747" y="0"/>
      <point x="729" y="12"/>
      <point x="729" y="36" type="curve" smooth="yes"/>
      <point x="729" y="570" type="line"/>
      <point x="494" y="50" type="line" smooth="yes"/>
      <point x="484" y="27"/>
      <point x="465" y="15"/>
      <point x="445" y="15" type="curve" smooth="yes"/>
      <point x="425" y="15"/>
      <point x="407" y="26"/>
      <point x="397" y="50" type="curve" smooth="yes"/>
      <point x="162" y="566" type="line"/>
      <point x="162" y="36" type="line" smooth="yes"/>
      <point x="162" y="12"/>
      <point x="143" y="0"/>
      <point x="125" y="0" type="curve" smooth="yes"/>
      <point x="106" y="0"/>
      <point x="88" y="12"/>
      <point x="88" y="36" type="curve" smooth="yes"/>
      <point x="88" y="578" type="line" smooth="yes"/>
      <point x="88" y="602"/>
      <point x="96" y="621"/>
      <point x="107" y="632" type="curve" smooth="yes"/>
      <point x="118" y="643"/>
      <point x="134" y="649"/>
      <point x="152" y="649" type="curve" smooth="yes"/>
      <point x="171" y="649"/>
      <point x="185" y="646"/>
      <point x="198" y="635" type="curve" smooth="yes"/>
      <point x="211" y="625"/>
      <point x="221" y="607"/>
      <point x="233" y="580" type="curve" smooth="yes"/>
      <point x="444" y="105" type="line"/>
    </contour>
  </outline>
</glyph>
<glyph name="N" format="1">
  <advance width="684"/>
  <unicode hex="004E"/>
  <outline>
	<contour>
	  <point x="82" y="595" type="line" smooth="yes"/>
	  <point x="82" y="612"/>
	  <point x="88" y="626"/>
	  <point x="98" y="635" type="curve" smooth="yes"/>
	  <point x="107" y="644"/>
	  <point x="120" y="649"/>
	  <point x="133" y="649" type="curve" smooth="yes"/>
	  <point x="151" y="649"/>
	  <point x="168" y="641"/>
	  <point x="182" y="622" type="curve"/>
	  <point x="526" y="103" type="line"/>
	  <point x="526" y="612" type="line" smooth="yes"/>
	  <point x="526" y="625"/>
	  <point x="531" y="634"/>
	  <point x="538" y="640" type="curve" smooth="yes"/>
	  <point x="545" y="646"/>
	  <point x="555" y="649"/>
	  <point x="564" y="649" type="curve" smooth="yes"/>
	  <point x="573" y="649"/>
	  <point x="583" y="646"/>
	  <point x="590" y="640" type="curve" smooth="yes"/>
	  <point x="597" y="634"/>
	  <point x="602" y="625"/>
	  <point x="602" y="612" type="curve" smooth="yes"/>
	  <point x="602" y="54" type="line" smooth="yes"/>
	  <point x="602" y="37"/>
	  <point x="596" y="23"/>
	  <point x="585" y="14" type="curve" smooth="yes"/>
	  <point x="575" y="5"/>
	  <point x="561" y="0"/>
	  <point x="547" y="0" type="curve" smooth="yes"/>
	  <point x="529" y="0"/>
	  <point x="511" y="8"/>
	  <point x="497" y="26" type="curve"/>
	  <point x="158" y="538" type="line"/>
	  <point x="158" y="36" type="line" smooth="yes"/>
	  <point x="158" y="24"/>
	  <point x="153" y="15"/>
	  <point x="146" y="9" type="curve" smooth="yes"/>
	  <point x="139" y="3"/>
	  <point x="129" y="0"/>
	  <point x="120" y="0" type="curve" smooth="yes"/>
	  <point x="100" y="0"/>
	  <point x="82" y="12"/>
	  <point x="82" y="36" type="curve" smooth="yes"/>
	</contour>
  </outline>
</glyph>
<glyph name="O" format="1">
  <advance width="727"/>
  <unicode hex="004F"/>
  <outline>
	<contour>
	  <point x="145" y="259"/>
	  <point x="161" y="189"/>
	  <point x="196" y="139" type="curve" smooth="yes"/>
	  <point x="231" y="89"/>
	  <point x="286" y="56"/>
	  <point x="364" y="56" type="curve" smooth="yes"/>
	  <point x="440" y="56"/>
	  <point x="495" y="89"/>
	  <point x="531" y="139" type="curve" smooth="yes"/>
	  <point x="566" y="189"/>
	  <point x="582" y="259"/>
	  <point x="582" y="322" type="curve" smooth="yes"/>
	  <point x="582" y="384"/>
	  <point x="566" y="455"/>
	  <point x="531" y="506" type="curve" smooth="yes"/>
	  <point x="495" y="556"/>
	  <point x="440" y="588"/>
	  <point x="364" y="588" type="curve" smooth="yes"/>
	  <point x="286" y="588"/>
	  <point x="231" y="556"/>
	  <point x="196" y="506" type="curve" smooth="yes"/>
	  <point x="161" y="455"/>
	  <point x="145" y="384"/>
	  <point x="145" y="322" type="curve" smooth="yes"/>
	</contour>
	<contour>
	  <point x="58" y="415"/>
	  <point x="86" y="501"/>
	  <point x="137" y="561" type="curve" smooth="yes"/>
	  <point x="188" y="621"/>
	  <point x="265" y="654"/>
	  <point x="364" y="654" type="curve" smooth="yes"/>
	  <point x="462" y="654"/>
	  <point x="538" y="621"/>
	  <point x="590" y="561" type="curve" smooth="yes"/>
	  <point x="641" y="501"/>
	  <point x="668" y="415"/>
	  <point x="668" y="322" type="curve" smooth="yes"/>
	  <point x="668" y="229"/>
	  <point x="641" y="143"/>
	  <point x="590" y="84" type="curve" smooth="yes"/>
	  <point x="538" y="25"/>
	  <point x="462" y="-10"/>
	  <point x="364" y="-10" type="curve" smooth="yes"/>
	  <point x="265" y="-10"/>
	  <point x="188" y="25"/>
	  <point x="137" y="84" type="curve" smooth="yes"/>
	  <point x="86" y="143"/>
	  <point x="58" y="229"/>
	  <point x="58" y="322" type="curve" smooth="yes"/>
	</contour>
  </outline>
</glyph>
<glyph name="P" format="1">
  <advance width="581"/>
  <unicode hex="0050"/>
  <outline>
	<contour>
	  <point x="170" y="284" type="line"/>
	  <point x="170" y="38" type="line" smooth="yes"/>
	  <point x="170" y="25"/>
	  <point x="165" y="16"/>
	  <point x="157" y="10" type="curve" smooth="yes"/>
	  <point x="149" y="3"/>
	  <point x="139" y="0"/>
	  <point x="129" y="0" type="curve" smooth="yes"/>
	  <point x="109" y="0"/>
	  <point x="89" y="13"/>
	  <point x="89" y="38" type="curve" smooth="yes"/>
	  <point x="89" y="609" type="line" smooth="yes"/>
	  <point x="89" y="620"/>
	  <point x="93" y="630"/>
	  <point x="101" y="637" type="curve" smooth="yes"/>
	  <point x="108" y="644"/>
	  <point x="118" y="649"/>
	  <point x="130" y="649" type="curve" smooth="yes"/>
	  <point x="293" y="649" type="line" smooth="yes"/>
	  <point x="336" y="649"/>
	  <point x="379" y="644"/>
	  <point x="417" y="633" type="curve" smooth="yes"/>
	  <point x="455" y="622"/>
	  <point x="489" y="603"/>
	  <point x="513" y="576" type="curve" smooth="yes"/>
	  <point x="536" y="548"/>
	  <point x="551" y="509"/>
	  <point x="551" y="467" type="curve" smooth="yes"/>
	  <point x="551" y="423"/>
	  <point x="536" y="385"/>
	  <point x="512" y="357" type="curve" smooth="yes"/>
	  <point x="488" y="329"/>
	  <point x="454" y="311"/>
	  <point x="415" y="300" type="curve" smooth="yes"/>
	  <point x="377" y="288"/>
	  <point x="333" y="284"/>
	  <point x="289" y="284" type="curve" smooth="yes"/>
	</contour>
	<contour>
	  <point x="304" y="348" type="line" smooth="yes"/>
	  <point x="348" y="348"/>
	  <point x="389" y="354"/>
	  <point x="418" y="373" type="curve" smooth="yes"/>
	  <point x="448" y="392"/>
	  <point x="466" y="425"/>
	  <point x="466" y="467" type="curve" smooth="yes"/>
	  <point x="466" y="509"/>
	  <point x="448" y="541"/>
	  <point x="419" y="560" type="curve" smooth="yes"/>
	  <point x="389" y="578"/>
	  <point x="349" y="585"/>
	  <point x="305" y="585" type="curve" smooth="yes"/>
	  <point x="170" y="585" type="line"/>
	  <point x="170" y="348" type="line"/>
	</contour>
  </outline>
</glyph>
<glyph name="Q" format="1">
  <advance width="727"/>
  <unicode hex="0051"/>
  <outline>
    <contour>
      <point x="58" y="416"/>
      <point x="86" y="501"/>
      <point x="137" y="561" type="curve" smooth="yes"/>
      <point x="188" y="621"/>
      <point x="265" y="654"/>
      <point x="364" y="654" type="curve" smooth="yes"/>
      <point x="462" y="654"/>
      <point x="538" y="621"/>
      <point x="589" y="561" type="curve" smooth="yes"/>
      <point x="641" y="502"/>
      <point x="667" y="417"/>
      <point x="667" y="320" type="curve" smooth="yes"/>
      <point x="667" y="273"/>
      <point x="657" y="221"/>
      <point x="637" y="177" type="curve" smooth="yes"/>
      <point x="618" y="134"/>
      <point x="590" y="97"/>
      <point x="556" y="65" type="curve"/>
      <point x="659" y="65" type="line" smooth="yes"/>
      <point x="681" y="65"/>
      <point x="692" y="49"/>
      <point x="692" y="33" type="curve" smooth="yes"/>
      <point x="692" y="16"/>
      <point x="681" y="0"/>
      <point x="659" y="0" type="curve" smooth="yes"/>
      <point x="445" y="0" type="line"/>
      <point x="414" y="-7"/>
      <point x="391" y="-10"/>
      <point x="364" y="-10" type="curve" smooth="yes"/>
      <point x="265" y="-10"/>
      <point x="188" y="23"/>
      <point x="137" y="82" type="curve" smooth="yes"/>
      <point x="86" y="141"/>
      <point x="58" y="228"/>
      <point x="58" y="319" type="curve" smooth="yes"/>
    </contour>
    <contour>
      <point x="145" y="258"/>
      <point x="161" y="187"/>
      <point x="196" y="137" type="curve" smooth="yes"/>
      <point x="231" y="87"/>
      <point x="286" y="54"/>
      <point x="364" y="54" type="curve" smooth="yes"/>
      <point x="440" y="54"/>
      <point x="495" y="87"/>
      <point x="531" y="137" type="curve" smooth="yes"/>
      <point x="566" y="187"/>
      <point x="582" y="258"/>
      <point x="582" y="319" type="curve" smooth="yes"/>
      <point x="582" y="385"/>
      <point x="566" y="455"/>
      <point x="531" y="506" type="curve" smooth="yes"/>
      <point x="495" y="556"/>
      <point x="440" y="588"/>
      <point x="364" y="588" type="curve" smooth="yes"/>
      <point x="286" y="588"/>
      <point x="231" y="556"/>
      <point x="196" y="506" type="curve" smooth="yes"/>
      <point x="161" y="455"/>
      <point x="145" y="385"/>
      <point x="145" y="319" type="curve" smooth="yes"/>
    </contour>
  </outline>
</glyph>
<glyph name="S" format="1">
  <advance width="580"/>
  <unicode hex="0053"/>
  <outline>
	<contour>
	  <point x="149" y="450"/>
	  <point x="172" y="422"/>
	  <point x="207" y="402" type="curve" smooth="yes"/>
	  <point x="242" y="382"/>
	  <point x="288" y="369"/>
	  <point x="335" y="354" type="curve" smooth="yes"/>
	  <point x="386" y="338"/>
	  <point x="435" y="321"/>
	  <point x="471" y="293" type="curve" smooth="yes"/>
	  <point x="507" y="265"/>
	  <point x="530" y="226"/>
	  <point x="530" y="167" type="curve" smooth="yes"/>
	  <point x="530" y="116"/>
	  <point x="504" y="69"/>
	  <point x="460" y="38" type="curve" smooth="yes"/>
	  <point x="416" y="6"/>
	  <point x="355" y="-10"/>
	  <point x="286" y="-10" type="curve" smooth="yes"/>
	  <point x="237" y="-10"/>
	  <point x="192" y="0"/>
	  <point x="154" y="15" type="curve" smooth="yes"/>
	  <point x="116" y="30"/>
	  <point x="86" y="51"/>
	  <point x="62" y="76" type="curve" smooth="yes"/>
	  <point x="57" y="81"/>
	  <point x="55" y="87"/>
	  <point x="55" y="94" type="curve" smooth="yes"/>
	  <point x="55" y="102"/>
	  <point x="59" y="111"/>
	  <point x="64" y="119" type="curve" smooth="yes"/>
	  <point x="70" y="126"/>
	  <point x="76" y="131"/>
	  <point x="83" y="131" type="curve" smooth="yes"/>
	  <point x="94" y="131"/>
	  <point x="106" y="121"/>
	  <point x="116" y="113" type="curve" smooth="yes"/>
	  <point x="136" y="99"/>
	  <point x="159" y="85"/>
	  <point x="187" y="74" type="curve" smooth="yes"/>
	  <point x="215" y="63"/>
	  <point x="248" y="56"/>
	  <point x="289" y="56" type="curve" smooth="yes"/>
	  <point x="333" y="56"/>
	  <point x="373" y="66"/>
	  <point x="400" y="84" type="curve" smooth="yes"/>
	  <point x="428" y="102"/>
	  <point x="445" y="131"/>
	  <point x="445" y="162" type="curve" smooth="yes"/>
	  <point x="445" y="205"/>
	  <point x="422" y="233"/>
	  <point x="388" y="253" type="curve" smooth="yes"/>
	  <point x="353" y="273"/>
	  <point x="307" y="286"/>
	  <point x="261" y="301" type="curve" smooth="yes"/>
	  <point x="210" y="317"/>
	  <point x="162" y="336"/>
	  <point x="126" y="364" type="curve" smooth="yes"/>
	  <point x="89" y="393"/>
	  <point x="66" y="433"/>
	  <point x="66" y="484" type="curve" smooth="yes"/>
	  <point x="66" y="535"/>
	  <point x="93" y="580"/>
	  <point x="135" y="609" type="curve" smooth="yes"/>
	  <point x="176" y="639"/>
	  <point x="233" y="654"/>
	  <point x="291" y="654" type="curve" smooth="yes"/>
	  <point x="382" y="654"/>
	  <point x="452" y="626"/>
	  <point x="507" y="567" type="curve" smooth="yes"/>
	  <point x="512" y="562"/>
	  <point x="513" y="555"/>
	  <point x="513" y="547" type="curve" smooth="yes"/>
	  <point x="513" y="541"/>
	  <point x="511" y="532"/>
	  <point x="506" y="526" type="curve"/>
	  <point x="501" y="520"/>
	  <point x="493" y="515"/>
	  <point x="482" y="515" type="curve" smooth="yes"/>
	  <point x="474" y="515"/>
	  <point x="464" y="520"/>
	  <point x="453" y="531" type="curve"/>
	  <point x="433" y="546"/>
	  <point x="412" y="560"/>
	  <point x="387" y="570" type="curve" smooth="yes"/>
	  <point x="361" y="580"/>
	  <point x="333" y="586"/>
	  <point x="298" y="586" type="curve" smooth="yes"/>
	  <point x="264" y="586"/>
	  <point x="227" y="579"/>
	  <point x="198" y="562" type="curve" smooth="yes"/>
	  <point x="169" y="546"/>
	  <point x="149" y="518"/>
	  <point x="149" y="489" type="curve" smooth="yes"/>
	</contour>
  </outline>
</glyph>
<glyph name="T" format="1">
  <advance width="527"/>
  <unicode hex="0054"/>
  <outline>
    <contour>
      <point x="46" y="582" type="line" smooth="yes"/>
      <point x="24" y="582"/>
      <point x="12" y="599"/>
      <point x="12" y="616" type="curve" smooth="yes"/>
      <point x="12" y="632"/>
      <point x="24" y="649"/>
      <point x="46" y="649" type="curve" smooth="yes"/>
      <point x="480" y="649" type="line" smooth="yes"/>
      <point x="504" y="649"/>
      <point x="515" y="632"/>
      <point x="515" y="616" type="curve" smooth="yes"/>
      <point x="515" y="599"/>
      <point x="503" y="582"/>
      <point x="480" y="582" type="curve" smooth="yes"/>
      <point x="305" y="582" type="line"/>
      <point x="305" y="39" type="line" smooth="yes"/>
      <point x="305" y="26"/>
      <point x="300" y="16"/>
      <point x="293" y="10" type="curve" smooth="yes"/>
      <point x="285" y="4"/>
      <point x="274" y="0"/>
      <point x="265" y="0" type="curve" smooth="yes"/>
      <point x="244" y="0"/>
      <point x="224" y="13"/>
      <point x="224" y="39" type="curve" smooth="yes"/>
      <point x="224" y="582" type="line"/>
    </contour>
  </outline>
</glyph>
<glyph name="U" format="1">
  <advance width="678"/>
  <unicode hex="0055"/>
  <outline>
	<contour>
	  <point x="86" y="610" type="line" smooth="yes"/>
	  <point x="86" y="623"/>
	  <point x="91" y="633"/>
	  <point x="99" y="639" type="curve" smooth="yes"/>
	  <point x="106" y="646"/>
	  <point x="116" y="649"/>
	  <point x="127" y="649" type="curve" smooth="yes"/>
	  <point x="147" y="649"/>
	  <point x="167" y="636"/>
	  <point x="167" y="610" type="curve" smooth="yes"/>
	  <point x="167" y="228" type="line" smooth="yes"/>
	  <point x="167" y="169"/>
	  <point x="188" y="126"/>
	  <point x="221" y="98" type="curve" smooth="yes"/>
	  <point x="253" y="70"/>
	  <point x="296" y="56"/>
	  <point x="339" y="56" type="curve" smooth="yes"/>
	  <point x="382" y="56"/>
	  <point x="425" y="70"/>
	  <point x="458" y="98" type="curve" smooth="yes"/>
	  <point x="490" y="126"/>
	  <point x="511" y="169"/>
	  <point x="511" y="228" type="curve" smooth="yes"/>
	  <point x="511" y="610" type="line" smooth="yes"/>
	  <point x="511" y="623"/>
	  <point x="516" y="633"/>
	  <point x="524" y="639" type="curve" smooth="yes"/>
	  <point x="531" y="646"/>
	  <point x="542" y="649"/>
	  <point x="552" y="649" type="curve" smooth="yes"/>
	  <point x="572" y="649"/>
	  <point x="592" y="636"/>
	  <point x="592" y="610" type="curve" smooth="yes"/>
	  <point x="592" y="226" type="line" smooth="yes"/>
	  <point x="592" y="146"/>
	  <point x="562" y="87"/>
	  <point x="515" y="48" type="curve" smooth="yes"/>
	  <point x="468" y="9"/>
	  <point x="404" y="-10"/>
	  <point x="339" y="-10" type="curve" smooth="yes"/>
	  <point x="273" y="-10"/>
	  <point x="210" y="9"/>
	  <point x="163" y="48" type="curve" smooth="yes"/>
	  <point x="116" y="87"/>
	  <point x="86" y="146"/>
	  <point x="86" y="226" type="curve" smooth="yes"/>
	</contour>
  </outline>
</glyph>
<glyph name="V" format="1">
  <advance width="586"/>
  <unicode hex="0056"/>
  <outline>
	<contour>
	  <point x="295" y="70" type="line"/>
	  <point x="297" y="70" type="line"/>
	  <point x="491" y="622" type="line" smooth="yes"/>
	  <point x="498" y="639"/>
	  <point x="512" y="649"/>
	  <point x="528" y="649" type="curve" smooth="yes"/>
	  <point x="538" y="649"/>
	  <point x="547" y="645"/>
	  <point x="555" y="639" type="curve" smooth="yes"/>
	  <point x="561" y="633"/>
	  <point x="566" y="624"/>
	  <point x="566" y="615" type="curve" smooth="yes"/>
	  <point x="566" y="611"/>
	  <point x="566" y="607"/>
	  <point x="564" y="602" type="curve" smooth="yes"/>
	  <point x="360" y="49" type="line" smooth="yes"/>
	  <point x="348" y="12"/>
	  <point x="324" y="0"/>
	  <point x="293" y="0" type="curve" smooth="yes"/>
	  <point x="264" y="0"/>
	  <point x="241" y="11"/>
	  <point x="228" y="49" type="curve" smooth="yes"/>
	  <point x="22" y="600" type="line"/>
	  <point x="20" y="603"/>
	  <point x="20" y="608"/>
	  <point x="20" y="612" type="curve" smooth="yes"/>
	  <point x="20" y="622"/>
	  <point x="25" y="632"/>
	  <point x="33" y="639" type="curve" smooth="yes"/>
	  <point x="40" y="646"/>
	  <point x="51" y="649"/>
	  <point x="61" y="649" type="curve" smooth="yes"/>
	  <point x="77" y="649"/>
	  <point x="91" y="640"/>
	  <point x="97" y="623" type="curve" smooth="yes"/>
	</contour>
  </outline>
</glyph>
<glyph name="W" format="1">
  <advance width="935"/>
  <unicode hex="0057"/>
  <outline>
    <contour>
      <point x="466" y="571" type="line"/>
      <point x="299" y="51" type="line" smooth="yes"/>
      <point x="290" y="18"/>
      <point x="259" y="0"/>
      <point x="230" y="0" type="curve" smooth="yes"/>
      <point x="202" y="0"/>
      <point x="176" y="16"/>
      <point x="167" y="51" type="curve" smooth="yes"/>
      <point x="20" y="600" type="line"/>
      <point x="18" y="603"/>
      <point x="18" y="607"/>
      <point x="18" y="610" type="curve" smooth="yes"/>
      <point x="18" y="622"/>
      <point x="24" y="631"/>
      <point x="32" y="638" type="curve" smooth="yes"/>
      <point x="41" y="645"/>
      <point x="52" y="649"/>
      <point x="62" y="649" type="curve" smooth="yes"/>
      <point x="77" y="649"/>
      <point x="89" y="642"/>
      <point x="94" y="624" type="curve" smooth="yes"/>
      <point x="236" y="70" type="line"/>
      <point x="410" y="602" type="line"/>
      <point x="418" y="633"/>
      <point x="442" y="649"/>
      <point x="467" y="649" type="curve" smooth="yes"/>
      <point x="492" y="649"/>
      <point x="516" y="633"/>
      <point x="526" y="602" type="curve" smooth="yes"/>
      <point x="706" y="70" type="line"/>
      <point x="846" y="622" type="line" smooth="yes"/>
      <point x="851" y="641"/>
      <point x="865" y="649"/>
      <point x="880" y="649" type="curve" smooth="yes"/>
      <point x="890" y="649"/>
      <point x="900" y="645"/>
      <point x="907" y="639" type="curve" smooth="yes"/>
      <point x="915" y="633"/>
      <point x="920" y="625"/>
      <point x="920" y="614" type="curve" smooth="yes"/>
      <point x="920" y="611"/>
      <point x="919" y="607"/>
      <point x="918" y="604" type="curve"/>
      <point x="768" y="51" type="line" smooth="yes"/>
      <point x="763" y="35"/>
      <point x="754" y="21"/>
      <point x="743" y="13" type="curve" smooth="yes"/>
      <point x="732" y="4"/>
      <point x="718" y="0"/>
      <point x="703" y="0" type="curve" smooth="yes"/>
      <point x="674" y="0"/>
      <point x="647" y="17"/>
      <point x="637" y="51" type="curve" smooth="yes"/>
    </contour>
  </outline>
</glyph>
<glyph name="X" format="1">
  <advance width="580"/>
  <unicode hex="0058"/>
  <outline>
	<contour>
	  <point x="101" y="19" type="line" smooth="yes"/>
	  <point x="92" y="5"/>
	  <point x="80" y="0"/>
	  <point x="69" y="0" type="curve" smooth="yes"/>
	  <point x="59" y="0"/>
	  <point x="50" y="4"/>
	  <point x="43" y="10" type="curve" smooth="yes"/>
	  <point x="35" y="17"/>
	  <point x="31" y="25"/>
	  <point x="31" y="35" type="curve" smooth="yes"/>
	  <point x="31" y="41"/>
	  <point x="33" y="48"/>
	  <point x="38" y="55" type="curve" smooth="yes"/>
	  <point x="241" y="334" type="line"/>
	  <point x="52" y="593" type="line" smooth="yes"/>
	  <point x="48" y="598"/>
	  <point x="46" y="604"/>
	  <point x="46" y="611" type="curve" smooth="yes"/>
	  <point x="46" y="622"/>
	  <point x="51" y="631"/>
	  <point x="60" y="638" type="curve" smooth="yes"/>
	  <point x="68" y="645"/>
	  <point x="79" y="649"/>
	  <point x="90" y="649" type="curve" smooth="yes"/>
	  <point x="102" y="649"/>
	  <point x="115" y="643"/>
	  <point x="124" y="630" type="curve" smooth="yes"/>
	  <point x="295" y="384" type="line"/>
	  <point x="472" y="630" type="line" smooth="yes"/>
	  <point x="481" y="643"/>
	  <point x="493" y="649"/>
	  <point x="505" y="649" type="curve" smooth="yes"/>
	  <point x="515" y="649"/>
	  <point x="524" y="645"/>
	  <point x="531" y="639" type="curve"/>
	  <point x="537" y="633"/>
	  <point x="541" y="625"/>
	  <point x="541" y="616" type="curve" smooth="yes"/>
	  <point x="541" y="609"/>
	  <point x="540" y="603"/>
	  <point x="535" y="596" type="curve" smooth="yes"/>
	  <point x="339" y="334" type="line"/>
	  <point x="540" y="57" type="line" smooth="yes"/>
	  <point x="544" y="51"/>
	  <point x="546" y="45"/>
	  <point x="546" y="39" type="curve" smooth="yes"/>
	  <point x="546" y="28"/>
	  <point x="541" y="19"/>
	  <point x="532" y="12" type="curve" smooth="yes"/>
	  <point x="524" y="5"/>
	  <point x="513" y="0"/>
	  <point x="502" y="0" type="curve" smooth="yes"/>
	  <point x="490" y="0"/>
	  <point x="479" y="6"/>
	  <point x="470" y="18" type="curve" smooth="yes"/>
	  <point x="286" y="281" type="line"/>
	</contour>
  </outline>
</glyph>
<glyph name="Y" format="1">
  <advance width="600"/>
  <unicode hex="0059"/>
  <outline>
    <contour>
      <point x="332" y="276" type="line"/>
      <point x="332" y="39" type="line" smooth="yes"/>
      <point x="332" y="26"/>
      <point x="327" y="16"/>
      <point x="319" y="10" type="curve" smooth="yes"/>
      <point x="312" y="4"/>
      <point x="302" y="0"/>
      <point x="291" y="0" type="curve" smooth="yes"/>
      <point x="271" y="0"/>
      <point x="251" y="13"/>
      <point x="251" y="39" type="curve" smooth="yes"/>
      <point x="251" y="274" type="line"/>
      <point x="40" y="595" type="line" smooth="yes"/>
      <point x="36" y="600"/>
      <point x="35" y="606"/>
      <point x="34" y="612" type="curve"/>
      <point x="34" y="622"/>
      <point x="40" y="631"/>
      <point x="49" y="638" type="curve" smooth="yes"/>
      <point x="57" y="645"/>
      <point x="68" y="649"/>
      <point x="79" y="649" type="curve" smooth="yes"/>
      <point x="92" y="649"/>
      <point x="106" y="643"/>
      <point x="113" y="629" type="curve"/>
      <point x="297" y="339" type="line"/>
      <point x="298" y="339" type="line"/>
      <point x="481" y="629" type="line"/>
      <point x="489" y="643"/>
      <point x="501" y="649"/>
      <point x="514" y="649" type="curve" smooth="yes"/>
      <point x="523" y="649"/>
      <point x="533" y="646"/>
      <point x="540" y="640" type="curve" smooth="yes"/>
      <point x="547" y="635"/>
      <point x="551" y="627"/>
      <point x="551" y="618" type="curve"/>
      <point x="551" y="612"/>
      <point x="550" y="607"/>
      <point x="546" y="601" type="curve" smooth="yes"/>
    </contour>
  </outline>
</glyph>
<glyph name="Z" format="1">
  <advance width="530"/>
  <unicode hex="005A"/>
  <outline>
	<contour>
	  <point x="81" y="0" type="line" smooth="yes"/>
	  <point x="64" y="0"/>
	  <point x="52" y="5"/>
	  <point x="44" y="13" type="curve" smooth="yes"/>
	  <point x="36" y="20"/>
	  <point x="32" y="30"/>
	  <point x="32" y="41" type="curve" smooth="yes"/>
	  <point x="32" y="51"/>
	  <point x="35" y="61"/>
	  <point x="41" y="70" type="curve" smooth="yes"/>
	  <point x="399" y="583" type="line"/>
	  <point x="69" y="583" type="line" smooth="yes"/>
	  <point x="47" y="583"/>
	  <point x="36" y="599"/>
	  <point x="36" y="616" type="curve" smooth="yes"/>
	  <point x="36" y="632"/>
	  <point x="47" y="649"/>
	  <point x="69" y="649" type="curve" smooth="yes"/>
	  <point x="458" y="649" type="line" smooth="yes"/>
	  <point x="483" y="649"/>
	  <point x="499" y="633"/>
	  <point x="499" y="611" type="curve" smooth="yes"/>
	  <point x="499" y="602"/>
	  <point x="496" y="590"/>
	  <point x="488" y="579" type="curve" smooth="yes"/>
	  <point x="130" y="66" type="line"/>
	  <point x="461" y="66" type="line" smooth="yes"/>
	  <point x="484" y="66"/>
	  <point x="495" y="50"/>
	  <point x="495" y="33" type="curve" smooth="yes"/>
	  <point x="495" y="16"/>
	  <point x="484" y="0"/>
	  <point x="461" y="0" type="curve" smooth="yes"/>
	</contour>
  </outline>
</glyph>
<glyph name="bracketleft" format="1">
  <advance width="278"/>
  <unicode hex="005B"/>
  <outline>
    <contour>
      <point x="79" y="612" type="line" smooth="yes"/>
      <point x="79" y="632"/>
      <point x="95" y="649"/>
      <point x="116" y="649" type="curve" smooth="yes"/>
      <point x="199" y="649" type="line" smooth="yes"/>
      <point x="219" y="649"/>
      <point x="228" y="635"/>
      <point x="228" y="621" type="curve" smooth="yes"/>
      <point x="228" y="607"/>
      <point x="218" y="593"/>
      <point x="199" y="593" type="curve" smooth="yes"/>
      <point x="153" y="593" type="line"/>
      <point x="153" y="-35" type="line"/>
      <point x="199" y="-35" type="line" smooth="yes"/>
      <point x="219" y="-35"/>
      <point x="228" y="-48"/>
      <point x="228" y="-62" type="curve" smooth="yes"/>
      <point x="228" y="-76"/>
      <point x="218" y="-91"/>
      <point x="199" y="-91" type="curve" smooth="yes"/>
      <point x="116" y="-91" type="line" smooth="yes"/>
      <point x="95" y="-91"/>
      <point x="79" y="-75"/>
      <point x="79" y="-55" type="curve" smooth="yes"/>
    </contour>
  </outline>
</glyph>
<glyph name="backslash" format="1">
  <advance width="268"/>
  <unicode hex="005C"/>
  <outline>
    <contour>
      <point x="-7" y="640" type="line"/>
      <point x="-8" y="645"/>
      <point x="-9" y="649"/>
      <point x="-9" y="652" type="curve" smooth="yes"/>
      <point x="-9" y="671"/>
      <point x="7" y="682"/>
      <point x="23" y="682" type="curve" smooth="yes"/>
      <point x="36" y="682"/>
      <point x="50" y="675"/>
      <point x="55" y="659" type="curve" smooth="yes"/>
      <point x="274" y="-6" type="line" smooth="yes"/>
      <point x="276" y="-10"/>
      <point x="276" y="-15"/>
      <point x="276" y="-19" type="curve" smooth="yes"/>
      <point x="276" y="-37"/>
      <point x="261" y="-48"/>
      <point x="245" y="-48" type="curve" smooth="yes"/>
      <point x="233" y="-48"/>
      <point x="220" y="-41"/>
      <point x="215" y="-25" type="curve" smooth="yes"/>
    </contour>
  </outline>
</glyph>
<glyph name="bracketright" format="1">
  <advance width="278"/>
  <unicode hex="005D"/>
  <outline>
	<contour>
	  <point x="199" y="-55" type="line" smooth="yes"/>
	  <point x="199" y="-75"/>
	  <point x="182" y="-91"/>
	  <point x="162" y="-91" type="curve" smooth="yes"/>
	  <point x="78" y="-91" type="line" smooth="yes"/>
	  <point x="59" y="-91"/>
	  <point x="50" y="-76"/>
	  <point x="50" y="-62" type="curve" smooth="yes"/>
	  <point x="50" y="-48"/>
	  <point x="59" y="-35"/>
	  <point x="78" y="-35" type="curve" smooth="yes"/>
	  <point x="125" y="-35" type="line"/>
	  <point x="125" y="593" type="line"/>
	  <point x="78" y="593" type="line" smooth="yes"/>
	  <point x="59" y="593"/>
	  <point x="50" y="607"/>
	  <point x="50" y="621" type="curve" smooth="yes"/>
	  <point x="50" y="635"/>
	  <point x="58" y="649"/>
	  <point x="78" y="649" type="curve" smooth="yes"/>
	  <point x="162" y="649" type="line" smooth="yes"/>
	  <point x="182" y="649"/>
	  <point x="199" y="632"/>
	  <point x="199" y="612" type="curve" smooth="yes"/>
	</contour>
  </outline>
</glyph>
<glyph name="asciicircum" format="1">
  <advance width="610"/>
  <unicode hex="005E"/>
  <outline>
    <contour>
      <point x="304" y="562" type="line"/>
      <point x="145" y="243" type="line"/>
      <point x="139" y="229"/>
      <point x="128" y="224"/>
      <point x="117" y="224" type="curve" smooth="yes"/>
      <point x="101" y="224"/>
      <point x="85" y="235"/>
      <point x="85" y="253" type="curve" smooth="yes"/>
      <point x="85" y="257"/>
      <point x="86" y="261"/>
      <point x="88" y="266" type="curve"/>
      <point x="266" y="610" type="line" smooth="yes"/>
      <point x="274" y="626"/>
      <point x="289" y="635"/>
      <point x="304" y="635" type="curve" smooth="yes"/>
      <point x="320" y="635"/>
      <point x="334" y="626"/>
      <point x="343" y="610" type="curve" smooth="yes"/>
      <point x="520" y="266" type="line"/>
      <point x="521" y="261"/>
      <point x="522" y="257"/>
      <point x="522" y="253" type="curve" smooth="yes"/>
      <point x="522" y="245"/>
      <point x="518" y="238"/>
      <point x="512" y="233" type="curve"/>
      <point x="506" y="227"/>
      <point x="498" y="224"/>
      <point x="490" y="224" type="curve" smooth="yes"/>
      <point x="479" y="224"/>
      <point x="469" y="230"/>
      <point x="462" y="243" type="curve" smooth="yes"/>
    </contour>
  </outline>
</glyph>
<glyph name="underscore" format="1">
  <advance width="465"/>
  <unicode hex="005F"/>
  <outline>
	<contour>
	  <point x="25" y="-116" type="line" smooth="yes"/>
	  <point x="8" y="-116"/>
	  <point x="0" y="-102"/>
	  <point x="0" y="-89" type="curve" smooth="yes"/>
	  <point x="0" y="-75"/>
	  <point x="8" y="-61"/>
	  <point x="25" y="-61" type="curve" smooth="yes"/>
	  <point x="439" y="-61" type="line" smooth="yes"/>
	  <point x="457" y="-61"/>
	  <point x="465" y="-75"/>
	  <point x="465" y="-89" type="curve" smooth="yes"/>
	  <point x="465" y="-102"/>
	  <point x="457" y="-116"/>
	  <point x="439" y="-116" type="curve" smooth="yes"/>
	</contour>
  </outline>
</glyph>
<glyph name="grave" format="1">
  <advance width="259"/>
  <unicode hex="0060"/>
  <outline>
    <contour>
      <point x="37" y="622" type="line" smooth="yes"/>
      <point x="30" y="627"/>
      <point x="27" y="635"/>
      <point x="27" y="642" type="curve"/>
      <point x="27" y="652"/>
      <point x="32" y="662"/>
      <point x="40" y="669" type="curve" smooth="yes"/>
      <point x="47" y="677"/>
      <point x="58" y="682"/>
      <point x="68" y="682" type="curve" smooth="yes"/>
      <point x="77" y="682"/>
      <point x="84" y="679"/>
      <point x="91" y="671" type="curve" smooth="yes"/>
      <point x="214" y="534" type="line"/>
      <point x="218" y="529"/>
      <point x="219" y="524"/>
      <point x="219" y="519" type="curve" smooth="yes"/>
      <point x="219" y="510"/>
      <point x="213" y="502"/>
      <point x="202" y="502" type="curve" smooth="yes"/>
      <point x="197" y="502"/>
      <point x="190" y="505"/>
      <point x="184" y="510" type="curve" smooth="yes"/>
    </contour>
  </outline>
</glyph>
<glyph name="b" format="1">
  <advance width="526"/>
  <unicode hex="0062"/>
  <outline>
	<contour>
	  <point x="133" y="32" type="line"/>
	  <point x="131" y="11"/>
	  <point x="114" y="0"/>
	  <point x="97" y="0" type="curve" smooth="yes"/>
	  <point x="80" y="0"/>
	  <point x="63" y="11"/>
	  <point x="63" y="34" type="curve" smooth="yes"/>
	  <point x="63" y="615" type="line" smooth="yes"/>
	  <point x="63" y="637"/>
	  <point x="81" y="648"/>
	  <point x="100" y="648" type="curve" smooth="yes"/>
	  <point x="118" y="648"/>
	  <point x="136" y="637"/>
	  <point x="136" y="615" type="curve" smooth="yes"/>
	  <point x="136" y="378" type="line"/>
	  <point x="152" y="406"/>
	  <point x="177" y="427"/>
	  <point x="205" y="441" type="curve" smooth="yes"/>
	  <point x="233" y="455"/>
	  <point x="265" y="461"/>
	  <point x="296" y="461" type="curve" smooth="yes"/>
	  <point x="363" y="461"/>
	  <point x="411" y="433"/>
	  <point x="442" y="390" type="curve" smooth="yes"/>
	  <point x="473" y="347"/>
	  <point x="487" y="289"/>
	  <point x="487" y="228" type="curve" smooth="yes"/>
	  <point x="487" y="169"/>
	  <point x="473" y="110"/>
	  <point x="443" y="65" type="curve" smooth="yes"/>
	  <point x="412" y="20"/>
	  <point x="365" y="-10"/>
	  <point x="299" y="-10" type="curve" smooth="yes"/>
	  <point x="231" y="-10"/>
	  <point x="173" y="17"/>
	  <point x="133" y="79" type="curve"/>
	</contour>
	<contour>
	  <point x="136" y="182"/>
	  <point x="145" y="136"/>
	  <point x="167" y="102" type="curve" smooth="yes"/>
	  <point x="190" y="68"/>
	  <point x="227" y="46"/>
	  <point x="284" y="46" type="curve" smooth="yes"/>
	  <point x="318" y="46"/>
	  <point x="343" y="58"/>
	  <point x="362" y="76" type="curve" smooth="yes"/>
	  <point x="380" y="95"/>
	  <point x="393" y="120"/>
	  <point x="400" y="147" type="curve" smooth="yes"/>
	  <point x="407" y="174"/>
	  <point x="410" y="203"/>
	  <point x="410" y="231" type="curve" smooth="yes"/>
	  <point x="410" y="273"/>
	  <point x="401" y="318"/>
	  <point x="381" y="350" type="curve" smooth="yes"/>
	  <point x="360" y="383"/>
	  <point x="326" y="404"/>
	  <point x="277" y="404" type="curve" smooth="yes"/>
	  <point x="225" y="404"/>
	  <point x="190" y="384"/>
	  <point x="167" y="354" type="curve" smooth="yes"/>
	  <point x="145" y="322"/>
	  <point x="136" y="279"/>
	  <point x="136" y="234" type="curve" smooth="yes"/>
	</contour>
  </outline>
</glyph>
<glyph name="c" format="1">
  <advance width="442"/>
  <unicode hex="0063"/>
  <outline>
    <contour>
      <point x="41" y="289"/>
      <point x="61" y="348"/>
      <point x="97" y="391" type="curve" smooth="yes"/>
      <point x="134" y="434"/>
      <point x="187" y="461"/>
      <point x="256" y="461" type="curve" smooth="yes"/>
      <point x="285" y="461"/>
      <point x="319" y="455"/>
      <point x="347" y="445" type="curve" smooth="yes"/>
      <point x="374" y="435"/>
      <point x="394" y="420"/>
      <point x="394" y="402" type="curve" smooth="yes"/>
      <point x="394" y="388"/>
      <point x="384" y="375"/>
      <point x="369" y="375" type="curve" smooth="yes"/>
      <point x="365" y="375"/>
      <point x="361" y="376"/>
      <point x="356" y="378" type="curve"/>
      <point x="326" y="395"/>
      <point x="295" y="404"/>
      <point x="263" y="404" type="curve" smooth="yes"/>
      <point x="219" y="404"/>
      <point x="183" y="387"/>
      <point x="158" y="356" type="curve" smooth="yes"/>
      <point x="132" y="325"/>
      <point x="118" y="282"/>
      <point x="118" y="227" type="curve" smooth="yes"/>
      <point x="118" y="183"/>
      <point x="126" y="140"/>
      <point x="149" y="104" type="curve" smooth="yes"/>
      <point x="171" y="69"/>
      <point x="209" y="46"/>
      <point x="262" y="46" type="curve" smooth="yes"/>
      <point x="295" y="46"/>
      <point x="328" y="57"/>
      <point x="365" y="76" type="curve"/>
      <point x="369" y="78"/>
      <point x="374" y="79"/>
      <point x="378" y="79" type="curve" smooth="yes"/>
      <point x="392" y="79"/>
      <point x="402" y="67"/>
      <point x="402" y="53" type="curve" smooth="yes"/>
      <point x="402" y="35"/>
      <point x="379" y="18"/>
      <point x="349" y="8" type="curve" smooth="yes"/>
      <point x="320" y="-3"/>
      <point x="282" y="-10"/>
      <point x="252" y="-10" type="curve" smooth="yes"/>
      <point x="183" y="-10"/>
      <point x="131" y="16"/>
      <point x="95" y="60" type="curve" smooth="yes"/>
      <point x="60" y="103"/>
      <point x="41" y="162"/>
      <point x="41" y="226" type="curve" smooth="yes"/>
    </contour>
  </outline>
</glyph>
<glyph name="d" format="1">
  <advance width="529"/>
  <unicode hex="0064"/>
  <outline>
	<contour>
	  <point x="466" y="34" type="line" smooth="yes"/>
	  <point x="466" y="11"/>
	  <point x="448" y="0"/>
	  <point x="430" y="0" type="curve" smooth="yes"/>
	  <point x="421" y="0"/>
	  <point x="412" y="3"/>
	  <point x="405" y="9" type="curve"/>
	  <point x="398" y="14"/>
	  <point x="394" y="22"/>
	  <point x="393" y="33" type="curve"/>
	  <point x="393" y="54" type="line" smooth="yes"/>
	  <point x="393" y="59"/>
	  <point x="393" y="64"/>
	  <point x="393" y="68" type="curve"/>
	  <point x="393" y="75" type="line"/>
	  <point x="351" y="15"/>
	  <point x="297" y="-10"/>
	  <point x="230" y="-10" type="curve" smooth="yes"/>
	  <point x="164" y="-10"/>
	  <point x="116" y="20"/>
	  <point x="86" y="65" type="curve" smooth="yes"/>
	  <point x="56" y="110"/>
	  <point x="41" y="169"/>
	  <point x="41" y="228" type="curve" smooth="yes"/>
	  <point x="41" y="289"/>
	  <point x="56" y="347"/>
	  <point x="86" y="390" type="curve" smooth="yes"/>
	  <point x="117" y="433"/>
	  <point x="165" y="461"/>
	  <point x="233" y="461" type="curve" smooth="yes"/>
	  <point x="263" y="461"/>
	  <point x="296" y="455"/>
	  <point x="324" y="441" type="curve" smooth="yes"/>
	  <point x="352" y="427"/>
	  <point x="377" y="407"/>
	  <point x="393" y="378" type="curve"/>
	  <point x="393" y="615" type="line" smooth="yes"/>
	  <point x="393" y="637"/>
	  <point x="411" y="648"/>
	  <point x="429" y="648" type="curve" smooth="yes"/>
	  <point x="447" y="648"/>
	  <point x="466" y="637"/>
	  <point x="466" y="615" type="curve" smooth="yes"/>
	</contour>
	<contour>
	  <point x="202" y="404"/>
	  <point x="169" y="383"/>
	  <point x="148" y="350" type="curve" smooth="yes"/>
	  <point x="127" y="317"/>
	  <point x="118" y="273"/>
	  <point x="118" y="231" type="curve" smooth="yes"/>
	  <point x="118" y="207"/>
	  <point x="121" y="174"/>
	  <point x="129" y="147" type="curve" smooth="yes"/>
	  <point x="136" y="120"/>
	  <point x="148" y="95"/>
	  <point x="167" y="76" type="curve" smooth="yes"/>
	  <point x="186" y="58"/>
	  <point x="211" y="46"/>
	  <point x="245" y="46" type="curve" smooth="yes"/>
	  <point x="302" y="46"/>
	  <point x="339" y="68"/>
	  <point x="361" y="102" type="curve" smooth="yes"/>
	  <point x="383" y="136"/>
	  <point x="391" y="183"/>
	  <point x="391" y="234" type="curve" smooth="yes"/>
	  <point x="391" y="279"/>
	  <point x="382" y="321"/>
	  <point x="360" y="353" type="curve" smooth="yes"/>
	  <point x="339" y="385"/>
	  <point x="303" y="404"/>
	  <point x="252" y="404" type="curve" smooth="yes"/>
	</contour>
  </outline>
</glyph>
<glyph name="e" format="1">
  <advance width="515"/>
  <unicode hex="0065"/>
  <outline>
	<contour>
	  <point x="474" y="225"/>
	  <point x="466" y="213"/>
	  <point x="445" y="213" type="curve" smooth="yes"/>
	  <point x="119" y="213" type="line"/>
	  <point x="121" y="155"/>
	  <point x="136" y="115"/>
	  <point x="165" y="87" type="curve" smooth="yes"/>
	  <point x="194" y="60"/>
	  <point x="230" y="46"/>
	  <point x="272" y="46" type="curve" smooth="yes"/>
	  <point x="316" y="46"/>
	  <point x="362" y="63"/>
	  <point x="407" y="94" type="curve" smooth="yes"/>
	  <point x="414" y="99"/>
	  <point x="420" y="100"/>
	  <point x="425" y="100" type="curve" smooth="yes"/>
	  <point x="440" y="100"/>
	  <point x="449" y="90"/>
	  <point x="449" y="77" type="curve" smooth="yes"/>
	  <point x="449" y="70"/>
	  <point x="446" y="62"/>
	  <point x="439" y="56" type="curve" smooth="yes"/>
	  <point x="414" y="32"/>
	  <point x="385" y="15"/>
	  <point x="355" y="5" type="curve" smooth="yes"/>
	  <point x="326" y="-5"/>
	  <point x="295" y="-10"/>
	  <point x="266" y="-10" type="curve" smooth="yes"/>
	  <point x="204" y="-10"/>
	  <point x="148" y="12"/>
	  <point x="108" y="53" type="curve" smooth="yes"/>
	  <point x="68" y="93"/>
	  <point x="43" y="153"/>
	  <point x="43" y="226" type="curve" smooth="yes"/>
	  <point x="43" y="288"/>
	  <point x="61" y="347"/>
	  <point x="98" y="390" type="curve" smooth="yes"/>
	  <point x="134" y="434"/>
	  <point x="188" y="461"/>
	  <point x="258" y="461" type="curve" smooth="yes"/>
	  <point x="332" y="461"/>
	  <point x="385" y="437"/>
	  <point x="420" y="398" type="curve" smooth="yes"/>
	  <point x="455" y="358"/>
	  <point x="472" y="303"/>
	  <point x="474" y="239" type="curve" smooth="yes"/>
	</contour>
	<contour>
	  <point x="402" y="261" type="line"/>
	  <point x="399" y="303"/>
	  <point x="386" y="339"/>
	  <point x="363" y="365" type="curve" smooth="yes"/>
	  <point x="339" y="390"/>
	  <point x="305" y="404"/>
	  <point x="259" y="404" type="curve" smooth="yes"/>
	  <point x="220" y="404"/>
	  <point x="187" y="389"/>
	  <point x="163" y="362" type="curve" smooth="yes"/>
	  <point x="139" y="336"/>
	  <point x="124" y="300"/>
	  <point x="121" y="261" type="curve"/>
	</contour>
  </outline>
</glyph>
<glyph name="f" format="1">
  <advance width="317"/>
  <unicode hex="0066"/>
  <outline>
	<contour>
	  <point x="183" y="398" type="line"/>
	  <point x="183" y="36" type="line" smooth="yes"/>
	  <point x="183" y="12"/>
	  <point x="165" y="0"/>
	  <point x="146" y="0" type="curve" smooth="yes"/>
	  <point x="137" y="0"/>
	  <point x="128" y="3"/>
	  <point x="121" y="9" type="curve"/>
	  <point x="115" y="15"/>
	  <point x="110" y="24"/>
	  <point x="110" y="36" type="curve" smooth="yes"/>
	  <point x="110" y="398" type="line"/>
	  <point x="49" y="398" type="line" smooth="yes"/>
	  <point x="29" y="398"/>
	  <point x="20" y="411"/>
	  <point x="20" y="425" type="curve" smooth="yes"/>
	  <point x="20" y="438"/>
	  <point x="29" y="451"/>
	  <point x="49" y="451" type="curve" smooth="yes"/>
	  <point x="110" y="451" type="line"/>
	  <point x="110" y="501" type="line" smooth="yes"/>
	  <point x="110" y="560"/>
	  <point x="121" y="600"/>
	  <point x="141" y="625" type="curve" smooth="yes"/>
	  <point x="161" y="649"/>
	  <point x="189" y="659"/>
	  <point x="224" y="659" type="curve" smooth="yes"/>
	  <point x="247" y="659"/>
	  <point x="272" y="655"/>
	  <point x="297" y="648" type="curve" smooth="yes"/>
	  <point x="310" y="644"/>
	  <point x="315" y="634"/>
	  <point x="315" y="623" type="curve" smooth="yes"/>
	  <point x="315" y="610"/>
	  <point x="307" y="597"/>
	  <point x="291" y="597" type="curve" smooth="yes"/>
	  <point x="280" y="597"/>
	  <point x="273" y="598"/>
	  <point x="265" y="600" type="curve" smooth="yes"/>
	  <point x="258" y="601"/>
	  <point x="250" y="602"/>
	  <point x="241" y="602" type="curve" smooth="yes"/>
	  <point x="215" y="602"/>
	  <point x="201" y="595"/>
	  <point x="193" y="574" type="curve" smooth="yes"/>
	  <point x="185" y="553"/>
	  <point x="183" y="518"/>
	  <point x="183" y="465" type="curve" smooth="yes"/>
	  <point x="183" y="451" type="line"/>
	  <point x="261" y="451" type="line" smooth="yes"/>
	  <point x="281" y="451"/>
	  <point x="290" y="438"/>
	  <point x="290" y="425" type="curve" smooth="yes"/>
	  <point x="290" y="410"/>
	  <point x="281" y="398"/>
	  <point x="261" y="398" type="curve" smooth="yes"/>
	</contour>
  </outline>
</glyph>
<glyph name="g" format="1">
  <advance width="529"/>
  <unicode hex="0067"/>
  <outline>
	<contour>
	  <point x="394" y="268"/>
	  <point x="385" y="313"/>
	  <point x="364" y="348" type="curve" smooth="yes"/>
	  <point x="341" y="382"/>
	  <point x="305" y="404"/>
	  <point x="252" y="404" type="curve" smooth="yes"/>
	  <point x="202" y="404"/>
	  <point x="168" y="385"/>
	  <point x="147" y="354" type="curve" smooth="yes"/>
	  <point x="127" y="322"/>
	  <point x="119" y="277"/>
	  <point x="119" y="226" type="curve" smooth="yes"/>
	  <point x="119" y="165"/>
	  <point x="135" y="123"/>
	  <point x="160" y="95" type="curve" smooth="yes"/>
	  <point x="185" y="66"/>
	  <point x="218" y="52"/>
	  <point x="253" y="52" type="curve" smooth="yes"/>
	  <point x="289" y="52"/>
	  <point x="324" y="67"/>
	  <point x="351" y="96" type="curve" smooth="yes"/>
	  <point x="377" y="125"/>
	  <point x="394" y="169"/>
	  <point x="394" y="224" type="curve" smooth="yes"/>
	</contour>
	<contour>
	  <point x="394" y="89" type="line"/>
	  <point x="378" y="56"/>
	  <point x="354" y="35"/>
	  <point x="327" y="21" type="curve" smooth="yes"/>
	  <point x="300" y="7"/>
	  <point x="270" y="0"/>
	  <point x="240" y="0" type="curve" smooth="yes"/>
	  <point x="170" y="0"/>
	  <point x="120" y="27"/>
	  <point x="88" y="68" type="curve" smooth="yes"/>
	  <point x="55" y="109"/>
	  <point x="40" y="163"/>
	  <point x="40" y="223" type="curve" smooth="yes"/>
	  <point x="40" y="288"/>
	  <point x="56" y="347"/>
	  <point x="87" y="390" type="curve" smooth="yes"/>
	  <point x="119" y="434"/>
	  <point x="167" y="461"/>
	  <point x="233" y="461" type="curve" smooth="yes"/>
	  <point x="268" y="461"/>
	  <point x="299" y="455"/>
	  <point x="327" y="441" type="curve" smooth="yes"/>
	  <point x="354" y="427"/>
	  <point x="379" y="404"/>
	  <point x="397" y="371" type="curve"/>
	  <point x="397" y="420" type="line"/>
	  <point x="399" y="440"/>
	  <point x="415" y="451"/>
	  <point x="431" y="451" type="curve" smooth="yes"/>
	  <point x="449" y="451"/>
	  <point x="465" y="440"/>
	  <point x="465" y="417" type="curve" smooth="yes"/>
	  <point x="465" y="-10" type="line" smooth="yes"/>
	  <point x="465" y="-73"/>
	  <point x="445" y="-119"/>
	  <point x="407" y="-148" type="curve" smooth="yes"/>
	  <point x="370" y="-177"/>
	  <point x="317" y="-191"/>
	  <point x="252" y="-191" type="curve" smooth="yes"/>
	  <point x="210" y="-191"/>
	  <point x="177" y="-186"/>
	  <point x="152" y="-176" type="curve" smooth="yes"/>
	  <point x="126" y="-167"/>
	  <point x="106" y="-154"/>
	  <point x="89" y="-136" type="curve"/>
	  <point x="83" y="-130"/>
	  <point x="80" y="-123"/>
	  <point x="80" y="-116" type="curve" smooth="yes"/>
	  <point x="80" y="-102"/>
	  <point x="92" y="-90"/>
	  <point x="108" y="-90" type="curve" smooth="yes"/>
	  <point x="113" y="-90"/>
	  <point x="118" y="-91"/>
	  <point x="123" y="-94" type="curve"/>
	  <point x="140" y="-103"/>
	  <point x="157" y="-112"/>
	  <point x="177" y="-119" type="curve" smooth="yes"/>
	  <point x="196" y="-126"/>
	  <point x="219" y="-131"/>
	  <point x="248" y="-131" type="curve" smooth="yes"/>
	  <point x="292" y="-131"/>
	  <point x="329" y="-124"/>
	  <point x="354" y="-106" type="curve" smooth="yes"/>
	  <point x="380" y="-88"/>
	  <point x="394" y="-59"/>
	  <point x="394" y="-15" type="curve" smooth="yes"/>
	</contour>
  </outline>
</glyph>
<glyph name="h" format="1">
  <advance width="527"/>
  <unicode hex="0068"/>
  <outline>
	<contour>
	  <point x="384" y="293" type="line" smooth="yes"/>
	  <point x="384" y="331"/>
	  <point x="371" y="360"/>
	  <point x="352" y="378" type="curve" smooth="yes"/>
	  <point x="332" y="396"/>
	  <point x="307" y="404"/>
	  <point x="279" y="404" type="curve" smooth="yes"/>
	  <point x="242" y="404"/>
	  <point x="208" y="393"/>
	  <point x="183" y="369" type="curve" smooth="yes"/>
	  <point x="158" y="346"/>
	  <point x="143" y="311"/>
	  <point x="143" y="262" type="curve" smooth="yes"/>
	  <point x="143" y="35" type="line" smooth="yes"/>
	  <point x="143" y="11"/>
	  <point x="125" y="0"/>
	  <point x="106" y="0" type="curve" smooth="yes"/>
	  <point x="88" y="0"/>
	  <point x="71" y="11"/>
	  <point x="71" y="35" type="curve" smooth="yes"/>
	  <point x="71" y="615" type="line" smooth="yes"/>
	  <point x="71" y="637"/>
	  <point x="89" y="648"/>
	  <point x="107" y="648" type="curve" smooth="yes"/>
	  <point x="126" y="648"/>
	  <point x="143" y="637"/>
	  <point x="143" y="615" type="curve" smooth="yes"/>
	  <point x="143" y="375" type="line"/>
	  <point x="156" y="403"/>
	  <point x="177" y="425"/>
	  <point x="205" y="439" type="curve" smooth="yes"/>
	  <point x="232" y="454"/>
	  <point x="263" y="461"/>
	  <point x="295" y="461" type="curve" smooth="yes"/>
	  <point x="339" y="461"/>
	  <point x="379" y="449"/>
	  <point x="408" y="421" type="curve" smooth="yes"/>
	  <point x="438" y="394"/>
	  <point x="456" y="350"/>
	  <point x="456" y="288" type="curve" smooth="yes"/>
	  <point x="456" y="35" type="line" smooth="yes"/>
	  <point x="456" y="11"/>
	  <point x="438" y="0"/>
	  <point x="420" y="0" type="curve" smooth="yes"/>
	  <point x="401" y="0"/>
	  <point x="384" y="11"/>
	  <point x="384" y="35" type="curve" smooth="yes"/>
	</contour>
  </outline>
</glyph>
<glyph name="i" format="1">
  <advance width="216"/>
  <unicode hex="0069"/>
  <outline>
    <contour>
      <point x="157" y="586"/>
      <point x="139" y="566"/>
      <point x="107" y="566" type="curve" smooth="yes"/>
      <point x="76" y="566"/>
      <point x="58" y="586"/>
      <point x="58" y="608" type="curve" smooth="yes"/>
      <point x="58" y="630"/>
      <point x="76" y="650"/>
      <point x="108" y="650" type="curve" smooth="yes"/>
      <point x="139" y="650"/>
      <point x="157" y="630"/>
      <point x="157" y="608" type="curve" smooth="yes"/>
    </contour>
    <contour>
      <point x="71" y="415" type="line" smooth="yes"/>
      <point x="71" y="439"/>
      <point x="90" y="451"/>
      <point x="108" y="451" type="curve" smooth="yes"/>
      <point x="117" y="451"/>
      <point x="126" y="448"/>
      <point x="133" y="442" type="curve" smooth="yes"/>
      <point x="140" y="436"/>
      <point x="144" y="427"/>
      <point x="144" y="415" type="curve" smooth="yes"/>
      <point x="144" y="37" type="line" smooth="yes"/>
      <point x="144" y="13"/>
      <point x="125" y="0"/>
      <point x="107" y="0" type="curve" smooth="yes"/>
      <point x="89" y="0"/>
      <point x="71" y="11"/>
      <point x="71" y="37" type="curve" smooth="yes"/>
    </contour>
  </outline>
</glyph>
<glyph name="j" format="1">
  <advance width="217"/>
  <unicode hex="006A"/>
  <outline>
    <contour>
      <point x="146" y="-15" type="line" smooth="yes"/>
      <point x="146" y="-71"/>
      <point x="143" y="-110"/>
      <point x="127" y="-135" type="curve" smooth="yes"/>
      <point x="111" y="-159"/>
      <point x="80" y="-170"/>
      <point x="24" y="-170" type="curve" smooth="yes"/>
      <point x="20" y="-170"/>
      <point x="13" y="-169"/>
      <point x="8" y="-167" type="curve"/>
      <point x="5" y="-167"/>
      <point x="3" y="-166"/>
      <point x="1" y="-165" type="curve"/>
      <point x="-1" y="-165"/>
      <point x="-2" y="-164"/>
      <point x="-2" y="-163" type="curve"/>
      <point x="-15" y="-162"/>
      <point x="-21" y="-151"/>
      <point x="-21" y="-140" type="curve" smooth="yes"/>
      <point x="-21" y="-127"/>
      <point x="-13" y="-114"/>
      <point x="3" y="-114" type="curve" smooth="yes"/>
      <point x="35" y="-114"/>
      <point x="52" y="-112"/>
      <point x="62" y="-101" type="curve" smooth="yes"/>
      <point x="71" y="-91"/>
      <point x="72" y="-71"/>
      <point x="72" y="-33" type="curve" smooth="yes"/>
      <point x="72" y="415" type="line" smooth="yes"/>
      <point x="72" y="439"/>
      <point x="91" y="451"/>
      <point x="110" y="451" type="curve" smooth="yes"/>
      <point x="119" y="451"/>
      <point x="127" y="448"/>
      <point x="134" y="442" type="curve" smooth="yes"/>
      <point x="141" y="436"/>
      <point x="146" y="427"/>
      <point x="146" y="415" type="curve" smooth="yes"/>
    </contour>
    <contour>
      <point x="158" y="586"/>
      <point x="140" y="566"/>
      <point x="109" y="566" type="curve" smooth="yes"/>
      <point x="78" y="566"/>
      <point x="60" y="586"/>
      <point x="60" y="608" type="curve" smooth="yes"/>
      <point x="60" y="630"/>
      <point x="78" y="650"/>
      <point x="109" y="650" type="curve" smooth="yes"/>
      <point x="140" y="650"/>
      <point x="158" y="630"/>
      <point x="158" y="608" type="curve" smooth="yes"/>
    </contour>
  </outline>
</glyph>
<glyph name="k" format="1">
  <advance width="451"/>
  <unicode hex="006B"/>
  <outline>
    <contour>
      <point x="148" y="243" type="line"/>
      <point x="148" y="37" type="line" smooth="yes"/>
      <point x="148" y="13"/>
      <point x="130" y="0"/>
      <point x="111" y="0" type="curve" smooth="yes"/>
      <point x="93" y="0"/>
      <point x="76" y="11"/>
      <point x="76" y="37" type="curve" smooth="yes"/>
      <point x="76" y="612" type="line" smooth="yes"/>
      <point x="76" y="636"/>
      <point x="94" y="648"/>
      <point x="112" y="648" type="curve" smooth="yes"/>
      <point x="121" y="648"/>
      <point x="130" y="645"/>
      <point x="137" y="639" type="curve" smooth="yes"/>
      <point x="144" y="633"/>
      <point x="148" y="624"/>
      <point x="148" y="612" type="curve" smooth="yes"/>
      <point x="148" y="268" type="line"/>
      <point x="354" y="440" type="line"/>
      <point x="361" y="447"/>
      <point x="369" y="451"/>
      <point x="377" y="451" type="curve" smooth="yes"/>
      <point x="394" y="451"/>
      <point x="409" y="438"/>
      <point x="409" y="422" type="curve" smooth="yes"/>
      <point x="409" y="415"/>
      <point x="406" y="408"/>
      <point x="399" y="402" type="curve" smooth="yes"/>
      <point x="224" y="256" type="line"/>
      <point x="423" y="51" type="line" smooth="yes"/>
      <point x="428" y="45"/>
      <point x="430" y="38"/>
      <point x="430" y="32" type="curve" smooth="yes"/>
      <point x="430" y="24"/>
      <point x="426" y="15"/>
      <point x="419" y="10" type="curve" smooth="yes"/>
      <point x="412" y="4"/>
      <point x="404" y="0"/>
      <point x="395" y="0" type="curve" smooth="yes"/>
      <point x="387" y="0"/>
      <point x="379" y="4"/>
      <point x="371" y="12" type="curve" smooth="yes"/>
    </contour>
  </outline>
</glyph>
<glyph name="l" format="1">
  <advance width="216"/>
  <unicode hex="006C"/>
  <outline>
	<contour>
	  <point x="71" y="612" type="line" smooth="yes"/>
	  <point x="71" y="636"/>
	  <point x="90" y="648"/>
	  <point x="108" y="648" type="curve" smooth="yes"/>
	  <point x="117" y="648"/>
	  <point x="126" y="645"/>
	  <point x="133" y="639" type="curve" smooth="yes"/>
	  <point x="140" y="633"/>
	  <point x="144" y="624"/>
	  <point x="144" y="612" type="curve" smooth="yes"/>
	  <point x="144" y="37" type="line" smooth="yes"/>
	  <point x="144" y="13"/>
	  <point x="125" y="0"/>
	  <point x="107" y="0" type="curve" smooth="yes"/>
	  <point x="89" y="0"/>
	  <point x="71" y="11"/>
	  <point x="71" y="37" type="curve" smooth="yes"/>
	</contour>
  </outline>
</glyph>
<glyph name="m" format="1">
  <advance width="837"/>
  <unicode hex="006D"/>
  <outline>
	<contour>
	  <point x="695" y="292" type="line" smooth="yes"/>
	  <point x="695" y="332"/>
	  <point x="683" y="360"/>
	  <point x="664" y="378" type="curve" smooth="yes"/>
	  <point x="645" y="396"/>
	  <point x="618" y="404"/>
	  <point x="592" y="404" type="curve" smooth="yes"/>
	  <point x="557" y="404"/>
	  <point x="524" y="395"/>
	  <point x="498" y="373" type="curve" smooth="yes"/>
	  <point x="473" y="351"/>
	  <point x="455" y="316"/>
	  <point x="455" y="263" type="curve" smooth="yes"/>
	  <point x="455" y="35" type="line" smooth="yes"/>
	  <point x="455" y="11"/>
	  <point x="437" y="0"/>
	  <point x="419" y="0" type="curve" smooth="yes"/>
	  <point x="400" y="0"/>
	  <point x="383" y="11"/>
	  <point x="383" y="35" type="curve" smooth="yes"/>
	  <point x="383" y="292" type="line" smooth="yes"/>
	  <point x="383" y="332"/>
	  <point x="370" y="360"/>
	  <point x="351" y="378" type="curve" smooth="yes"/>
	  <point x="332" y="396"/>
	  <point x="306" y="404"/>
	  <point x="279" y="404" type="curve" smooth="yes"/>
	  <point x="241" y="404"/>
	  <point x="208" y="393"/>
	  <point x="183" y="369" type="curve" smooth="yes"/>
	  <point x="159" y="346"/>
	  <point x="143" y="311"/>
	  <point x="143" y="262" type="curve" smooth="yes"/>
	  <point x="143" y="34" type="line" smooth="yes"/>
	  <point x="143" y="11"/>
	  <point x="125" y="0"/>
	  <point x="106" y="0" type="curve" smooth="yes"/>
	  <point x="88" y="0"/>
	  <point x="70" y="11"/>
	  <point x="70" y="34" type="curve" smooth="yes"/>
	  <point x="70" y="418" type="line" smooth="yes"/>
	  <point x="70" y="440"/>
	  <point x="89" y="451"/>
	  <point x="107" y="451" type="curve" smooth="yes"/>
	  <point x="116" y="451"/>
	  <point x="125" y="448"/>
	  <point x="131" y="443" type="curve"/>
	  <point x="138" y="438"/>
	  <point x="143" y="430"/>
	  <point x="143" y="419" type="curve" smooth="yes"/>
	  <point x="143" y="376" type="line"/>
	  <point x="156" y="404"/>
	  <point x="177" y="425"/>
	  <point x="204" y="440" type="curve" smooth="yes"/>
	  <point x="231" y="454"/>
	  <point x="263" y="461"/>
	  <point x="294" y="461" type="curve" smooth="yes"/>
	  <point x="327" y="461"/>
	  <point x="359" y="455"/>
	  <point x="384" y="439" type="curve" smooth="yes"/>
	  <point x="410" y="424"/>
	  <point x="431" y="399"/>
	  <point x="444" y="365" type="curve"/>
	  <point x="466" y="403"/>
	  <point x="492" y="427"/>
	  <point x="520" y="441" type="curve" smooth="yes"/>
	  <point x="548" y="456"/>
	  <point x="578" y="461"/>
	  <point x="607" y="461" type="curve" smooth="yes"/>
	  <point x="651" y="461"/>
	  <point x="691" y="449"/>
	  <point x="720" y="421" type="curve" smooth="yes"/>
	  <point x="749" y="394"/>
	  <point x="768" y="350"/>
	  <point x="768" y="288" type="curve" smooth="yes"/>
	  <point x="768" y="34" type="line" smooth="yes"/>
	  <point x="768" y="11"/>
	  <point x="749" y="0"/>
	  <point x="731" y="0" type="curve" smooth="yes"/>
	  <point x="713" y="0"/>
	  <point x="695" y="11"/>
	  <point x="695" y="34" type="curve" smooth="yes"/>
	</contour>
  </outline>
</glyph>
<glyph name="n" format="1">
  <advance width="527"/>
  <unicode hex="006E"/>
  <outline>
	<contour>
	  <point x="71" y="417" type="line" smooth="yes"/>
	  <point x="71" y="439"/>
	  <point x="89" y="450"/>
	  <point x="107" y="450" type="curve" smooth="yes"/>
	  <point x="140" y="450"/>
	  <point x="148" y="427"/>
	  <point x="143" y="376" type="curve"/>
	  <point x="156" y="403"/>
	  <point x="177" y="422"/>
	  <point x="205" y="437" type="curve" smooth="yes"/>
	  <point x="232" y="452"/>
	  <point x="263" y="461"/>
	  <point x="295" y="461" type="curve" smooth="yes"/>
	  <point x="339" y="461"/>
	  <point x="379" y="448"/>
	  <point x="408" y="420" type="curve" smooth="yes"/>
	  <point x="438" y="391"/>
	  <point x="456" y="347"/>
	  <point x="456" y="285" type="curve" smooth="yes"/>
	  <point x="456" y="35" type="line" smooth="yes"/>
	  <point x="456" y="11"/>
	  <point x="438" y="0"/>
	  <point x="420" y="0" type="curve" smooth="yes"/>
	  <point x="401" y="0"/>
	  <point x="384" y="11"/>
	  <point x="384" y="35" type="curve" smooth="yes"/>
	  <point x="384" y="291" type="line" smooth="yes"/>
	  <point x="384" y="330"/>
	  <point x="371" y="358"/>
	  <point x="352" y="377" type="curve" smooth="yes"/>
	  <point x="332" y="396"/>
	  <point x="307" y="404"/>
	  <point x="279" y="404" type="curve" smooth="yes"/>
	  <point x="242" y="404"/>
	  <point x="208" y="392"/>
	  <point x="183" y="370" type="curve" smooth="yes"/>
	  <point x="158" y="348"/>
	  <point x="143" y="311"/>
	  <point x="143" y="262" type="curve" smooth="yes"/>
	  <point x="143" y="35" type="line" smooth="yes"/>
	  <point x="143" y="11"/>
	  <point x="125" y="0"/>
	  <point x="106" y="0" type="curve" smooth="yes"/>
	  <point x="88" y="0"/>
	  <point x="71" y="11"/>
	  <point x="71" y="35" type="curve" smooth="yes"/>
	</contour>
  </outline>
</glyph>
<glyph name="o" format="1">
  <advance width="529"/>
  <unicode hex="006F"/>
  <outline>
	<contour>
	  <point x="39" y="282"/>
	  <point x="57" y="343"/>
	  <point x="94" y="387" type="curve" smooth="yes"/>
	  <point x="131" y="432"/>
	  <point x="187" y="461"/>
	  <point x="264" y="461" type="curve" smooth="yes"/>
	  <point x="340" y="461"/>
	  <point x="397" y="432"/>
	  <point x="434" y="387" type="curve" smooth="yes"/>
	  <point x="471" y="343"/>
	  <point x="489" y="282"/>
	  <point x="489" y="226" type="curve" smooth="yes"/>
	  <point x="489" y="169"/>
	  <point x="471" y="109"/>
	  <point x="434" y="64" type="curve" smooth="yes"/>
	  <point x="397" y="20"/>
	  <point x="340" y="-10"/>
	  <point x="264" y="-10" type="curve" smooth="yes"/>
	  <point x="187" y="-10"/>
	  <point x="131" y="20"/>
	  <point x="94" y="64" type="curve" smooth="yes"/>
	  <point x="57" y="109"/>
	  <point x="39" y="169"/>
	  <point x="39" y="226" type="curve" smooth="yes"/>
	</contour>
	<contour>
	  <point x="117" y="187"/>
	  <point x="127" y="141"/>
	  <point x="151" y="106" type="curve" smooth="yes"/>
	  <point x="175" y="71"/>
	  <point x="212" y="46"/>
	  <point x="264" y="46" type="curve" smooth="yes"/>
	  <point x="317" y="46"/>
	  <point x="354" y="71"/>
	  <point x="377" y="106" type="curve" smooth="yes"/>
	  <point x="400" y="141"/>
	  <point x="411" y="187"/>
	  <point x="411" y="226" type="curve" smooth="yes"/>
	  <point x="411" y="263"/>
	  <point x="400" y="310"/>
	  <point x="377" y="345" type="curve" smooth="yes"/>
	  <point x="354" y="380"/>
	  <point x="317" y="404"/>
	  <point x="264" y="404" type="curve" smooth="yes"/>
	  <point x="212" y="404"/>
	  <point x="175" y="380"/>
	  <point x="151" y="345" type="curve" smooth="yes"/>
	  <point x="127" y="310"/>
	  <point x="117" y="263"/>
	  <point x="117" y="226" type="curve" smooth="yes"/>
	</contour>
  </outline>
</glyph>
<glyph name="p" format="1">
  <advance width="529"/>
  <unicode hex="0070"/>
  <outline>
	<contour>
	  <point x="152" y="404"/>
	  <point x="176" y="426"/>
	  <point x="204" y="440" type="curve" smooth="yes"/>
	  <point x="233" y="455"/>
	  <point x="265" y="461"/>
	  <point x="299" y="461" type="curve" smooth="yes"/>
	  <point x="365" y="461"/>
	  <point x="412" y="431"/>
	  <point x="443" y="387" type="curve" smooth="yes"/>
	  <point x="473" y="343"/>
	  <point x="487" y="283"/>
	  <point x="487" y="223" type="curve" smooth="yes"/>
	  <point x="487" y="163"/>
	  <point x="472" y="104"/>
	  <point x="441" y="61" type="curve" smooth="yes"/>
	  <point x="410" y="18"/>
	  <point x="362" y="-10"/>
	  <point x="296" y="-10" type="curve" smooth="yes"/>
	  <point x="265" y="-10"/>
	  <point x="233" y="-3"/>
	  <point x="206" y="11" type="curve" smooth="yes"/>
	  <point x="178" y="25"/>
	  <point x="153" y="47"/>
	  <point x="136" y="75" type="curve"/>
	  <point x="136" y="-139" type="line" smooth="yes"/>
	  <point x="136" y="-161"/>
	  <point x="117" y="-172"/>
	  <point x="99" y="-172" type="curve" smooth="yes"/>
	  <point x="81" y="-172"/>
	  <point x="63" y="-161"/>
	  <point x="63" y="-139" type="curve" smooth="yes"/>
	  <point x="63" y="417" type="line" smooth="yes"/>
	  <point x="63" y="440"/>
	  <point x="81" y="450"/>
	  <point x="99" y="450" type="curve" smooth="yes"/>
	  <point x="131" y="450"/>
	  <point x="141" y="426"/>
	  <point x="136" y="375" type="curve"/>
	</contour>
	<contour>
	  <point x="136" y="178"/>
	  <point x="147" y="134"/>
	  <point x="169" y="101" type="curve" smooth="yes"/>
	  <point x="192" y="68"/>
	  <point x="228" y="46"/>
	  <point x="279" y="46" type="curve" smooth="yes"/>
	  <point x="313" y="46"/>
	  <point x="339" y="57"/>
	  <point x="359" y="74" type="curve" smooth="yes"/>
	  <point x="378" y="91"/>
	  <point x="391" y="115"/>
	  <point x="399" y="142" type="curve" smooth="yes"/>
	  <point x="407" y="168"/>
	  <point x="410" y="202"/>
	  <point x="410" y="226" type="curve" smooth="yes"/>
	  <point x="410" y="267"/>
	  <point x="403" y="311"/>
	  <point x="384" y="346" type="curve" smooth="yes"/>
	  <point x="364" y="380"/>
	  <point x="331" y="404"/>
	  <point x="280" y="404" type="curve" smooth="yes"/>
	  <point x="223" y="404"/>
	  <point x="187" y="384"/>
	  <point x="166" y="352" type="curve" smooth="yes"/>
	  <point x="144" y="319"/>
	  <point x="136" y="275"/>
	  <point x="136" y="224" type="curve" smooth="yes"/>
	</contour>
  </outline>
</glyph>
<glyph name="q" format="1">
  <advance width="529"/>
  <unicode hex="0071"/>
  <outline>
	<contour>
	  <point x="395" y="384"/>
	  <point x="395" y="392"/>
	  <point x="395" y="397" type="curve"/>
	  <point x="395" y="408"/>
	  <point x="393" y="432"/>
	  <point x="407" y="443" type="curve"/>
	  <point x="415" y="448"/>
	  <point x="422" y="451"/>
	  <point x="431" y="451" type="curve" smooth="yes"/>
	  <point x="449" y="451"/>
	  <point x="465" y="440"/>
	  <point x="465" y="417" type="curve" smooth="yes"/>
	  <point x="465" y="-138" type="line" smooth="yes"/>
	  <point x="465" y="-160"/>
	  <point x="447" y="-172"/>
	  <point x="429" y="-172" type="curve" smooth="yes"/>
	  <point x="410" y="-172"/>
	  <point x="393" y="-161"/>
	  <point x="393" y="-138" type="curve" smooth="yes"/>
	  <point x="393" y="75" type="line"/>
	  <point x="375" y="47"/>
	  <point x="350" y="25"/>
	  <point x="323" y="11" type="curve" smooth="yes"/>
	  <point x="295" y="-3"/>
	  <point x="263" y="-10"/>
	  <point x="232" y="-10" type="curve" smooth="yes"/>
	  <point x="167" y="-10"/>
	  <point x="118" y="18"/>
	  <point x="87" y="61" type="curve" smooth="yes"/>
	  <point x="56" y="104"/>
	  <point x="41" y="163"/>
	  <point x="41" y="223" type="curve" smooth="yes"/>
	  <point x="41" y="283"/>
	  <point x="55" y="343"/>
	  <point x="86" y="387" type="curve" smooth="yes"/>
	  <point x="116" y="431"/>
	  <point x="163" y="461"/>
	  <point x="229" y="461" type="curve" smooth="yes"/>
	  <point x="263" y="461"/>
	  <point x="296" y="455"/>
	  <point x="325" y="440" type="curve" smooth="yes"/>
	  <point x="354" y="426"/>
	  <point x="379" y="404"/>
	  <point x="395" y="375" type="curve"/>
	</contour>
	<contour>
	  <point x="392" y="275"/>
	  <point x="384" y="319"/>
	  <point x="363" y="352" type="curve" smooth="yes"/>
	  <point x="341" y="384"/>
	  <point x="305" y="404"/>
	  <point x="248" y="404" type="curve" smooth="yes"/>
	  <point x="197" y="404"/>
	  <point x="165" y="380"/>
	  <point x="145" y="346" type="curve" smooth="yes"/>
	  <point x="125" y="311"/>
	  <point x="118" y="267"/>
	  <point x="118" y="226" type="curve" smooth="yes"/>
	  <point x="118" y="184"/>
	  <point x="125" y="138"/>
	  <point x="145" y="104" type="curve" smooth="yes"/>
	  <point x="165" y="70"/>
	  <point x="198" y="46"/>
	  <point x="249" y="46" type="curve" smooth="yes"/>
	  <point x="300" y="46"/>
	  <point x="336" y="68"/>
	  <point x="359" y="101" type="curve" smooth="yes"/>
	  <point x="382" y="133"/>
	  <point x="392" y="179"/>
	  <point x="392" y="224" type="curve" smooth="yes"/>
	</contour>
  </outline>
</glyph>
<glyph name="r" format="1">
  <advance width="323"/>
  <unicode hex="0072"/>
  <outline>
	<contour>
	  <point x="71" y="416" type="line" smooth="yes"/>
	  <point x="71" y="438"/>
	  <point x="87" y="451"/>
	  <point x="109" y="451" type="curve" smooth="yes"/>
	  <point x="131" y="451"/>
	  <point x="143" y="438"/>
	  <point x="143" y="416" type="curve" smooth="yes"/>
	  <point x="143" y="376" type="line"/>
	  <point x="152" y="402"/>
	  <point x="166" y="424"/>
	  <point x="186" y="438" type="curve" smooth="yes"/>
	  <point x="206" y="453"/>
	  <point x="233" y="461"/>
	  <point x="268" y="461" type="curve" smooth="yes"/>
	  <point x="292" y="461"/>
	  <point x="304" y="445"/>
	  <point x="304" y="429" type="curve" smooth="yes"/>
	  <point x="304" y="414"/>
	  <point x="293" y="398"/>
	  <point x="267" y="398" type="curve" smooth="yes"/>
	  <point x="228" y="398"/>
	  <point x="197" y="384"/>
	  <point x="176" y="360" type="curve" smooth="yes"/>
	  <point x="155" y="336"/>
	  <point x="143" y="301"/>
	  <point x="143" y="257" type="curve" smooth="yes"/>
	  <point x="143" y="34" type="line" smooth="yes"/>
	  <point x="143" y="11"/>
	  <point x="125" y="0"/>
	  <point x="106" y="0" type="curve" smooth="yes"/>
	  <point x="97" y="0"/>
	  <point x="88" y="3"/>
	  <point x="81" y="8" type="curve" smooth="yes"/>
	  <point x="75" y="14"/>
	  <point x="71" y="22"/>
	  <point x="71" y="34" type="curve" smooth="yes"/>
	</contour>
  </outline>
</glyph>
<glyph name="u" format="1">
  <advance width="527"/>
  <unicode hex="0075"/>
  <outline>
	<contour>
	  <point x="456" y="34" type="line" smooth="yes"/>
	  <point x="456" y="11"/>
	  <point x="438" y="0"/>
	  <point x="420" y="0" type="curve" smooth="yes"/>
	  <point x="410" y="0"/>
	  <point x="402" y="3"/>
	  <point x="395" y="8" type="curve" smooth="yes"/>
	  <point x="388" y="14"/>
	  <point x="384" y="22"/>
	  <point x="384" y="33" type="curve" smooth="yes"/>
	  <point x="384" y="75" type="line"/>
	  <point x="371" y="48"/>
	  <point x="349" y="26"/>
	  <point x="322" y="12" type="curve" smooth="yes"/>
	  <point x="295" y="-3"/>
	  <point x="263" y="-10"/>
	  <point x="232" y="-10" type="curve" smooth="yes"/>
	  <point x="188" y="-10"/>
	  <point x="148" y="3"/>
	  <point x="119" y="31" type="curve" smooth="yes"/>
	  <point x="89" y="60"/>
	  <point x="71" y="104"/>
	  <point x="71" y="166" type="curve" smooth="yes"/>
	  <point x="71" y="417" type="line" smooth="yes"/>
	  <point x="71" y="440"/>
	  <point x="89" y="451"/>
	  <point x="107" y="451" type="curve" smooth="yes"/>
	  <point x="125" y="451"/>
	  <point x="143" y="440"/>
	  <point x="143" y="417" type="curve" smooth="yes"/>
	  <point x="143" y="161" type="line" smooth="yes"/>
	  <point x="143" y="121"/>
	  <point x="150" y="91"/>
	  <point x="169" y="72" type="curve" smooth="yes"/>
	  <point x="187" y="53"/>
	  <point x="215" y="46"/>
	  <point x="248" y="46" type="curve" smooth="yes"/>
	  <point x="283" y="46"/>
	  <point x="316" y="56"/>
	  <point x="340" y="78" type="curve" smooth="yes"/>
	  <point x="364" y="99"/>
	  <point x="380" y="131"/>
	  <point x="384" y="176" type="curve"/>
	  <point x="384" y="417" type="line" smooth="yes"/>
	  <point x="384" y="439"/>
	  <point x="402" y="451"/>
	  <point x="420" y="451" type="curve" smooth="yes"/>
	  <point x="439" y="451"/>
	  <point x="456" y="440"/>
	  <point x="456" y="417" type="curve" smooth="yes"/>
	</contour>
  </outline>
</glyph>
<glyph name="v" format="1">
  <advance width="467"/>
  <unicode hex="0076"/>
  <outline>
    <contour>
      <point x="300" y="55" type="line" smooth="yes"/>
      <point x="284" y="16"/>
      <point x="268" y="0"/>
      <point x="236" y="0" type="curve" smooth="yes"/>
      <point x="204" y="0"/>
      <point x="188" y="16"/>
      <point x="172" y="55" type="curve" smooth="yes"/>
      <point x="26" y="405" type="line" smooth="yes"/>
      <point x="24" y="410"/>
      <point x="23" y="414"/>
      <point x="23" y="418" type="curve" smooth="yes"/>
      <point x="23" y="428"/>
      <point x="28" y="436"/>
      <point x="35" y="442" type="curve"/>
      <point x="42" y="447"/>
      <point x="52" y="451"/>
      <point x="61" y="451" type="curve" smooth="yes"/>
      <point x="74" y="451"/>
      <point x="87" y="444"/>
      <point x="93" y="428" type="curve"/>
      <point x="236" y="84" type="line"/>
      <point x="373" y="428" type="line" smooth="yes"/>
      <point x="379" y="444"/>
      <point x="392" y="451"/>
      <point x="406" y="451" type="curve" smooth="yes"/>
      <point x="415" y="451"/>
      <point x="425" y="448"/>
      <point x="432" y="442" type="curve"/>
      <point x="439" y="436"/>
      <point x="444" y="428"/>
      <point x="444" y="419" type="curve" smooth="yes"/>
      <point x="444" y="414"/>
      <point x="443" y="410"/>
      <point x="441" y="405" type="curve" smooth="yes"/>
    </contour>
  </outline>
</glyph>
<glyph name="w" format="1">
  <advance width="782"/>
  <unicode hex="0077"/>
  <outline>
	<contour>
	  <point x="393" y="382" type="line"/>
	  <point x="266" y="40" type="line"/>
	  <point x="257" y="9"/>
	  <point x="236" y="0"/>
	  <point x="215" y="0" type="curve" smooth="yes"/>
	  <point x="195" y="0"/>
	  <point x="176" y="9"/>
	  <point x="167" y="37" type="curve"/>
	  <point x="30" y="403" type="line"/>
	  <point x="29" y="408"/>
	  <point x="28" y="413"/>
	  <point x="28" y="416" type="curve" smooth="yes"/>
	  <point x="28" y="426"/>
	  <point x="32" y="435"/>
	  <point x="39" y="441" type="curve" smooth="yes"/>
	  <point x="46" y="447"/>
	  <point x="55" y="451"/>
	  <point x="64" y="451" type="curve" smooth="yes"/>
	  <point x="78" y="451"/>
	  <point x="91" y="444"/>
	  <point x="96" y="426" type="curve"/>
	  <point x="220" y="79" type="line"/>
	  <point x="344" y="415" type="line" smooth="yes"/>
	  <point x="353" y="442"/>
	  <point x="372" y="451"/>
	  <point x="395" y="451" type="curve" smooth="yes"/>
	  <point x="419" y="451"/>
	  <point x="438" y="442"/>
	  <point x="447" y="415" type="curve" smooth="yes"/>
	  <point x="566" y="82" type="line"/>
	  <point x="686" y="426" type="line" smooth="yes"/>
	  <point x="692" y="443"/>
	  <point x="705" y="451"/>
	  <point x="719" y="451" type="curve" smooth="yes"/>
	  <point x="738" y="451"/>
	  <point x="754" y="437"/>
	  <point x="754" y="417" type="curve" smooth="yes"/>
	  <point x="754" y="413"/>
	  <point x="753" y="409"/>
	  <point x="752" y="403" type="curve"/>
	  <point x="613" y="37" type="line"/>
	  <point x="604" y="10"/>
	  <point x="586" y="0"/>
	  <point x="566" y="0" type="curve" smooth="yes"/>
	  <point x="555" y="0"/>
	  <point x="546" y="2"/>
	  <point x="537" y="8" type="curve" smooth="yes"/>
	  <point x="529" y="14"/>
	  <point x="521" y="24"/>
	  <point x="517" y="40" type="curve"/>
	</contour>
  </outline>
</glyph>
<glyph name="x" format="1">
  <advance width="470"/>
  <unicode hex="0078"/>
  <outline>
    <contour>
      <point x="189" y="231" type="line"/>
      <point x="58" y="395" type="line" smooth="yes"/>
      <point x="53" y="402"/>
      <point x="51" y="409"/>
      <point x="51" y="415" type="curve" smooth="yes"/>
      <point x="51" y="425"/>
      <point x="56" y="434"/>
      <point x="63" y="440" type="curve" smooth="yes"/>
      <point x="70" y="447"/>
      <point x="80" y="451"/>
      <point x="90" y="451" type="curve" smooth="yes"/>
      <point x="100" y="451"/>
      <point x="110" y="446"/>
      <point x="119" y="435" type="curve" smooth="yes"/>
      <point x="239" y="277" type="line"/>
      <point x="363" y="437" type="line" smooth="yes"/>
      <point x="370" y="447"/>
      <point x="379" y="451"/>
      <point x="388" y="451" type="curve" smooth="yes"/>
      <point x="405" y="451"/>
      <point x="421" y="437"/>
      <point x="421" y="420" type="curve" smooth="yes"/>
      <point x="421" y="414"/>
      <point x="419" y="408"/>
      <point x="414" y="402" type="curve" smooth="yes"/>
      <point x="283" y="233" type="line"/>
      <point x="423" y="55" type="line" smooth="yes"/>
      <point x="428" y="49"/>
      <point x="430" y="42"/>
      <point x="430" y="35" type="curve" smooth="yes"/>
      <point x="430" y="26"/>
      <point x="426" y="17"/>
      <point x="419" y="11" type="curve" smooth="yes"/>
      <point x="411" y="5"/>
      <point x="401" y="0"/>
      <point x="392" y="0" type="curve" smooth="yes"/>
      <point x="381" y="0"/>
      <point x="371" y="5"/>
      <point x="363" y="15" type="curve" smooth="yes"/>
      <point x="231" y="188" type="line"/>
      <point x="99" y="13" type="line" smooth="yes"/>
      <point x="92" y="5"/>
      <point x="84" y="0"/>
      <point x="74" y="0" type="curve" smooth="yes"/>
      <point x="65" y="0"/>
      <point x="56" y="4"/>
      <point x="50" y="10" type="curve"/>
      <point x="43" y="15"/>
      <point x="39" y="24"/>
      <point x="39" y="32" type="curve" smooth="yes"/>
      <point x="39" y="38"/>
      <point x="41" y="44"/>
      <point x="45" y="49" type="curve" smooth="yes"/>
    </contour>
  </outline>
</glyph>
<glyph name="y" format="1">
  <advance width="468"/>
  <unicode hex="0079"/>
  <outline>
	<contour>
	  <point x="201" y="5" type="line"/>
	  <point x="25" y="404" type="line"/>
	  <point x="23" y="408"/>
	  <point x="22" y="412"/>
	  <point x="22" y="417" type="curve" smooth="yes"/>
	  <point x="22" y="426"/>
	  <point x="27" y="435"/>
	  <point x="35" y="441" type="curve" smooth="yes"/>
	  <point x="42" y="447"/>
	  <point x="52" y="451"/>
	  <point x="62" y="451" type="curve" smooth="yes"/>
	  <point x="76" y="451"/>
	  <point x="89" y="444"/>
	  <point x="96" y="428" type="curve" smooth="yes"/>
	  <point x="237" y="86" type="line"/>
	  <point x="378" y="429" type="line" smooth="yes"/>
	  <point x="384" y="445"/>
	  <point x="396" y="451"/>
	  <point x="409" y="451" type="curve"/>
	  <point x="427" y="451"/>
	  <point x="445" y="438"/>
	  <point x="445" y="418" type="curve" smooth="yes"/>
	  <point x="445" y="413"/>
	  <point x="445" y="409"/>
	  <point x="443" y="404" type="curve" smooth="yes"/>
	  <point x="214" y="-152" type="line" smooth="yes"/>
	  <point x="207" y="-170"/>
	  <point x="194" y="-177"/>
	  <point x="180" y="-177" type="curve" smooth="yes"/>
	  <point x="171" y="-177"/>
	  <point x="162" y="-173"/>
	  <point x="155" y="-167" type="curve"/>
	  <point x="147" y="-162"/>
	  <point x="143" y="-153"/>
	  <point x="143" y="-143" type="curve" smooth="yes"/>
	  <point x="143" y="-139"/>
	  <point x="144" y="-134"/>
	  <point x="146" y="-130" type="curve" smooth="yes"/>
	</contour>
  </outline>
</glyph>
<glyph name="z" format="1">
  <advance width="424"/>
  <unicode hex="007A"/>
  <outline>
    <contour>
      <point x="358" y="60" type="line" smooth="yes"/>
      <point x="378" y="60"/>
      <point x="388" y="45"/>
      <point x="388" y="30" type="curve" smooth="yes"/>
      <point x="388" y="15"/>
      <point x="378" y="0"/>
      <point x="358" y="0" type="curve" smooth="yes"/>
      <point x="75" y="0" type="line" smooth="yes"/>
      <point x="50" y="0"/>
      <point x="35" y="15"/>
      <point x="35" y="35" type="curve" smooth="yes"/>
      <point x="35" y="44"/>
      <point x="38" y="54"/>
      <point x="46" y="64" type="curve" smooth="yes"/>
      <point x="301" y="391" type="line"/>
      <point x="71" y="391" type="line" smooth="yes"/>
      <point x="51" y="391"/>
      <point x="41" y="406"/>
      <point x="41" y="421" type="curve" smooth="yes"/>
      <point x="41" y="436"/>
      <point x="51" y="451"/>
      <point x="71" y="451" type="curve" smooth="yes"/>
      <point x="350" y="451" type="line" smooth="yes"/>
      <point x="377" y="451"/>
      <point x="392" y="436"/>
      <point x="392" y="417" type="curve" smooth="yes"/>
      <point x="392" y="408"/>
      <point x="389" y="398"/>
      <point x="381" y="387" type="curve" smooth="yes"/>
      <point x="128" y="60" type="line"/>
    </contour>
  </outline>
</glyph>
<glyph name="braceleft" format="1">
  <advance width="278"/>
  <unicode hex="007B"/>
  <outline>
    <contour>
      <point x="244" y="-37" type="line" smooth="yes"/>
      <point x="262" y="-37"/>
      <point x="270" y="-51"/>
      <point x="270" y="-66" type="curve" smooth="yes"/>
      <point x="270" y="-80"/>
      <point x="262" y="-94"/>
      <point x="244" y="-94" type="curve" smooth="yes"/>
      <point x="191" y="-94" type="line" smooth="yes"/>
      <point x="169" y="-94"/>
      <point x="148" y="-84"/>
      <point x="131" y="-66" type="curve" smooth="yes"/>
      <point x="115" y="-47"/>
      <point x="104" y="-21"/>
      <point x="104" y="10" type="curve" smooth="yes"/>
      <point x="104" y="145" type="line" smooth="yes"/>
      <point x="104" y="178"/>
      <point x="101" y="205"/>
      <point x="92" y="224" type="curve" smooth="yes"/>
      <point x="82" y="243"/>
      <point x="66" y="254"/>
      <point x="38" y="258" type="curve"/>
      <point x="17" y="258"/>
      <point x="7" y="273"/>
      <point x="7" y="288" type="curve" smooth="yes"/>
      <point x="7" y="304"/>
      <point x="17" y="319"/>
      <point x="38" y="319" type="curve"/>
      <point x="66" y="322"/>
      <point x="82" y="334"/>
      <point x="92" y="353" type="curve" smooth="yes"/>
      <point x="101" y="373"/>
      <point x="104" y="400"/>
      <point x="104" y="433" type="curve" smooth="yes"/>
      <point x="104" y="570" type="line" smooth="yes"/>
      <point x="104" y="601"/>
      <point x="115" y="626"/>
      <point x="131" y="644" type="curve" smooth="yes"/>
      <point x="148" y="662"/>
      <point x="169" y="673"/>
      <point x="191" y="673" type="curve" smooth="yes"/>
      <point x="244" y="673" type="line" smooth="yes"/>
      <point x="262" y="673"/>
      <point x="270" y="658"/>
      <point x="270" y="644" type="curve" smooth="yes"/>
      <point x="270" y="630"/>
      <point x="262" y="616"/>
      <point x="244" y="616" type="curve" smooth="yes"/>
      <point x="216" y="616" type="line" smooth="yes"/>
      <point x="190" y="616"/>
      <point x="178" y="591"/>
      <point x="178" y="547" type="curve" smooth="yes"/>
      <point x="178" y="416" type="line" smooth="yes"/>
      <point x="178" y="372"/>
      <point x="165" y="344"/>
      <point x="150" y="324" type="curve" smooth="yes"/>
      <point x="142" y="314"/>
      <point x="135" y="306"/>
      <point x="128" y="301" type="curve" smooth="yes"/>
      <point x="121" y="296"/>
      <point x="116" y="292"/>
      <point x="113" y="288" type="curve"/>
      <point x="116" y="287"/>
      <point x="121" y="283"/>
      <point x="128" y="278" type="curve"/>
      <point x="142" y="268"/>
      <point x="158" y="248"/>
      <point x="170" y="217" type="curve" smooth="yes"/>
      <point x="175" y="202"/>
      <point x="178" y="183"/>
      <point x="178" y="162" type="curve" smooth="yes"/>
      <point x="178" y="32" type="line" smooth="yes"/>
      <point x="178" y="-12"/>
      <point x="190" y="-37"/>
      <point x="216" y="-37" type="curve" smooth="yes"/>
    </contour>
  </outline>
</glyph>
<glyph name="bar" format="1">
  <advance width="207"/>
  <unicode hex="007C"/>
  <outline>
	<contour>
	  <point x="72" y="641" type="line" smooth="yes"/>
	  <point x="72" y="662"/>
	  <point x="88" y="672"/>
	  <point x="104" y="672" type="curve" smooth="yes"/>
	  <point x="120" y="672"/>
	  <point x="135" y="662"/>
	  <point x="135" y="641" type="curve" smooth="yes"/>
	  <point x="135" y="-172" type="line" smooth="yes"/>
	  <point x="135" y="-193"/>
	  <point x="119" y="-203"/>
	  <point x="103" y="-203" type="curve" smooth="yes"/>
	  <point x="87" y="-203"/>
	  <point x="72" y="-193"/>
	  <point x="72" y="-172" type="curve" smooth="yes"/>
	</contour>
  </outline>
</glyph>
<glyph name="braceright" format="1">
  <advance width="278"/>
  <unicode hex="007D"/>
  <outline>
    <contour>
      <point x="61" y="-37" type="line" smooth="yes"/>
      <point x="87" y="-37"/>
      <point x="99" y="-12"/>
      <point x="99" y="32" type="curve" smooth="yes"/>
      <point x="99" y="162" type="line" smooth="yes"/>
      <point x="99" y="205"/>
      <point x="112" y="235"/>
      <point x="127" y="255" type="curve" smooth="yes"/>
      <point x="135" y="265"/>
      <point x="142" y="273"/>
      <point x="149" y="278" type="curve" smooth="yes"/>
      <point x="156" y="283"/>
      <point x="161" y="287"/>
      <point x="164" y="288" type="curve"/>
      <point x="161" y="291"/>
      <point x="156" y="295"/>
      <point x="149" y="301" type="curve"/>
      <point x="135" y="311"/>
      <point x="119" y="331"/>
      <point x="108" y="361" type="curve" smooth="yes"/>
      <point x="102" y="376"/>
      <point x="99" y="394"/>
      <point x="99" y="416" type="curve" smooth="yes"/>
      <point x="99" y="547" type="line" smooth="yes"/>
      <point x="99" y="591"/>
      <point x="87" y="616"/>
      <point x="61" y="616" type="curve" smooth="yes"/>
      <point x="33" y="616" type="line" smooth="yes"/>
      <point x="15" y="616"/>
      <point x="7" y="630"/>
      <point x="7" y="644" type="curve" smooth="yes"/>
      <point x="7" y="658"/>
      <point x="15" y="673"/>
      <point x="33" y="673" type="curve" smooth="yes"/>
      <point x="86" y="673" type="line" smooth="yes"/>
      <point x="107" y="673"/>
      <point x="129" y="662"/>
      <point x="146" y="644" type="curve" smooth="yes"/>
      <point x="162" y="626"/>
      <point x="173" y="601"/>
      <point x="173" y="570" type="curve" smooth="yes"/>
      <point x="173" y="433" type="line" smooth="yes"/>
      <point x="173" y="400"/>
      <point x="176" y="373"/>
      <point x="185" y="353" type="curve" smooth="yes"/>
      <point x="195" y="334"/>
      <point x="211" y="322"/>
      <point x="239" y="319" type="curve"/>
      <point x="259" y="319"/>
      <point x="270" y="304"/>
      <point x="270" y="288" type="curve" smooth="yes"/>
      <point x="270" y="273"/>
      <point x="259" y="258"/>
      <point x="239" y="258" type="curve"/>
      <point x="211" y="254"/>
      <point x="195" y="243"/>
      <point x="185" y="224" type="curve" smooth="yes"/>
      <point x="176" y="205"/>
      <point x="173" y="178"/>
      <point x="173" y="145" type="curve" smooth="yes"/>
      <point x="173" y="10" type="line" smooth="yes"/>
      <point x="173" y="-21"/>
      <point x="162" y="-47"/>
      <point x="146" y="-66" type="curve" smooth="yes"/>
      <point x="129" y="-84"/>
      <point x="107" y="-94"/>
      <point x="86" y="-94" type="curve" smooth="yes"/>
      <point x="33" y="-94" type="line" smooth="yes"/>
      <point x="15" y="-94"/>
      <point x="7" y="-80"/>
      <point x="7" y="-66" type="curve" smooth="yes"/>
      <point x="7" y="-51"/>
      <point x="15" y="-37"/>
      <point x="33" y="-37" type="curve" smooth="yes"/>
    </contour>
  </outline>
</glyph>
<glyph name="asciitilde" format="1">
  <advance width="610"/>
  <unicode hex="007E"/>
  <outline>
	<contour>
	  <point x="366" y="590"/>
	  <point x="375" y="595"/>
	  <point x="383" y="606" type="curve" smooth="yes"/>
	  <point x="390" y="617"/>
	  <point x="398" y="620"/>
	  <point x="405" y="620" type="curve" smooth="yes"/>
	  <point x="417" y="620"/>
	  <point x="426" y="610"/>
	  <point x="426" y="598" type="curve" smooth="yes"/>
	  <point x="426" y="595"/>
	  <point x="426" y="593"/>
	  <point x="425" y="590" type="curve" smooth="yes"/>
	  <point x="412" y="557"/>
	  <point x="389" y="537"/>
	  <point x="349" y="537" type="curve" smooth="yes"/>
	  <point x="331" y="537"/>
	  <point x="312" y="545"/>
	  <point x="293" y="553" type="curve" smooth="yes"/>
	  <point x="274" y="560"/>
	  <point x="256" y="568"/>
	  <point x="240" y="568" type="curve" smooth="yes"/>
	  <point x="227" y="568"/>
	  <point x="216" y="563"/>
	  <point x="205" y="550" type="curve" smooth="yes"/>
	  <point x="199" y="543"/>
	  <point x="193" y="540"/>
	  <point x="185" y="540" type="curve" smooth="yes"/>
	  <point x="174" y="540"/>
	  <point x="164" y="548"/>
	  <point x="164" y="560" type="curve" smooth="yes"/>
	  <point x="164" y="563"/>
	  <point x="165" y="566"/>
	  <point x="167" y="570" type="curve" smooth="yes"/>
	  <point x="182" y="602"/>
	  <point x="206" y="620"/>
	  <point x="243" y="620" type="curve" smooth="yes"/>
	  <point x="263" y="620"/>
	  <point x="284" y="612"/>
	  <point x="303" y="605" type="curve" smooth="yes"/>
	  <point x="322" y="598"/>
	  <point x="339" y="590"/>
	  <point x="354" y="590" type="curve" smooth="yes"/>
	</contour>
  </outline>
</glyph>
<glyph name="exclamdown" format="1">
  <advance width="361"/>
  <unicode hex="00A1"/>
  <outline>
    <contour>
      <point x="205" y="423"/>
      <point x="217" y="428"/>
      <point x="226" y="435" type="curve" smooth="yes"/>
      <point x="234" y="443"/>
      <point x="238" y="454"/>
      <point x="238" y="463" type="curve" smooth="yes"/>
      <point x="238" y="474"/>
      <point x="234" y="485"/>
      <point x="226" y="492" type="curve" smooth="yes"/>
      <point x="217" y="500"/>
      <point x="205" y="505"/>
      <point x="189" y="505" type="curve" smooth="yes"/>
      <point x="172" y="505"/>
      <point x="160" y="500"/>
      <point x="152" y="492" type="curve" smooth="yes"/>
      <point x="144" y="485"/>
      <point x="139" y="474"/>
      <point x="139" y="463" type="curve" smooth="yes"/>
      <point x="139" y="454"/>
      <point x="144" y="443"/>
      <point x="152" y="435" type="curve" smooth="yes"/>
      <point x="160" y="428"/>
      <point x="172" y="423"/>
      <point x="189" y="423" type="curve" smooth="yes"/>
    </contour>
    <contour>
      <point x="144" y="-132" type="line" smooth="yes"/>
      <point x="144" y="-156"/>
      <point x="164" y="-168"/>
      <point x="186" y="-168" type="curve" smooth="yes"/>
      <point x="208" y="-168"/>
      <point x="228" y="-157"/>
      <point x="228" y="-132" type="curve"/>
      <point x="215" y="306" type="line" smooth="yes"/>
      <point x="213" y="330"/>
      <point x="200" y="342"/>
      <point x="185" y="342" type="curve" smooth="yes"/>
      <point x="171" y="342"/>
      <point x="157" y="330"/>
      <point x="156" y="306" type="curve" smooth="yes"/>
    </contour>
  </outline>
</glyph>
<glyph name="cent" format="1">
  <advance width="469"/>
  <unicode hex="00A2"/>
  <outline>
	<contour>
	  <point x="38" y="284"/>
	  <point x="56" y="340"/>
	  <point x="89" y="383" type="curve" smooth="yes"/>
	  <point x="122" y="426"/>
	  <point x="169" y="455"/>
	  <point x="225" y="462" type="curve"/>
	  <point x="225" y="558" type="line" smooth="yes"/>
	  <point x="225" y="578"/>
	  <point x="240" y="587"/>
	  <point x="254" y="587" type="curve" smooth="yes"/>
	  <point x="269" y="587"/>
	  <point x="283" y="578"/>
	  <point x="283" y="558" type="curve" smooth="yes"/>
	  <point x="283" y="463" type="line"/>
	  <point x="305" y="461"/>
	  <point x="335" y="456"/>
	  <point x="359" y="447" type="curve" smooth="yes"/>
	  <point x="383" y="438"/>
	  <point x="401" y="426"/>
	  <point x="401" y="412" type="curve" smooth="yes"/>
	  <point x="401" y="399"/>
	  <point x="392" y="384"/>
	  <point x="379" y="384" type="curve" smooth="yes"/>
	  <point x="377" y="384"/>
	  <point x="375" y="384"/>
	  <point x="374" y="384" type="curve"/>
	  <point x="336" y="397"/>
	  <point x="304" y="406"/>
	  <point x="272" y="406" type="curve" smooth="yes"/>
	  <point x="228" y="406"/>
	  <point x="189" y="391"/>
	  <point x="161" y="362" type="curve" smooth="yes"/>
	  <point x="132" y="332"/>
	  <point x="115" y="287"/>
	  <point x="115" y="227" type="curve" smooth="yes"/>
	  <point x="115" y="172"/>
	  <point x="129" y="127"/>
	  <point x="156" y="96" type="curve" smooth="yes"/>
	  <point x="182" y="66"/>
	  <point x="220" y="48"/>
	  <point x="269" y="48" type="curve" smooth="yes"/>
	  <point x="302" y="48"/>
	  <point x="341" y="55"/>
	  <point x="383" y="72" type="curve"/>
	  <point x="385" y="72"/>
	  <point x="387" y="73"/>
	  <point x="389" y="73" type="curve" smooth="yes"/>
	  <point x="404" y="73"/>
	  <point x="414" y="59"/>
	  <point x="414" y="45" type="curve" smooth="yes"/>
	  <point x="414" y="27"/>
	  <point x="393" y="15"/>
	  <point x="366" y="5" type="curve" smooth="yes"/>
	  <point x="339" y="-5"/>
	  <point x="307" y="-10"/>
	  <point x="283" y="-12" type="curve"/>
	  <point x="283" y="-103" type="line" smooth="yes"/>
	  <point x="283" y="-123"/>
	  <point x="268" y="-132"/>
	  <point x="254" y="-132" type="curve" smooth="yes"/>
	  <point x="239" y="-132"/>
	  <point x="225" y="-123"/>
	  <point x="225" y="-103" type="curve" smooth="yes"/>
	  <point x="225" y="-11" type="line"/>
	  <point x="163" y="-5"/>
	  <point x="116" y="24"/>
	  <point x="86" y="67" type="curve" smooth="yes"/>
	  <point x="54" y="110"/>
	  <point x="38" y="166"/>
	  <point x="38" y="226" type="curve" smooth="yes"/>
	</contour>
  </outline>
</glyph>
<glyph name="currency" format="1">
  <advance width="529"/>
  <unicode hex="00A4"/>
  <outline>
    <contour>
      <point x="217" y="83"/>
      <point x="177" y="97"/>
      <point x="147" y="119" type="curve"/>
      <point x="107" y="80" type="line" smooth="yes"/>
      <point x="102" y="75"/>
      <point x="96" y="72"/>
      <point x="91" y="72" type="curve" smooth="yes"/>
      <point x="78" y="72"/>
      <point x="67" y="83"/>
      <point x="67" y="96" type="curve" smooth="yes"/>
      <point x="67" y="102"/>
      <point x="70" y="107"/>
      <point x="75" y="112" type="curve" smooth="yes"/>
      <point x="113" y="151" type="line"/>
      <point x="86" y="186"/>
      <point x="72" y="229"/>
      <point x="72" y="273" type="curve" smooth="yes"/>
      <point x="72" y="317"/>
      <point x="85" y="359"/>
      <point x="112" y="394" type="curve"/>
      <point x="75" y="432" type="line" smooth="yes"/>
      <point x="70" y="437"/>
      <point x="67" y="443"/>
      <point x="67" y="449" type="curve" smooth="yes"/>
      <point x="67" y="461"/>
      <point x="78" y="472"/>
      <point x="91" y="472" type="curve" smooth="yes"/>
      <point x="96" y="472"/>
      <point x="102" y="470"/>
      <point x="107" y="465" type="curve" smooth="yes"/>
      <point x="145" y="426" type="line"/>
      <point x="176" y="450"/>
      <point x="216" y="464"/>
      <point x="267" y="464" type="curve" smooth="yes"/>
      <point x="317" y="464"/>
      <point x="358" y="450"/>
      <point x="389" y="426" type="curve"/>
      <point x="427" y="465" type="line" smooth="yes"/>
      <point x="432" y="470"/>
      <point x="437" y="472"/>
      <point x="443" y="472" type="curve" smooth="yes"/>
      <point x="455" y="472"/>
      <point x="466" y="461"/>
      <point x="466" y="448" type="curve" smooth="yes"/>
      <point x="466" y="443"/>
      <point x="465" y="437"/>
      <point x="460" y="432" type="curve" smooth="yes"/>
      <point x="421" y="394" type="line"/>
      <point x="448" y="359"/>
      <point x="461" y="317"/>
      <point x="461" y="273" type="curve" smooth="yes"/>
      <point x="461" y="229"/>
      <point x="447" y="186"/>
      <point x="420" y="151" type="curve"/>
      <point x="460" y="112" type="line" smooth="yes"/>
      <point x="465" y="107"/>
      <point x="466" y="101"/>
      <point x="466" y="96" type="curve" smooth="yes"/>
      <point x="466" y="84"/>
      <point x="455" y="72"/>
      <point x="443" y="72" type="curve"/>
      <point x="438" y="72"/>
      <point x="432" y="75"/>
      <point x="427" y="80" type="curve" smooth="yes"/>
      <point x="387" y="120" type="line"/>
      <point x="356" y="96"/>
      <point x="316" y="83"/>
      <point x="267" y="83" type="curve" smooth="yes"/>
    </contour>
    <contour>
      <point x="221" y="418"/>
      <point x="186" y="399"/>
      <point x="163" y="373" type="curve" smooth="yes"/>
      <point x="139" y="345"/>
      <point x="128" y="309"/>
      <point x="128" y="273" type="curve" smooth="yes"/>
      <point x="128" y="238"/>
      <point x="139" y="202"/>
      <point x="163" y="175" type="curve" smooth="yes"/>
      <point x="186" y="147"/>
      <point x="221" y="130"/>
      <point x="267" y="130" type="curve" smooth="yes"/>
      <point x="313" y="130"/>
      <point x="347" y="147"/>
      <point x="371" y="175" type="curve" smooth="yes"/>
      <point x="394" y="202"/>
      <point x="405" y="238"/>
      <point x="405" y="273" type="curve" smooth="yes"/>
      <point x="405" y="309"/>
      <point x="394" y="345"/>
      <point x="371" y="373" type="curve" smooth="yes"/>
      <point x="347" y="399"/>
      <point x="313" y="418"/>
      <point x="267" y="418" type="curve" smooth="yes"/>
    </contour>
  </outline>
</glyph>
<glyph name="brokenbar" format="1">
  <advance width="207"/>
  <unicode hex="00A6"/>
  <outline>
	<contour>
	  <point x="72" y="587" type="line" smooth="yes"/>
	  <point x="72" y="609"/>
	  <point x="88" y="619"/>
	  <point x="104" y="619" type="curve" smooth="yes"/>
	  <point x="120" y="619"/>
	  <point x="135" y="609"/>
	  <point x="135" y="587" type="curve" smooth="yes"/>
	  <point x="135" y="321" type="line" smooth="yes"/>
	  <point x="135" y="299"/>
	  <point x="120" y="291"/>
	  <point x="109" y="289" type="curve"/>
	  <point x="121" y="288"/>
	  <point x="135" y="279"/>
	  <point x="135" y="258" type="curve" smooth="yes"/>
	  <point x="135" y="-21" type="line" smooth="yes"/>
	  <point x="135" y="-43"/>
	  <point x="119" y="-53"/>
	  <point x="103" y="-53" type="curve" smooth="yes"/>
	  <point x="87" y="-53"/>
	  <point x="72" y="-43"/>
	  <point x="72" y="-21" type="curve" smooth="yes"/>
	  <point x="72" y="258" type="line" smooth="yes"/>
	  <point x="72" y="279"/>
	  <point x="86" y="287"/>
	  <point x="97" y="289" type="curve"/>
	  <point x="86" y="291"/>
	  <point x="72" y="299"/>
	  <point x="72" y="321" type="curve" smooth="yes"/>
	</contour>
  </outline>
</glyph>
